<?xml version="1.0" encoding="UTF-8"?>
<svg xmlns="http://www.w3.org/2000/svg" xmlns:xlink="http://www.w3.org/1999/xlink" viewBox="0 0 30 30" width="30px" height="30px">
<g id="surface36612394">
<path style=" stroke:none;fill-rule:nonzero;fill:rgb(100%,100%,100%);fill-opacity:1;" d="M 15.089844 3 C 10.132812 3 7.320312 5.777344 7.242188 9.800781 L 7.242188 10 L 11.617188 10 L 11.617188 9.800781 C 11.714844 8.023438 12.941406 6.878906 14.796875 6.878906 C 16.640625 6.878906 17.867188 7.941406 17.867188 9.445312 C 17.867188 10.945312 17.238281 11.722656 15.152344 12.964844 C 12.925781 14.273438 12.035156 15.726562 12.246094 18.3125 L 12.269531 19 L 16.558594 19 L 16.558594 18.34375 C 16.558594 16.792969 17.15625 16 19.304688 14.757812 C 21.582031 13.417969 22.757812 11.722656 22.757812 9.300781 C 22.757812 5.566406 19.707031 3 15.089844 3 Z M 14.507812 22 C 12.863281 22 11.839844 22.953125 11.839844 24.507812 C 11.839844 26.046875 12.867188 27 14.507812 27 C 16.148438 27 17.160156 26.046875 17.160156 24.507812 C 17.160156 22.953125 16.152344 22 14.507812 22 Z M 14.507812 22 "/>
</g>
</svg>
