<?xml version="1.0" encoding="UTF-8"?>
<svg xmlns="http://www.w3.org/2000/svg" xmlns:xlink="http://www.w3.org/1999/xlink" viewBox="0 0 30 30" width="30px" height="30px">
<g id="surface32372642">
<path style=" stroke:none;fill-rule:nonzero;fill:rgb(100%,100%,100%);fill-opacity:1;" d="M 4 5 C 2.894531 5 2 5.894531 2 7 L 2 13 L 4.101562 13 C 4.257812 13.742188 4.589844 14.414062 5.035156 15 L 2 15 L 2 23 C 2 24.105469 2.894531 25 4 25 L 10 25 L 10 19.222656 C 10.039062 19.1875 10.085938 19.160156 10.121094 19.121094 L 11 18.242188 L 11.878906 19.121094 C 11.917969 19.160156 11.960938 19.183594 12 19.222656 L 12 25 L 26 25 C 27.105469 25 28 24.105469 28 23 L 28 15 L 16.964844 15 C 17.410156 14.414062 17.742188 13.742188 17.894531 13 L 28 13 L 28 7 C 28 5.894531 27.105469 5 26 5 L 12 5 L 12 7.105469 C 11.65625 7.175781 11.320312 7.28125 11 7.421875 C 10.679688 7.28125 10.34375 7.175781 10 7.105469 L 10 5 Z M 9 9 C 9.769531 9 10.46875 9.300781 11 9.78125 C 11.53125 9.300781 12.230469 9 13 9 C 14.652344 9 16 10.347656 16 12 C 16 13.527344 14.851562 14.777344 13.378906 14.964844 L 14.707031 16.292969 C 15.097656 16.683594 15.097656 17.316406 14.707031 17.707031 C 14.511719 17.902344 14.257812 18 14 18 C 13.742188 18 13.488281 17.902344 13.292969 17.707031 L 11 15.414062 L 8.707031 17.707031 C 8.511719 17.902344 8.257812 18 8 18 C 7.742188 18 7.488281 17.902344 7.292969 17.707031 C 6.902344 17.316406 6.902344 16.683594 7.292969 16.292969 L 8.625 14.964844 C 7.148438 14.777344 6 13.527344 6 12 C 6 10.347656 7.347656 9 9 9 Z M 9 11 C 8.449219 11 8 11.449219 8 12 C 8 12.550781 8.449219 13 9 13 L 10 13 L 10 12 C 10 11.449219 9.550781 11 9 11 Z M 13 11 C 12.449219 11 12 11.449219 12 12 L 12 13 L 13 13 C 13.550781 13 14 12.550781 14 12 C 14 11.449219 13.550781 11 13 11 Z M 20 20 C 20.550781 20 21 20.449219 21 21 C 21 21.550781 20.550781 22 20 22 C 19.449219 22 19 21.550781 19 21 C 19 20.449219 19.449219 20 20 20 Z M 24 20 C 24.550781 20 25 20.449219 25 21 C 25 21.550781 24.550781 22 24 22 C 23.449219 22 23 21.550781 23 21 C 23 20.449219 23.449219 20 24 20 Z M 24 20 "/>
</g>
</svg>
