<?xml version="1.0" encoding="UTF-8"?>
<svg xmlns="http://www.w3.org/2000/svg" xmlns:xlink="http://www.w3.org/1999/xlink" viewBox="0 0 30 30" width="30px" height="30px">
<g id="surface32377877">
<path style=" stroke:none;fill-rule:nonzero;fill:rgb(100%,100%,100%);fill-opacity:1;" d="M 12 3 C 10.894531 3 10 3.894531 10 5 C 10 5.746094 10.417969 6.429688 11.078125 6.773438 C 11.179688 7.277344 11.378906 7.746094 11.648438 8.164062 C 9.640625 8.339844 7.667969 8.660156 5.757812 9.136719 C 5.222656 9.269531 4.894531 9.8125 5.027344 10.347656 C 5.164062 10.882812 5.707031 11.210938 6.242188 11.078125 C 9.046875 10.378906 11.980469 10 15 10 C 18.019531 10 20.953125 10.378906 23.757812 11.078125 C 24.105469 11.164062 24.472656 11.058594 24.71875 10.800781 C 24.96875 10.542969 25.058594 10.171875 24.960938 9.828125 C 24.863281 9.484375 24.589844 9.222656 24.242188 9.136719 C 22.332031 8.660156 20.359375 8.339844 18.351562 8.164062 C 18.621094 7.746094 18.820312 7.277344 18.921875 6.777344 C 19.582031 6.433594 20 5.746094 20 5 C 20 3.894531 19.105469 3 18 3 C 16.894531 3 16 3.894531 16 5 C 16 5.664062 16.332031 6.285156 16.882812 6.660156 C 16.613281 7.441406 15.882812 8 15 8 C 14.117188 8 13.386719 7.441406 13.117188 6.65625 C 13.667969 6.285156 14 5.664062 14 5 C 14 3.894531 13.105469 3 12 3 Z M 15 12.027344 C 11.847656 12.027344 8.695312 12.480469 5.613281 13.386719 C 4.460938 15.589844 3 18.953125 3 21.9375 L 3.003906 21.941406 C 3 21.960938 3 21.980469 3 22 C 3 24.761719 5.238281 27 8 27 C 8.078125 27 8.15625 26.996094 8.238281 26.992188 L 21.847656 26.992188 C 21.898438 26.996094 21.949219 27 22 27 C 24.761719 27 27 24.761719 27 22 C 27 21.980469 27 21.960938 27 21.941406 L 27 21.9375 C 27 21.910156 26.996094 21.882812 26.996094 21.855469 C 26.992188 21.761719 26.988281 21.664062 26.980469 21.570312 C 26.867188 18.679688 25.492188 15.5 24.386719 13.386719 C 21.304688 12.480469 18.152344 12.027344 15 12.027344 Z M 15 12.027344 "/>
</g>
</svg>
