<?xml version="1.0" encoding="UTF-8"?>
<svg xmlns="http://www.w3.org/2000/svg" xmlns:xlink="http://www.w3.org/1999/xlink" viewBox="0 0 30 30" width="30px" height="30px">
<g id="surface31608483">
<path style=" stroke:none;fill-rule:nonzero;fill:rgb(100%,100%,100%);fill-opacity:1;" d="M 20.5 3 C 19.121094 3 18 4.121094 18 5.5 C 18 6.878906 19.121094 8 20.5 8 C 21.878906 8 23 6.878906 23 5.5 C 23 4.121094 21.878906 3 20.5 3 Z M 18.5 9 C 18.105469 9 17.738281 9.097656 17.40625 9.261719 C 17.28125 9.300781 17.164062 9.363281 17.0625 9.445312 L 14.0625 11.835938 C 14.003906 11.882812 13.949219 11.9375 13.902344 11.996094 L 11.214844 15.378906 C 10.980469 15.65625 10.914062 16.042969 11.046875 16.382812 C 11.175781 16.722656 11.484375 16.964844 11.84375 17.015625 C 12.207031 17.066406 12.566406 16.914062 12.78125 16.621094 L 12.808594 16.585938 L 12.808594 16.59375 L 14.917969 14.269531 L 15.4375 13.957031 C 15.289062 14.746094 15.054688 15.984375 15.050781 15.988281 C 15.050781 15.992188 15.050781 15.992188 15.050781 15.996094 C 15.050781 15.996094 15.050781 16 15.050781 16 C 15.019531 16.160156 15 16.328125 15 16.5 C 15 17.269531 15.355469 17.953125 15.90625 18.410156 L 15.914062 18.433594 L 19.804688 21.5 L 20.917969 25.691406 L 21.011719 26.160156 C 21.089844 26.644531 21.507812 27 22 27 C 22.550781 27 23 26.550781 23 26 C 23 25.933594 22.992188 25.867188 22.980469 25.804688 L 21.980469 20.804688 C 21.953125 20.667969 21.898438 20.539062 21.820312 20.429688 L 19.949219 17.003906 C 19.949219 16.996094 19.949219 16.984375 19.949219 16.976562 L 20.933594 12.0625 L 20.929688 12.0625 C 20.972656 11.878906 21 11.691406 21 11.5 C 21 10.121094 19.878906 9 18.496094 9 Z M 22.386719 12.742188 L 21.917969 15.007812 L 22.332031 15.378906 C 22.40625 15.449219 22.492188 15.507812 22.585938 15.546875 L 25.585938 16.910156 C 25.714844 16.96875 25.855469 17 26 17 C 26.550781 17 27 16.550781 27 16 C 27 15.609375 26.769531 15.253906 26.414062 15.089844 L 26.386719 15.078125 L 23.550781 13.789062 Z M 10.6875 17 C 10.296875 16.992188 9.917969 17.210938 9.746094 17.589844 L 9.097656 19.011719 L 7.273438 18.183594 C 6.789062 17.964844 6.242188 17.945312 5.742188 18.136719 C 5.242188 18.324219 4.847656 18.695312 4.628906 19.175781 L 3.179688 22.347656 C 2.726562 23.351562 3.171875 24.539062 4.175781 24.996094 L 5.097656 25.414062 C 5.347656 24.597656 6.101562 24 7 24 C 7.675781 24 8.269531 24.335938 8.628906 24.847656 C 8.632812 24.839844 8.640625 24.835938 8.640625 24.828125 L 11.566406 18.417969 C 11.796875 17.914062 11.574219 17.320312 11.074219 17.089844 C 10.945312 17.035156 10.816406 17.003906 10.6875 17 Z M 14.957031 19.722656 L 14.441406 21.421875 L 12.214844 25.363281 L 12.140625 25.488281 L 12.144531 25.488281 C 12.128906 25.507812 12.121094 25.527344 12.109375 25.546875 L 12.101562 25.5625 C 12.035156 25.699219 12 25.847656 12 26 C 12 26.550781 12.449219 27 13 27 C 13.320312 27 13.621094 26.847656 13.808594 26.589844 L 13.8125 26.589844 L 13.828125 26.5625 L 17.15625 21.511719 Z M 7 25 C 6.449219 25 6 25.449219 6 26 C 6 26.550781 6.449219 27 7 27 C 7.550781 27 8 26.550781 8 26 C 8 25.449219 7.550781 25 7 25 Z M 7 25 "/>
</g>
</svg>
