<?xml version="1.0" encoding="UTF-8"?>
<svg xmlns="http://www.w3.org/2000/svg" xmlns:xlink="http://www.w3.org/1999/xlink" viewBox="0 0 30 30" width="30px" height="30px">
<g id="surface32401762">
<path style=" stroke:none;fill-rule:nonzero;fill:rgb(100%,100%,100%);fill-opacity:1;" d="M 19.902344 2.003906 L 9.902344 3.003906 C 9.390625 3.058594 9 3.484375 9 4 L 9 5 L 7 5 C 6.449219 5 6 5.449219 6 6 L 6 8 L 24 8 L 24 6 C 24 5.449219 23.550781 5 23 5 L 21 5 L 21 3 C 21 2.71875 20.882812 2.449219 20.671875 2.257812 C 20.460938 2.070312 20.183594 1.976562 19.902344 2.003906 Z M 7 10 L 8.792969 25.234375 C 8.910156 26.242188 9.765625 27 10.777344 27 L 19.222656 27 C 20.238281 27 21.089844 26.242188 21.207031 25.234375 L 23 10 Z M 15.003906 14 C 16.863281 14 18.414062 15.277344 18.859375 17 L 20.5625 17 L 20.324219 19 L 18.859375 19 C 18.414062 20.722656 16.863281 22 15 22 C 13.136719 22 11.585938 20.722656 11.140625 19 L 9.699219 19 L 9.464844 17 L 11.144531 17 C 11.589844 15.277344 13.140625 14 15.003906 14 Z M 15 16 C 13.894531 16 13 16.894531 13 18 C 13 19.105469 13.894531 20 15 20 C 16.105469 20 17 19.105469 17 18 C 17 16.894531 16.105469 16 15 16 Z M 15 16 "/>
</g>
</svg>
