<?xml version="1.0" encoding="UTF-8"?>
<svg xmlns="http://www.w3.org/2000/svg" xmlns:xlink="http://www.w3.org/1999/xlink" viewBox="0 0 30 30" width="30px" height="30px">
<g id="surface34005903">
<path style=" stroke:none;fill-rule:nonzero;fill:rgb(100%,100%,100%);fill-opacity:1;" d="M 15 2 C 13.183594 2 11.453125 2.378906 9.882812 3.054688 L 10.828125 4 C 11.023438 4.195312 11.195312 4.410156 11.34375 4.640625 C 12.488281 4.234375 13.71875 4 15 4 C 21.066406 4 26 8.933594 26 15 C 26 21.066406 21.066406 26 15 26 C 8.933594 26 4 21.066406 4 15 C 4 13.71875 4.234375 12.492188 4.636719 11.347656 C 4.410156 11.195312 4.195312 11.023438 4 10.828125 L 3.054688 9.882812 C 2.378906 11.453125 2 13.183594 2 15 C 2 22.167969 7.832031 28 15 28 C 22.167969 28 28 22.167969 28 15 C 28 7.832031 22.167969 2 15 2 Z M 3.988281 2.988281 C 3.582031 2.992188 3.21875 3.238281 3.0625 3.613281 C 2.910156 3.992188 3 4.421875 3.292969 4.707031 L 4.585938 6 L 3.714844 6 C 3.082031 6 2.765625 6.765625 3.210938 7.214844 L 5.414062 9.414062 C 5.789062 9.789062 6.296875 10 6.828125 10 L 8.585938 10 L 14.292969 15.707031 C 14.542969 15.96875 14.917969 16.074219 15.265625 15.980469 C 15.617188 15.890625 15.890625 15.617188 15.980469 15.265625 C 16.074219 14.917969 15.96875 14.542969 15.707031 14.292969 L 10 8.585938 L 10 6.828125 C 10 6.296875 9.789062 5.789062 9.414062 5.414062 L 7.214844 3.214844 C 6.765625 2.765625 6 3.082031 6 3.714844 L 6 4.585938 L 4.707031 3.292969 C 4.519531 3.097656 4.261719 2.992188 3.992188 2.992188 Z M 15 6 C 13.9375 6 12.917969 6.195312 11.96875 6.535156 C 11.980469 6.632812 12 6.730469 12 6.828125 L 12 7.757812 L 12.652344 8.414062 C 13.390625 8.148438 14.175781 8 15 8 C 18.859375 8 22 11.140625 22 15 C 22 18.859375 18.859375 22 15 22 C 11.140625 22 8 18.859375 8 15 C 8 14.175781 8.148438 13.390625 8.414062 12.652344 L 7.757812 12 L 6.828125 12 C 6.730469 12 6.632812 11.980469 6.535156 11.96875 C 6.195312 12.917969 6 13.9375 6 15 C 6 19.960938 10.035156 24 15 24 C 19.964844 24 24 19.960938 24 15 C 24 10.039062 19.964844 6 15 6 Z M 15 10 C 14.765625 10 14.539062 10.039062 14.3125 10.070312 L 17.121094 12.878906 C 17.664062 13.425781 18 14.171875 18 15 C 18 16.652344 16.652344 18 15 18 C 14.171875 18 13.425781 17.664062 12.878906 17.121094 L 10.070312 14.3125 C 10.039062 14.539062 10 14.765625 10 15 C 10 17.757812 12.242188 20 15 20 C 17.757812 20 20 17.757812 20 15 C 20 12.242188 17.757812 10 15 10 Z M 15 10 "/>
</g>
</svg>
