<?xml version="1.0" encoding="UTF-8"?>
<svg xmlns="http://www.w3.org/2000/svg" xmlns:xlink="http://www.w3.org/1999/xlink" viewBox="0 0 30 30" width="30px" height="30px">
<g id="surface32734119">
<path style=" stroke:none;fill-rule:nonzero;fill:rgb(100%,100%,100%);fill-opacity:1;" d="M 15 0 C 11.699219 0 9 2.699219 9 6 C 8.996094 6.359375 9.183594 6.695312 9.496094 6.878906 C 9.808594 7.058594 10.191406 7.058594 10.503906 6.878906 C 10.816406 6.695312 11.003906 6.359375 11 6 C 11 3.78125 12.78125 2 15 2 C 17.21875 2 19 3.78125 19 6 C 18.996094 6.359375 19.183594 6.695312 19.496094 6.878906 C 19.808594 7.058594 20.191406 7.058594 20.503906 6.878906 C 20.816406 6.695312 21.003906 6.359375 21 6 C 21 2.824219 18.484375 0.265625 15.355469 0.0703125 C 15.242188 0.0273438 15.121094 0.00390625 15 0 Z M 6.941406 9 C 6.492188 9 6.097656 9.300781 5.976562 9.734375 L 4.050781 16.8125 C 3.871094 17.460938 4.289062 18.125 4.957031 18.238281 C 6.699219 18.53125 10.210938 19 15 19 C 19.789062 19 23.300781 18.53125 25.042969 18.238281 C 25.710938 18.125 26.128906 17.460938 25.949219 16.8125 L 24.019531 9.734375 C 23.902344 9.300781 23.507812 9 23.054688 9 Z M 3.976562 20.023438 L 3.019531 24.800781 C 2.960938 25.097656 3.035156 25.402344 3.226562 25.632812 C 3.417969 25.863281 3.699219 26 4 26 L 6 26 C 6 26.550781 6.449219 27 7 27 C 7.550781 27 8 26.550781 8 26 L 21 26 C 21 26.550781 21.449219 27 22 27 C 22.550781 27 23 26.550781 23 26 L 26 26 C 26.300781 26 26.582031 25.867188 26.773438 25.632812 C 26.964844 25.402344 27.039062 25.097656 26.980469 24.804688 L 26.023438 20.023438 C 25.816406 20.105469 25.601562 20.171875 25.378906 20.207031 C 23.847656 20.46875 20.824219 20.882812 16.734375 20.980469 C 16.390625 21.585938 15.746094 22 15 22 C 14.253906 22 13.609375 21.585938 13.265625 20.976562 C 9.175781 20.882812 6.152344 20.46875 4.621094 20.207031 C 4.398438 20.167969 4.183594 20.109375 3.976562 20.023438 Z M 3.976562 20.023438 "/>
</g>
</svg>
