<?xml version="1.0" encoding="UTF-8"?>
<svg xmlns="http://www.w3.org/2000/svg" xmlns:xlink="http://www.w3.org/1999/xlink" viewBox="0 0 30 30" width="30px" height="30px">
<g id="surface32109510">
<path style=" stroke:none;fill-rule:nonzero;fill:rgb(100%,100%,100%);fill-opacity:1;" d="M 19.425781 3.007812 C 19.140625 2.996094 18.855469 3 18.566406 3.015625 C 16.5625 3.144531 14.699219 4.097656 13.28125 5.519531 L 5.546875 13.253906 C 2.460938 16.339844 2.179688 21.410156 5.199219 24.558594 C 6.707031 26.128906 8.75 27 10.921875 27 C 12.289062 27 13.601562 26.652344 14.765625 26.003906 C 13.664062 24.632812 13 22.894531 13 21 C 13 18.429688 14.214844 16.148438 16.101562 14.6875 L 12.226562 10.8125 C 11.835938 10.421875 11.835938 9.789062 12.226562 9.398438 L 14.890625 6.734375 C 16.042969 5.582031 17.5625 5.003906 19.078125 5.003906 C 20.59375 5.003906 22.113281 5.582031 23.265625 6.734375 C 25.152344 8.621094 25.472656 11.464844 24.273438 13.703125 C 24.894531 13.984375 25.476562 14.339844 26 14.761719 C 27.667969 11.75 27.234375 7.875 24.679688 5.320312 C 23.265625 3.90625 21.410156 3.09375 19.425781 3.007812 Z M 21 15 C 17.6875 15 15 17.6875 15 21 C 15 24.3125 17.6875 27 21 27 C 24.3125 27 27 24.3125 27 21 C 27 17.6875 24.3125 15 21 15 Z M 18.878906 17.875 C 19.136719 17.875 19.390625 17.976562 19.585938 18.171875 L 23.828125 22.414062 C 24.21875 22.804688 24.21875 23.4375 23.828125 23.828125 C 23.4375 24.21875 22.804688 24.21875 22.414062 23.828125 L 18.171875 19.585938 C 17.78125 19.195312 17.78125 18.5625 18.171875 18.171875 C 18.367188 17.976562 18.621094 17.875 18.878906 17.875 Z M 18.878906 17.875 "/>
</g>
</svg>
