<?xml version="1.0" encoding="UTF-8"?>
<svg xmlns="http://www.w3.org/2000/svg" xmlns:xlink="http://www.w3.org/1999/xlink" viewBox="0 0 30 30" width="30px" height="30px">
<g id="surface32399693">
<path style=" stroke:none;fill-rule:nonzero;fill:rgb(100%,100%,100%);fill-opacity:1;" d="M 10.5 3 C 9.4375 3 8.582031 3.570312 7.9375 4.324219 C 7.464844 4.132812 6.949219 3.828125 6.578125 3.84375 C 5.960938 3.867188 5.46875 4.152344 5.46875 4.152344 C 5 4.445312 4.859375 5.0625 5.152344 5.53125 C 5.445312 6 6.0625 6.140625 6.53125 5.847656 C 6.53125 5.847656 6.488281 5.847656 6.660156 5.84375 C 6.828125 5.835938 7.128906 5.855469 7.640625 6.242188 C 7.882812 6.421875 8.191406 6.484375 8.484375 6.414062 C 8.773438 6.339844 9.019531 6.140625 9.148438 5.867188 C 9.386719 5.355469 9.890625 5 10.5 5 C 10.882812 5 11.21875 5.144531 11.496094 5.390625 C 11.855469 5.714844 12.394531 5.730469 12.777344 5.433594 C 13.128906 5.160156 13.539062 5 14 5 C 14.652344 5 15.210938 5.308594 15.585938 5.796875 C 15.785156 6.058594 16.097656 6.207031 16.429688 6.191406 C 16.757812 6.175781 17.058594 5.996094 17.230469 5.714844 C 17.496094 5.285156 17.957031 5 18.5 5 C 19.011719 5 19.449219 5.25 19.722656 5.636719 C 20.027344 6.070312 20.617188 6.1875 21.070312 5.90625 C 21.496094 5.636719 21.972656 5.882812 21.972656 5.882812 C 22.289062 6.058594 22.675781 6.046875 22.984375 5.855469 C 23.289062 5.667969 23.46875 5.328125 23.457031 4.96875 C 23.441406 4.605469 23.234375 4.28125 22.914062 4.117188 C 22.914062 4.117188 21.941406 3.828125 20.863281 4.046875 C 20.234375 3.441406 19.4375 3 18.5 3 C 17.652344 3 16.941406 3.378906 16.339844 3.882812 C 15.671875 3.375 14.902344 3 14 3 C 13.300781 3 12.726562 3.328125 12.164062 3.640625 C 11.648438 3.339844 11.140625 3 10.5 3 Z M 6 8 C 5.449219 8 5 8.449219 5 9 L 5 22 C 5 24.199219 6.800781 26 9 26 L 19 26 C 21.199219 26 23 24.199219 23 22 L 23 21 C 25.199219 21 27 19.199219 27 17 L 27 12 C 27 10.90625 26.09375 10 25 10 L 23 10 L 23 9 C 23 8.449219 22.550781 8 22 8 L 21 8 C 19.894531 8 19 8.894531 19 10 L 19 13 C 19 13.550781 18.550781 14 18 14 C 17.449219 14 17 13.550781 17 13 L 17 9 C 17 8.449219 16.550781 8 16 8 C 15.449219 8 15 8.449219 15 9 L 15 11 C 15 11.550781 14.550781 12 14 12 C 13.449219 12 13 11.550781 13 11 L 13 10 C 13 8.894531 12.105469 8 11 8 Z M 8 11 C 8.550781 11 9 11.449219 9 12 L 9 21 C 9 21.550781 8.550781 22 8 22 C 7.449219 22 7 21.550781 7 21 L 7 12 C 7 11.449219 7.449219 11 8 11 Z M 23 12 L 25 12 L 25 17 C 25 18.117188 24.117188 19 23 19 Z M 23 12 "/>
</g>
</svg>
