<?xml version="1.0" encoding="UTF-8"?>
<svg xmlns="http://www.w3.org/2000/svg" xmlns:xlink="http://www.w3.org/1999/xlink" viewBox="0 0 30 30" width="30px" height="30px">
<g id="surface32354608">
<path style=" stroke:none;fill-rule:nonzero;fill:rgb(100%,100%,100%);fill-opacity:1;" d="M 10.992188 4 C 10.910156 4.003906 10.828125 4.011719 10.75 4.027344 C 10.117188 4.148438 9.589844 4.675781 9.28125 5.488281 C 8.976562 6.300781 8.917969 7.332031 9.117188 8.355469 C 9.53125 10.492188 10.933594 12.015625 12.25 11.757812 C 13.566406 11.503906 14.296875 9.566406 13.886719 7.429688 C 13.5 5.445312 12.25 3.964844 10.992188 4 Z M 18.832031 4.007812 C 17.628906 4.101562 16.480469 5.550781 16.113281 7.433594 C 15.703125 9.566406 16.433594 11.503906 17.75 11.761719 C 19.066406 12.015625 20.46875 10.492188 20.886719 8.359375 C 21.082031 7.332031 21.023438 6.300781 20.71875 5.488281 C 20.410156 4.675781 19.882812 4.148438 19.25 4.027344 C 19.113281 4 18.976562 3.992188 18.832031 4.007812 Z M 5.761719 12.003906 C 5.398438 12.027344 5.066406 12.140625 4.785156 12.347656 C 3.652344 13.175781 3.757812 15.234375 5.011719 16.945312 C 6.269531 18.65625 8.191406 19.414062 9.128906 18.664062 C 10.226562 17.792969 10.363281 15.648438 9.105469 13.9375 C 8.164062 12.65625 6.839844 11.933594 5.761719 12.003906 Z M 24.238281 12.003906 C 23.160156 11.933594 21.835938 12.65625 20.894531 13.9375 C 19.636719 15.648438 19.773438 17.792969 20.871094 18.667969 C 21.808594 19.414062 23.730469 18.65625 24.988281 16.945312 C 26.242188 15.238281 26.347656 13.179688 25.21875 12.347656 C 24.933594 12.140625 24.601562 12.027344 24.242188 12.003906 Z M 15 15 C 13.34375 15 12 16.453125 12 18.277344 C 12 19.925781 9 20.484375 9 22.9375 C 9 24.628906 10.425781 26 12.1875 26 C 13.523438 26 13.890625 25 15 25 C 16.109375 25 16.5 26 17.785156 26 C 19.5625 26 21 24.628906 21 22.9375 C 21 20.484375 18 19.644531 18 18.277344 C 18 16.453125 16.65625 15 15 15 Z M 15 15 "/>
</g>
</svg>
