<?xml version="1.0" encoding="UTF-8"?>
<svg xmlns="http://www.w3.org/2000/svg" xmlns:xlink="http://www.w3.org/1999/xlink" viewBox="0 0 30 30" width="30px" height="30px">
<g id="surface32397775">
<path style=" stroke:none;fill-rule:nonzero;fill:rgb(100%,100%,100%);fill-opacity:1;" d="M 6 4 C 4.894531 4 4 4.894531 4 6 L 4 24 C 3.640625 23.996094 3.304688 24.183594 3.121094 24.496094 C 2.941406 24.808594 2.941406 25.191406 3.121094 25.503906 C 3.304688 25.816406 3.640625 26.003906 4 26 L 18 26 C 18.359375 26.003906 18.695312 25.816406 18.878906 25.503906 C 19.058594 25.191406 19.058594 24.808594 18.878906 24.496094 C 18.695312 24.183594 18.359375 23.996094 18 24 L 18 20 L 21 20 L 21 22.5 C 21 24.421875 22.578125 26 24.5 26 C 24.625 25.996094 24.746094 25.972656 24.859375 25.925781 C 26.605469 25.734375 28 24.292969 28 22.5 L 28 14 C 28 13.734375 27.894531 13.480469 27.707031 13.292969 L 23.707031 9.292969 C 23.660156 9.246094 23.609375 9.203125 23.554688 9.167969 L 20.554688 7.167969 C 20.386719 7.054688 20.191406 6.992188 19.992188 6.992188 C 19.546875 6.992188 19.15625 7.28125 19.03125 7.707031 C 18.902344 8.132812 19.074219 8.589844 19.445312 8.832031 L 22 10.535156 L 22 13 C 22 14.105469 22.894531 15 24 15 L 26 15 L 26 22.5 C 26 23.339844 25.339844 24 24.5 24 C 23.660156 24 23 23.339844 23 22.5 L 23 20 C 23 18.90625 22.09375 18 21 18 L 18 18 L 18 6 C 18 4.894531 17.105469 4 16 4 Z M 6 6 L 16 6 L 16 12 L 6 12 Z M 6 6 "/>
</g>
</svg>
