<?xml version="1.0" encoding="UTF-8"?>
<svg xmlns="http://www.w3.org/2000/svg" xmlns:xlink="http://www.w3.org/1999/xlink" viewBox="0 0 30 30" width="30px" height="30px">
<g id="surface32714513">
<path style=" stroke:none;fill-rule:nonzero;fill:rgb(100%,100%,100%);fill-opacity:1;" d="M 19.902344 2.003906 L 9.902344 3.003906 C 9.390625 3.058594 9 3.484375 9 4 L 9 5 L 7 5 C 6.449219 5 6 5.449219 6 6 L 6 8 L 24 8 L 24 6 C 24 5.449219 23.550781 5 23 5 L 21 5 L 21 3 C 21 2.71875 20.882812 2.449219 20.671875 2.257812 C 20.460938 2.070312 20.183594 1.976562 19.902344 2.003906 Z M 7 10 L 8.792969 25.234375 C 8.910156 26.242188 9.765625 27 10.777344 27 L 19.222656 27 C 20.238281 27 21.089844 26.242188 21.207031 25.234375 L 23 10 Z M 11 16.15625 C 11.550781 16.15625 12 16.605469 12 17.15625 C 12 17.707031 11.550781 18.15625 11 18.15625 C 10.449219 18.15625 10 17.707031 10 17.15625 C 10 16.605469 10.449219 16.15625 11 16.15625 Z M 19 16.15625 C 19.550781 16.15625 20 16.605469 20 17.15625 C 20 17.707031 19.550781 18.15625 19 18.15625 C 18.449219 18.15625 18 17.707031 18 17.15625 C 18 16.605469 18.449219 16.15625 19 16.15625 Z M 13 19 L 17 19 C 17 20.105469 16.105469 21 15 21 C 13.894531 21 13 20.105469 13 19 Z M 13 19 "/>
</g>
</svg>
