<?xml version="1.0" encoding="UTF-8"?>
<svg xmlns="http://www.w3.org/2000/svg" xmlns:xlink="http://www.w3.org/1999/xlink" viewBox="0 0 30 30" width="30px" height="30px">
<g id="surface32420557">
<path style=" stroke:none;fill-rule:nonzero;fill:rgb(100%,100%,100%);fill-opacity:1;" d="M 12.5 2 C 11.121094 2 10 3.121094 10 4.5 C 10 5.878906 11.121094 7 12.5 7 C 13.878906 7 15 5.878906 15 4.5 C 15 3.121094 13.878906 2 12.5 2 Z M 21.996094 8.953125 C 21.804688 8.960938 21.617188 9.023438 21.460938 9.128906 L 21.417969 9.164062 L 18.6875 10.589844 L 17.058594 9.503906 C 16.566406 9.175781 15.988281 9 15.394531 9 L 13 9 C 12.058594 9 11.164062 9.445312 10.601562 10.199219 L 8.859375 12.519531 L 5 13 C 4.640625 12.996094 4.304688 13.183594 4.121094 13.496094 C 3.941406 13.808594 3.941406 14.191406 4.121094 14.503906 C 4.304688 14.816406 4.640625 15.003906 5 15 L 9 15 C 9.285156 15 9.554688 14.878906 9.742188 14.667969 L 11 13.628906 L 11 16.121094 L 9.046875 20.671875 L 9.054688 20.683594 C 8.996094 20.847656 8.984375 21.023438 9.019531 21.195312 L 10.019531 26.195312 C 10.125 26.722656 10.628906 27.074219 11.164062 26.988281 C 11.695312 26.898438 12.0625 26.40625 11.992188 25.871094 L 11.65625 21.4375 L 13.25 19.34375 L 14.027344 21.507812 C 14.050781 21.621094 14.09375 21.726562 14.15625 21.824219 L 17.15625 26.535156 C 17.347656 26.839844 17.6875 27.015625 18.042969 27 C 18.402344 26.984375 18.722656 26.78125 18.886719 26.460938 C 19.050781 26.144531 19.035156 25.765625 18.84375 25.460938 L 18.84375 25.457031 L 16 20.15625 L 16 12.160156 L 18.71875 12.957031 C 19.003906 13.042969 19.3125 12.996094 19.5625 12.828125 L 22.582031 10.789062 C 22.957031 10.542969 23.121094 10.078125 22.984375 9.648438 C 22.847656 9.21875 22.441406 8.9375 21.996094 8.953125 Z M 27.640625 13.003906 L 24 14 L 24 18.796875 C 24 19.785156 20.5 18.75 20.5 21.328125 C 20.5 22.222656 21.300781 23 22.730469 23 C 24.492188 23 25 21.664062 25 20.175781 L 25 16.496094 L 27.75 15.675781 C 27.894531 15.648438 28 15.519531 28 15.371094 L 28 13.296875 C 28 13.109375 27.828125 12.96875 27.640625 13.003906 Z M 27.640625 13.003906 "/>
</g>
</svg>
