<?xml version="1.0" encoding="UTF-8"?>
<svg xmlns="http://www.w3.org/2000/svg" xmlns:xlink="http://www.w3.org/1999/xlink" viewBox="0 0 30 30" width="30px" height="30px">
<g id="surface34000408">
<path style=" stroke:none;fill-rule:nonzero;fill:rgb(100%,100%,100%);fill-opacity:1;" d="M 14.984375 0.988281 C 14.433594 0.996094 13.992188 1.449219 14 2 L 14 3.050781 C 8.183594 3.535156 3.535156 8.183594 3.050781 14 L 2 14 C 1.640625 13.996094 1.304688 14.183594 1.121094 14.496094 C 0.941406 14.808594 0.941406 15.191406 1.121094 15.503906 C 1.304688 15.816406 1.640625 16.003906 2 16 L 3.050781 16 C 3.535156 21.816406 8.183594 26.464844 14 26.949219 L 14 28 C 13.996094 28.359375 14.183594 28.695312 14.496094 28.878906 C 14.808594 29.058594 15.191406 29.058594 15.503906 28.878906 C 15.816406 28.695312 16.003906 28.359375 16 28 L 16 26.949219 C 21.816406 26.464844 26.464844 21.816406 26.949219 16 L 28 16 C 28.359375 16.003906 28.695312 15.816406 28.878906 15.503906 C 29.058594 15.191406 29.058594 14.808594 28.878906 14.496094 C 28.695312 14.183594 28.359375 13.996094 28 14 L 26.949219 14 C 26.464844 8.183594 21.816406 3.535156 16 3.050781 L 16 2 C 16.003906 1.730469 15.898438 1.46875 15.707031 1.277344 C 15.515625 1.085938 15.253906 0.980469 14.984375 0.988281 Z M 14 5.046875 L 14 7.066406 C 10.390625 7.523438 7.523438 10.390625 7.066406 14 L 5.046875 14 C 5.515625 9.265625 9.265625 5.515625 14 5.050781 Z M 16 5.046875 C 20.734375 5.515625 24.484375 9.265625 24.949219 14 L 22.933594 14 C 22.476562 10.390625 19.609375 7.523438 16 7.066406 Z M 14.003906 9.089844 C 14.050781 9.601562 14.480469 10 15 10 C 15.519531 10 15.949219 9.601562 15.996094 9.089844 C 18.519531 9.507812 20.492188 11.480469 20.910156 14.003906 C 20.398438 14.050781 20 14.480469 20 15 C 20 15.519531 20.398438 15.949219 20.910156 15.996094 C 20.492188 18.519531 18.519531 20.492188 15.996094 20.910156 C 15.957031 20.382812 15.511719 19.980469 14.984375 19.984375 C 14.46875 19.996094 14.042969 20.394531 14.003906 20.910156 C 11.480469 20.492188 9.507812 18.519531 9.089844 15.996094 C 9.601562 15.949219 10 15.519531 10 15 C 10 14.480469 9.601562 14.050781 9.089844 14.003906 C 9.507812 11.480469 11.480469 9.507812 14.003906 9.089844 Z M 15 13 C 13.894531 13 13 13.894531 13 15 C 13 16.105469 13.894531 17 15 17 C 16.105469 17 17 16.105469 17 15 C 17 13.894531 16.105469 13 15 13 Z M 5.046875 16 L 7.066406 16 C 7.523438 19.609375 10.390625 22.476562 14 22.933594 L 14 24.949219 C 9.265625 24.484375 5.515625 20.734375 5.050781 16 Z M 22.933594 16 L 24.949219 16 C 24.484375 20.734375 20.734375 24.484375 16 24.949219 L 16 22.933594 C 19.609375 22.476562 22.476562 19.609375 22.933594 16 Z M 22.933594 16 "/>
</g>
</svg>
