<?xml version="1.0" encoding="UTF-8"?>
<svg xmlns="http://www.w3.org/2000/svg" xmlns:xlink="http://www.w3.org/1999/xlink" viewBox="0 0 30 30" width="30px" height="30px">
<g id="surface31526388">
<path style=" stroke:none;fill-rule:nonzero;fill:rgb(100%,100%,100%);fill-opacity:1;" d="M 4 5 C 2.894531 5 2 5.894531 2 7 L 2 23 C 2 24.105469 2.894531 25 4 25 L 26 25 C 27.105469 25 28 24.105469 28 23 L 28 7 C 28 5.894531 27.105469 5 26 5 Z M 11.597656 9.4375 C 13.171875 9.4375 14.199219 10.515625 14.199219 12.175781 C 14.199219 13.828125 13.171875 14.917969 11.597656 14.917969 C 10.035156 14.917969 9 13.828125 9 12.175781 C 9 10.523438 10.027344 9.4375 11.597656 9.4375 Z M 17.253906 9.699219 L 19.699219 9.699219 L 15.652344 15.289062 L 12.820312 20.300781 L 10.367188 20.300781 L 14.347656 14.738281 Z M 11.597656 11.015625 C 11.152344 11.015625 10.878906 11.441406 10.878906 12.171875 C 10.878906 12.890625 11.152344 13.324219 11.597656 13.324219 C 12.039062 13.324219 12.3125 12.890625 12.3125 12.171875 C 12.3125 11.4375 12.054688 11.015625 11.597656 11.015625 Z M 18.40625 15.082031 C 19.972656 15.082031 21 16.164062 21 17.816406 C 21 19.476562 19.972656 20.5625 18.40625 20.5625 C 16.84375 20.5625 15.816406 19.476562 15.816406 17.816406 C 15.816406 16.164062 16.84375 15.082031 18.40625 15.082031 Z M 18.40625 16.664062 C 17.960938 16.664062 17.6875 17.089844 17.6875 17.816406 C 17.6875 18.535156 17.960938 18.96875 18.40625 18.96875 C 18.847656 18.96875 19.117188 18.535156 19.117188 17.816406 C 19.117188 17.082031 18.855469 16.664062 18.40625 16.664062 Z M 18.40625 16.664062 "/>
</g>
</svg>
