<?xml version="1.0" encoding="UTF-8"?>
<svg xmlns="http://www.w3.org/2000/svg" xmlns:xlink="http://www.w3.org/1999/xlink" viewBox="0 0 30 30" width="30px" height="30px">
<g id="surface32659503">
<path style=" stroke:none;fill-rule:nonzero;fill:rgb(100%,100%,100%);fill-opacity:1;" d="M 15 3 C 14.195312 3 13.503906 3.476562 13.1875 4.160156 C 11.484375 4.445312 9.917969 5.121094 8.570312 6.09375 C 8.390625 6.039062 8.199219 6 8 6 C 6.894531 6 6 6.894531 6 8 C 6 8.199219 6.039062 8.390625 6.09375 8.574219 C 5.121094 9.917969 4.445312 11.484375 4.160156 13.1875 C 3.476562 13.503906 3 14.195312 3 15 C 3 15.800781 3.472656 16.488281 4.152344 16.808594 C 4.4375 18.511719 5.125 20.078125 6.09375 21.421875 C 6.039062 21.605469 6 21.796875 6 22 C 6 23.105469 6.894531 24 8 24 C 8.195312 24 8.382812 23.964844 8.5625 23.910156 C 8.667969 23.984375 8.78125 24.050781 8.886719 24.121094 L 8.121094 25.523438 C 7.933594 25.835938 7.929688 26.230469 8.117188 26.546875 C 8.304688 26.867188 8.648438 27.054688 9.015625 27.039062 C 9.386719 27.027344 9.714844 26.808594 9.875 26.480469 L 15 17.085938 L 18.402344 23.328125 C 17.835938 23.558594 17.238281 23.726562 16.621094 23.839844 C 16.257812 23.332031 15.671875 23 15 23 C 13.894531 23 13 23.894531 13 25 C 13 26.105469 13.894531 27 15 27 C 15.808594 27 16.5 26.519531 16.8125 25.832031 C 17.703125 25.683594 18.558594 25.433594 19.359375 25.085938 L 20.121094 26.480469 C 20.285156 26.808594 20.613281 27.027344 20.984375 27.039062 C 21.351562 27.054688 21.695312 26.867188 21.882812 26.546875 C 22.070312 26.230469 22.066406 25.835938 21.875 25.523438 L 16.703125 16.039062 C 16.886719 15.734375 17 15.382812 17 15 C 17 13.894531 16.105469 13 15 13 C 13.894531 13 13 13.894531 13 15 C 13 15.382812 13.113281 15.734375 13.296875 16.039062 L 9.988281 22.101562 C 9.992188 22.066406 10 22.035156 10 22 C 10 20.894531 9.105469 20 8 20 C 7.851562 20 7.710938 20.019531 7.570312 20.050781 C 6.878906 19.035156 6.394531 17.875 6.164062 16.621094 C 6.667969 16.257812 7 15.667969 7 15 C 7 14.324219 6.664062 13.734375 6.152344 13.371094 C 6.382812 12.117188 6.859375 10.957031 7.546875 9.945312 C 7.691406 9.976562 7.84375 10 8 10 C 9.105469 10 10 9.105469 10 8 C 10 7.84375 9.976562 7.691406 9.941406 7.546875 C 10.957031 6.859375 12.117188 6.382812 13.371094 6.15625 C 13.734375 6.664062 14.324219 7 15 7 C 15.675781 7 16.265625 6.664062 16.628906 6.15625 C 17.882812 6.382812 19.042969 6.859375 20.054688 7.546875 C 20.023438 7.691406 20 7.84375 20 8 C 20 9.105469 20.894531 10 22 10 C 22.15625 10 22.308594 9.976562 22.453125 9.945312 C 23.140625 10.957031 23.617188 12.117188 23.84375 13.371094 C 23.335938 13.734375 23 14.324219 23 15 C 23 15.675781 23.335938 16.269531 23.847656 16.632812 C 23.617188 17.882812 23.128906 19.039062 22.4375 20.054688 C 22.296875 20.019531 22.152344 20 22 20 C 21.699219 20 21.417969 20.070312 21.160156 20.191406 L 23.066406 23.6875 C 23.625 23.332031 24 22.710938 24 22 C 24 21.804688 23.960938 21.617188 23.910156 21.441406 C 24.886719 20.09375 25.570312 18.515625 25.851562 16.804688 C 26.527344 16.484375 27 15.800781 27 15 C 27 14.195312 26.523438 13.503906 25.835938 13.1875 C 25.554688 11.484375 24.878906 9.917969 23.90625 8.574219 C 23.960938 8.390625 24 8.199219 24 8 C 24 6.894531 23.105469 6 22 6 C 21.800781 6 21.609375 6.039062 21.425781 6.09375 C 20.082031 5.121094 18.515625 4.445312 16.8125 4.164062 C 16.496094 3.476562 15.804688 3 15 3 Z M 15 3 "/>
</g>
</svg>
