<?xml version="1.0" encoding="UTF-8"?>
<svg xmlns="http://www.w3.org/2000/svg" xmlns:xlink="http://www.w3.org/1999/xlink" viewBox="0 0 30 30" width="30px" height="30px">
<g id="surface34825261">
<path style=" stroke:none;fill-rule:nonzero;fill:rgb(100%,100%,100%);fill-opacity:1;" d="M 26.980469 2.992188 C 26.789062 3 26.601562 3.058594 26.445312 3.167969 L 20.445312 7.167969 C 20.140625 7.363281 19.96875 7.707031 19.988281 8.066406 C 20.011719 8.429688 20.222656 8.75 20.546875 8.90625 C 20.871094 9.066406 21.257812 9.035156 21.554688 8.832031 L 27.554688 4.832031 C 27.933594 4.589844 28.101562 4.121094 27.96875 3.695312 C 27.832031 3.265625 27.429688 2.976562 26.980469 2.992188 Z M 25 8.929688 C 24.738281 8.929688 24.480469 9.035156 24.292969 9.222656 C 24.105469 9.410156 24 9.664062 24 9.929688 L 24 21.765625 L 22.105469 25.554688 C 21.945312 25.871094 21.96875 26.253906 22.164062 26.550781 C 22.363281 26.847656 22.703125 27.019531 23.058594 27 C 23.417969 26.976562 23.734375 26.765625 23.894531 26.449219 L 25 24.238281 L 26.105469 26.449219 C 26.265625 26.765625 26.582031 26.976562 26.941406 27 C 27.296875 27.019531 27.636719 26.847656 27.835938 26.550781 C 28.03125 26.253906 28.054688 25.871094 27.894531 25.554688 L 26 21.765625 L 26 12.40625 L 26.28125 12.695312 C 26.527344 12.957031 26.898438 13.066406 27.246094 12.980469 C 27.597656 12.894531 27.875 12.625 27.972656 12.28125 C 28.070312 11.933594 27.972656 11.558594 27.71875 11.304688 L 25.71875 9.234375 C 25.53125 9.039062 25.273438 8.929688 25 8.929688 Z M 4 9 C 3.449219 9 3 9.449219 3 10 L 3 21 C 3 21.550781 3.449219 22 4 22 L 7.757812 22 C 7.277344 20.933594 7 19.75 7 18.5 C 7 14.675781 9.527344 11.441406 13 10.375 L 13 10 C 13 9.449219 12.550781 9 12 9 Z M 15.5 12 C 11.910156 12 9 14.910156 9 18.5 C 9.003906 20.464844 9.894531 22.324219 11.425781 23.558594 L 10.167969 25.445312 C 9.964844 25.742188 9.933594 26.128906 10.09375 26.453125 C 10.25 26.777344 10.570312 26.988281 10.933594 27.011719 C 11.292969 27.03125 11.636719 26.859375 11.832031 26.554688 L 13.164062 24.558594 C 13.910156 24.847656 14.699219 24.996094 15.5 25 C 16.300781 24.996094 17.089844 24.847656 17.835938 24.558594 L 19.167969 26.554688 C 19.363281 26.859375 19.707031 27.03125 20.066406 27.011719 C 20.429688 26.988281 20.75 26.777344 20.90625 26.453125 C 21.066406 26.128906 21.035156 25.742188 20.832031 25.445312 L 19.574219 23.558594 C 21.105469 22.324219 21.996094 20.464844 22 18.5 C 22 14.910156 19.089844 12 15.5 12 Z M 4 24 L 4 24.585938 L 3.292969 25.292969 C 3.105469 25.480469 3 25.734375 3 26 C 3 26.550781 3.449219 27 4 27 C 4.265625 27 4.519531 26.894531 4.707031 26.707031 C 4.710938 26.703125 4.714844 26.699219 4.714844 26.695312 L 5.707031 25.707031 C 5.894531 25.519531 6 25.265625 6 25 L 6 24 Z M 4 24 "/>
</g>
</svg>
