<?xml version="1.0" encoding="UTF-8"?>
<svg xmlns="http://www.w3.org/2000/svg" xmlns:xlink="http://www.w3.org/1999/xlink" viewBox="0 0 30 30" width="30px" height="30px">
<g id="surface32414107">
<path style=" stroke:none;fill-rule:nonzero;fill:rgb(100%,100%,100%);fill-opacity:1;" d="M 15 1 C 14.746094 1 14.488281 1.097656 14.292969 1.292969 L 7.585938 8 L 10.414062 8 L 15 3.414062 L 19.585938 8 L 22.414062 8 L 15.707031 1.292969 C 15.511719 1.097656 15.253906 1 15 1 Z M 3 10 C 2.449219 10 2 10.449219 2 11 L 2 13 C 2 13.550781 2.449219 14 3 14 L 3.164062 14 L 4.71875 23.328125 C 4.882812 24.292969 5.714844 25 6.691406 25 L 23.304688 25 C 24.28125 25 25.117188 24.292969 25.277344 23.328125 L 26.832031 14 L 27 14 C 27.550781 14 28 13.550781 28 13 L 28 11 C 28 10.449219 27.550781 10 27 10 Z M 11 14 C 11.554688 14 12 14.445312 12 15 L 12 21 C 12 21.554688 11.554688 22 11 22 C 10.445312 22 10 21.554688 10 21 L 10 15 C 10 14.445312 10.445312 14 11 14 Z M 15 14 C 15.554688 14 16 14.445312 16 15 L 16 21 C 16 21.554688 15.554688 22 15 22 C 14.445312 22 14 21.554688 14 21 L 14 15 C 14 14.445312 14.445312 14 15 14 Z M 19 14 C 19.554688 14 20 14.445312 20 15 L 20 21 C 20 21.554688 19.554688 22 19 22 C 18.445312 22 18 21.554688 18 21 L 18 15 C 18 14.445312 18.445312 14 19 14 Z M 19 14 "/>
</g>
</svg>
