<?xml version="1.0" encoding="UTF-8"?>
<svg xmlns="http://www.w3.org/2000/svg" xmlns:xlink="http://www.w3.org/1999/xlink" viewBox="0 0 30 30" width="30px" height="30px">
<g id="surface32420588">
<path style=" stroke:none;fill-rule:nonzero;fill:rgb(100%,100%,100%);fill-opacity:1;" d="M 11.1875 3.285156 C 14.6875 6.785156 16.769531 9.519531 15.769531 10.519531 L 18.679688 13.429688 C 19.074219 13.824219 19.707031 13.824219 20.09375 13.429688 L 20.585938 12.941406 L 21.820312 14.175781 L 21.332031 14.664062 C 20.9375 15.058594 20.9375 15.691406 21.332031 16.078125 L 22.101562 16.851562 C 22.601562 17.351562 23.410156 17.351562 23.910156 16.851562 L 26.621094 14.136719 C 27.121094 13.640625 27.125 12.828125 26.621094 12.328125 L 25.851562 11.558594 C 25.460938 11.167969 24.832031 11.167969 24.4375 11.554688 L 23.910156 12.082031 L 22.675781 10.847656 L 23.203125 10.324219 C 23.59375 9.929688 23.59375 9.296875 23.203125 8.910156 L 20.292969 5.996094 C 17.550781 3.253906 13.296875 3.285156 11.1875 3.285156 Z M 14.113281 12.4375 L 4.355469 22.214844 C 3.878906 22.6875 3.878906 23.453125 4.355469 23.929688 L 6.070312 25.644531 C 6.546875 26.121094 7.3125 26.121094 7.785156 25.644531 L 17.546875 15.867188 Z M 14.113281 12.4375 "/>
</g>
</svg>
