<?xml version="1.0" encoding="UTF-8"?>
<svg xmlns="http://www.w3.org/2000/svg" xmlns:xlink="http://www.w3.org/1999/xlink" viewBox="0 0 30 30" width="30px" height="30px">
<g id="surface31609856">
<path style=" stroke:none;fill-rule:nonzero;fill:rgb(100%,100%,100%);fill-opacity:1;" d="M 15 3 C 9 3 9 5 9 6 C 9 10 10 14 10 14 L 20 14 C 20 14 21 10 21 6 C 21 5 21 3 15 3 Z M 5 12 C 4.640625 11.996094 4.304688 12.183594 4.121094 12.496094 C 3.941406 12.808594 3.941406 13.191406 4.121094 13.503906 C 4.304688 13.816406 4.640625 14.003906 5 14 L 6 14 L 6 16.410156 C 6 17.832031 7.015625 19.0625 8.40625 19.347656 C 9.765625 19.628906 11.820312 19.960938 14 20.046875 L 14 22.140625 L 8.347656 23.011719 C 7.898438 23.074219 7.546875 23.429688 7.492188 23.882812 C 7.4375 24.332031 7.691406 24.761719 8.113281 24.929688 C 7.925781 25.394531 7.976562 25.921875 8.253906 26.335938 C 8.535156 26.75 9 27 9.5 27 C 10.054688 27 10.5625 26.695312 10.824219 26.207031 C 11.082031 25.71875 11.054688 25.125 10.746094 24.667969 L 14.011719 24.164062 C 14.085938 24.652344 14.507812 25.011719 15 25.011719 C 15.492188 25.011719 15.914062 24.652344 15.988281 24.164062 L 19.253906 24.667969 C 18.945312 25.125 18.917969 25.71875 19.175781 26.207031 C 19.4375 26.695312 19.945312 27 20.5 27 C 21 27 21.464844 26.75 21.746094 26.335938 C 22.023438 25.921875 22.074219 25.394531 21.886719 24.929688 C 22.308594 24.761719 22.5625 24.332031 22.507812 23.882812 C 22.453125 23.429688 22.101562 23.074219 21.652344 23.011719 L 16 22.140625 L 16 20.046875 C 18.175781 19.957031 20.230469 19.628906 21.59375 19.347656 C 22.984375 19.066406 24 17.832031 24 16.40625 L 24 14 L 25 14 C 25.359375 14.003906 25.695312 13.816406 25.878906 13.503906 C 26.058594 13.191406 26.058594 12.808594 25.878906 12.496094 C 25.695312 12.183594 25.359375 11.996094 25 12 L 24 12 C 22.90625 12 22 12.90625 22 14 L 22 16.410156 C 22 16.890625 21.671875 17.292969 21.191406 17.390625 C 21.109375 17.40625 21 17.425781 20.914062 17.441406 C 20.667969 16.613281 19.910156 16 19 16 L 11 16 C 10.089844 16 9.332031 16.613281 9.089844 17.441406 C 9 17.425781 8.890625 17.40625 8.808594 17.390625 C 8.328125 17.292969 8 16.894531 8 16.410156 L 8 14 C 8 12.90625 7.09375 12 6 12 Z M 5 12 "/>
</g>
</svg>
