<?xml version="1.0" encoding="UTF-8"?>
<svg xmlns="http://www.w3.org/2000/svg" xmlns:xlink="http://www.w3.org/1999/xlink" viewBox="0 0 30 30" width="30px" height="30px">
<g id="surface32523250">
<path style=" stroke:none;fill-rule:nonzero;fill:rgb(100%,100%,100%);fill-opacity:1;" d="M 24 4 L 6 4 C 4.894531 4 4 4.894531 4 6 L 4 24 C 4 25.105469 4.894531 26 6 26 L 24 26 C 25.105469 26 26 25.105469 26 24 L 26 6 C 26 4.894531 25.105469 4 24 4 Z M 21 18.453125 C 21 19.585938 20.085938 20.988281 18 20.988281 C 16.140625 20.988281 15.667969 19.792969 15.667969 18.988281 C 15.667969 17.996094 16.265625 16.984375 18.003906 16.984375 C 19.574219 16.984375 19.667969 16.585938 19.667969 15.792969 L 19.667969 11.765625 L 12.335938 12.960938 C 12.335938 12.960938 12.335938 18.925781 12.335938 19.589844 C 12.335938 20.722656 11.421875 22 9.335938 22 C 7.476562 22 7.003906 20.808594 7.003906 20.003906 C 7.003906 19.011719 7.601562 17.996094 9.339844 17.996094 C 10.910156 17.996094 11.003906 17.597656 11.003906 16.804688 C 11.003906 14.59375 11.003906 10 11.003906 10 C 11.003906 9.671875 11.246094 9.410156 11.5625 9.355469 L 20.25 8.007812 C 20.25 8.007812 20.308594 8 20.335938 8 C 20.703125 8 21 8.296875 21 8.664062 C 21 8.664062 21 17.785156 21 18.453125 Z M 21 18.453125 "/>
</g>
</svg>
