<?xml version="1.0" encoding="UTF-8"?>
<svg xmlns="http://www.w3.org/2000/svg" xmlns:xlink="http://www.w3.org/1999/xlink" viewBox="0 0 30 30" width="30px" height="30px">
<g id="surface32371067">
<path style=" stroke:none;fill-rule:nonzero;fill:rgb(100%,100%,100%);fill-opacity:1;" d="M 15 3 C 8.382812 3 3 8.382812 3 15 C 3 21.617188 8.382812 27 15 27 C 21.617188 27 27 21.617188 27 15 C 27 8.382812 21.617188 3 15 3 Z M 15 5 C 16.132812 5 17.339844 6.539062 18.128906 9 L 11.871094 9 C 12.660156 6.539062 13.867188 5 15 5 Z M 11.0625 5.808594 C 10.539062 6.703125 10.097656 7.777344 9.757812 9 L 7.019531 9 C 8.0625 7.617188 9.449219 6.503906 11.0625 5.808594 Z M 18.941406 5.808594 C 20.550781 6.503906 21.9375 7.613281 22.980469 9 L 20.242188 9 C 19.902344 7.777344 19.464844 6.703125 18.941406 5.808594 Z M 5.84375 11 L 24.15625 11 C 24.695312 12.226562 25 13.578125 25 15 C 25 16.421875 24.695312 17.773438 24.15625 19 L 5.84375 19 C 5.304688 17.773438 5 16.421875 5 15 C 5 13.578125 5.304688 12.226562 5.84375 11 Z M 8.019531 12.601562 C 7.714844 12.613281 7.4375 12.695312 7.179688 12.847656 C 6.757812 13.097656 6.542969 13.492188 6.539062 14.019531 C 6.53125 14.542969 6.820312 14.839844 7.167969 15.144531 C 7.242188 15.210938 7.320312 15.273438 7.402344 15.339844 C 7.574219 15.476562 7.734375 15.605469 7.863281 15.773438 C 8.054688 16.015625 8.109375 16.316406 8.015625 16.574219 C 7.929688 16.800781 7.738281 16.964844 7.488281 17.019531 C 7.234375 17.074219 6.949219 17.046875 6.761719 16.953125 C 6.613281 16.878906 6.488281 16.722656 6.371094 16.578125 C 6.320312 16.515625 6.277344 16.457031 6.230469 16.402344 L 6.140625 16.308594 L 6.101562 16.433594 C 6.011719 16.726562 5.957031 16.925781 6.042969 17.066406 C 6.121094 17.199219 6.292969 17.257812 6.609375 17.324219 C 6.839844 17.375 7.082031 17.402344 7.3125 17.402344 C 7.433594 17.402344 7.546875 17.394531 7.660156 17.382812 C 8.277344 17.316406 8.757812 16.871094 8.886719 16.25 C 9.007812 15.664062 8.808594 15.183594 8.269531 14.78125 C 8.203125 14.730469 8.132812 14.679688 8.0625 14.628906 C 7.894531 14.507812 7.722656 14.382812 7.570312 14.238281 C 7.40625 14.085938 7.3125 13.878906 7.316406 13.664062 C 7.316406 13.460938 7.402344 13.269531 7.554688 13.128906 C 7.710938 12.984375 7.917969 12.925781 8.140625 12.953125 C 8.4375 12.996094 8.714844 13.191406 8.886719 13.476562 L 8.949219 13.585938 L 9.03125 13.445312 C 9.101562 13.332031 9.214844 13.140625 9.148438 12.96875 C 9.113281 12.871094 9.027344 12.800781 8.890625 12.75 C 8.566406 12.640625 8.28125 12.589844 8.023438 12.601562 Z M 20.472656 12.707031 C 20.078125 12.710938 19.695312 12.714844 19.324219 12.71875 C 18.96875 12.726562 18.621094 12.726562 18.269531 12.726562 C 18.140625 12.726562 18.035156 12.867188 18.011719 12.964844 C 17.644531 14.375 17.289062 15.785156 16.917969 17.234375 L 16.894531 17.324219 L 17.214844 17.324219 C 17.367188 17.324219 17.527344 17.324219 17.6875 17.308594 C 17.800781 17.292969 17.910156 17.171875 17.9375 17.070312 C 17.996094 16.839844 18.070312 16.523438 18.140625 16.210938 C 18.207031 15.917969 18.273438 15.628906 18.324219 15.414062 C 18.363281 15.261719 18.457031 15.152344 18.605469 15.082031 C 18.953125 14.917969 19.5 15.011719 19.617188 15.0625 L 19.703125 15.101562 L 19.773438 14.796875 C 19.796875 14.691406 19.820312 14.589844 19.839844 14.507812 L 19.863281 14.414062 L 19.765625 14.417969 C 19.621094 14.425781 19.484375 14.433594 19.347656 14.441406 C 19.164062 14.453125 18.988281 14.464844 18.808594 14.472656 C 18.761719 14.472656 18.648438 14.476562 18.621094 14.445312 C 18.613281 14.433594 18.601562 14.398438 18.628906 14.292969 C 18.675781 14.136719 18.703125 14.019531 18.726562 13.914062 C 18.773438 13.738281 18.804688 13.601562 18.894531 13.351562 C 18.945312 13.226562 19.125 13.078125 19.261719 13.054688 C 19.683594 12.972656 20.011719 13.101562 20.261719 13.441406 L 20.359375 13.570312 L 20.394531 13.414062 C 20.421875 13.304688 20.445312 13.207031 20.46875 13.109375 C 20.496094 13.007812 20.519531 12.910156 20.546875 12.796875 L 20.566406 12.707031 Z M 24 12.707031 L 23.660156 12.710938 C 23.121094 12.710938 21.863281 12.710938 21.230469 12.710938 C 20.789062 12.710938 20.75 12.785156 20.703125 13.246094 L 20.6875 13.394531 L 20.816406 13.316406 C 21.0625 13.167969 21.492188 13.175781 21.75 13.277344 C 21.566406 13.953125 21.398438 14.582031 21.230469 15.203125 C 21.054688 15.859375 20.878906 16.511719 20.6875 17.214844 L 20.664062 17.308594 L 21.679688 17.308594 L 21.691406 17.246094 C 21.703125 17.171875 21.710938 17.101562 21.71875 17.03125 C 21.730469 16.9375 21.734375 16.847656 21.757812 16.761719 C 21.960938 15.976562 22.195312 15.082031 22.414062 14.234375 L 22.65625 13.296875 C 22.933594 13.113281 23.632812 13.210938 23.742188 13.292969 L 23.832031 13.359375 Z M 14.640625 12.710938 C 14.40625 12.710938 14.320312 12.898438 14.226562 13.140625 C 14.1875 13.25 13.5 14.726562 13.136719 15.480469 C 13.097656 15.5625 13.0625 15.625 13.035156 15.664062 C 12.964844 14.847656 12.894531 14.003906 12.808594 13.175781 L 12.800781 13.128906 C 12.792969 12.984375 12.773438 12.75 12.582031 12.75 C 12.402344 12.75 12.292969 12.953125 12.246094 13.042969 C 12.011719 13.496094 11.785156 13.949219 11.558594 14.40625 C 11.382812 14.75 11.210938 15.097656 11.035156 15.441406 C 10.996094 15.519531 10.921875 15.628906 10.871094 15.6875 L 10.648438 12.746094 L 9.671875 12.746094 L 9.683594 12.828125 C 9.699219 12.953125 9.714844 13.074219 9.730469 13.191406 C 9.757812 13.382812 9.78125 13.570312 9.800781 13.753906 L 9.878906 14.566406 C 9.949219 15.335938 10.023438 16.109375 10.105469 16.882812 C 10.121094 17.046875 10.175781 17.328125 10.347656 17.328125 C 10.558594 17.328125 10.660156 17.136719 10.730469 17 C 10.96875 16.546875 11.199219 16.082031 11.421875 15.632812 C 11.566406 15.339844 11.710938 15.050781 11.859375 14.761719 L 11.871094 14.734375 C 11.941406 14.59375 11.984375 14.523438 12.011719 14.492188 C 12.015625 14.503906 12.015625 14.527344 12.019531 14.554688 C 12.039062 14.78125 12.058594 15.011719 12.082031 15.242188 C 12.128906 15.792969 12.183594 16.367188 12.222656 16.933594 C 12.234375 17.113281 12.285156 17.238281 12.382812 17.296875 C 12.421875 17.320312 12.46875 17.335938 12.523438 17.335938 C 12.570312 17.335938 12.621094 17.324219 12.675781 17.304688 C 12.796875 17.257812 12.867188 17.117188 12.933594 16.976562 L 13.398438 16.015625 C 13.816406 15.148438 14.234375 14.28125 14.648438 13.414062 L 14.730469 13.246094 C 14.789062 13.117188 14.851562 12.988281 14.921875 12.851562 L 14.960938 12.773438 L 14.875 12.75 C 14.796875 12.730469 14.722656 12.710938 14.652344 12.710938 Z M 15.785156 12.726562 L 15.773438 12.78125 C 15.554688 13.59375 15.347656 14.394531 15.136719 15.191406 C 14.957031 15.875 14.777344 16.554688 14.597656 17.234375 L 14.574219 17.324219 L 14.667969 17.324219 C 14.742188 17.324219 14.816406 17.328125 14.890625 17.328125 C 14.96875 17.332031 15.054688 17.335938 15.132812 17.335938 C 15.214844 17.335938 15.300781 17.332031 15.382812 17.324219 C 15.488281 17.3125 15.621094 17.199219 15.648438 17.089844 C 15.738281 16.738281 15.820312 16.386719 15.902344 16.03125 C 15.980469 15.710938 16.054688 15.390625 16.136719 15.070312 C 16.308594 14.398438 16.5 13.664062 16.722656 12.816406 L 16.746094 12.726562 Z M 7.019531 21 L 9.757812 21 C 10.097656 22.222656 10.535156 23.296875 11.058594 24.191406 C 9.449219 23.496094 8.0625 22.382812 7.019531 21 Z M 11.871094 21 L 18.128906 21 C 17.339844 23.460938 16.132812 25 15 25 C 13.867188 25 12.660156 23.460938 11.871094 21 Z M 20.242188 21 L 22.980469 21 C 21.9375 22.386719 20.550781 23.496094 18.9375 24.191406 C 19.460938 23.296875 19.902344 22.222656 20.242188 21 Z M 20.242188 21 "/>
</g>
</svg>
