<?xml version="1.0" encoding="UTF-8"?>
<svg xmlns="http://www.w3.org/2000/svg" xmlns:xlink="http://www.w3.org/1999/xlink" viewBox="0 0 30 30" width="30px" height="30px">
<g id="surface32384305">
<path style=" stroke:none;fill-rule:nonzero;fill:rgb(100%,100%,100%);fill-opacity:1;" d="M 8 3 C 6.34375 3 5 4.34375 5 6 L 5 24 C 5 25.644531 6.355469 27 8 27 L 24 27 C 24.359375 27.003906 24.695312 26.816406 24.878906 26.503906 C 25.058594 26.191406 25.058594 25.808594 24.878906 25.496094 C 24.695312 25.183594 24.359375 24.996094 24 25 L 8 25 C 7.433594 25 7 24.566406 7 24 C 7 23.433594 7.433594 23 8 23 L 23 23 C 24.105469 23 25 22.105469 25 21 L 25 5 C 25 3.894531 24.105469 3 23 3 Z M 11.5 6.042969 C 11.863281 6.042969 12.222656 6.214844 12.394531 6.550781 L 14.894531 11.550781 C 15.140625 12.046875 14.941406 12.648438 14.445312 12.894531 C 14.304688 12.964844 14.152344 13 14 13 C 13.636719 13 13.28125 12.796875 13.105469 12.445312 L 12.382812 11 L 10.617188 11 L 9.894531 12.445312 C 9.648438 12.941406 9.046875 13.140625 8.550781 12.894531 C 8.058594 12.648438 7.859375 12.046875 8.105469 11.550781 L 10.605469 6.550781 C 10.777344 6.214844 11.136719 6.042969 11.5 6.042969 Z M 17 14 L 21 14 C 21.402344 14 21.769531 14.246094 21.921875 14.617188 C 22.078125 14.992188 21.992188 15.421875 21.707031 15.707031 L 19.414062 18 L 21 18 C 21.554688 18 22 18.449219 22 19 C 22 19.550781 21.554688 20 21 20 L 17 20 C 16.597656 20 16.230469 19.753906 16.074219 19.382812 C 15.921875 19.007812 16.007812 18.578125 16.292969 18.292969 L 18.585938 16 L 17 16 C 16.445312 16 16 15.550781 16 15 C 16 14.449219 16.445312 14 17 14 Z M 17 14 "/>
</g>
</svg>
