<?xml version="1.0" encoding="UTF-8"?>
<svg xmlns="http://www.w3.org/2000/svg" xmlns:xlink="http://www.w3.org/1999/xlink" viewBox="0 0 30 30" width="30px" height="30px">
<g id="surface32265324">
<path style=" stroke:none;fill-rule:nonzero;fill:rgb(100%,100%,100%);fill-opacity:1;" d="M 15 2 C 8.371094 2 3 7.371094 3 14 L 3 24 C 3 25.105469 3.894531 26 5 26 L 8.480469 26 L 9.410156 23.667969 C 7.992188 23.054688 7 21.644531 7 20 L 7 14.648438 C 7 14.21875 7.070312 13.792969 7.207031 13.386719 L 8.546875 9.367188 C 8.816406 8.550781 9.582031 8 10.441406 8 L 12.277344 8 C 12.625 7.40625 13.261719 7 14 7 L 16 7 C 16.738281 7 17.375 7.40625 17.722656 8 L 19.558594 8 C 20.417969 8 21.183594 8.550781 21.453125 9.367188 L 22.792969 13.386719 C 22.929688 13.792969 23 14.21875 23 14.648438 L 23 20 C 23 21.644531 22.007812 23.054688 20.589844 23.667969 L 21.519531 26 L 25 26 C 26.105469 26 27 25.105469 27 24 L 27 14 C 27 7.371094 21.628906 2 15 2 Z M 10.441406 10 L 9.105469 14 L 20.890625 14 L 19.558594 10 Z M 10.5 19 C 9.671875 19 9 19.671875 9 20.5 C 9 21.328125 9.671875 22 10.5 22 C 11.328125 22 12 21.328125 12 20.5 C 12 19.671875 11.328125 19 10.5 19 Z M 19.5 19 C 18.671875 19 18 19.671875 18 20.5 C 18 21.328125 18.671875 22 19.5 22 C 20.328125 22 21 21.328125 21 20.5 C 21 19.671875 20.328125 19 19.5 19 Z M 11.601562 24 L 10.800781 26 L 19.195312 26 L 18.398438 24 Z M 11.601562 24 "/>
</g>
</svg>
