<?xml version="1.0" encoding="UTF-8"?>
<svg xmlns="http://www.w3.org/2000/svg" xmlns:xlink="http://www.w3.org/1999/xlink" viewBox="0 0 30 30" width="30px" height="30px">
<g id="surface31528675">
<path style=" stroke:none;fill-rule:nonzero;fill:rgb(100%,100%,100%);fill-opacity:1;" d="M 15 1 C 14.113281 1 13.328125 1.390625 12.78125 2 L 10 2 C 9.296875 2 8.808594 2.714844 9.070312 3.371094 L 10 6 L 20 6 L 20.925781 3.371094 C 21.191406 2.714844 20.703125 2 19.996094 2 L 17.21875 2 C 16.671875 1.390625 15.886719 1 15 1 Z M 10 8 C 10 8 3 14 3 21 C 3 25 6 27 8 27 L 22 27 C 24 27 27 25 27 21 C 27 14 20 8 20 8 Z M 14 11.5 L 16 11.5 L 16 13.113281 C 17.351562 13.417969 18.253906 14.335938 18.296875 15.578125 L 16.613281 15.578125 C 16.527344 14.902344 15.898438 14.453125 15.035156 14.453125 C 14.136719 14.453125 13.546875 14.867188 13.546875 15.519531 C 13.546875 16.050781 13.953125 16.351562 14.957031 16.566406 L 15.988281 16.785156 C 17.710938 17.148438 18.449219 17.890625 18.449219 19.21875 C 18.449219 20.648438 17.53125 21.609375 16 21.898438 L 16 23.5 L 14 23.5 L 14 21.902344 C 12.527344 21.625 11.605469 20.722656 11.550781 19.402344 L 13.28125 19.402344 C 13.363281 20.097656 14.066406 20.542969 15.074219 20.542969 C 16.003906 20.542969 16.664062 20.089844 16.664062 19.445312 C 16.664062 18.898438 16.238281 18.582031 15.1875 18.359375 L 14.074219 18.121094 C 12.511719 17.792969 11.746094 16.980469 11.746094 15.675781 C 11.746094 14.363281 12.613281 13.425781 14 13.121094 Z M 14 11.5 "/>
</g>
</svg>
