<?xml version="1.0" encoding="UTF-8"?>
<svg xmlns="http://www.w3.org/2000/svg" xmlns:xlink="http://www.w3.org/1999/xlink" viewBox="0 0 30 30" width="30px" height="30px">
<g id="surface31610949">
<path style=" stroke:none;fill-rule:nonzero;fill:rgb(100%,100%,100%);fill-opacity:1;" d="M 5 4 C 3.355469 4 2 5.355469 2 7 L 2 20 C 2 20.769531 2.304688 21.464844 2.789062 22 L 0 22 C 0 23.65625 1.34375 25 3 25 L 15.660156 25 L 15 22 L 15 21 L 5 21 C 4.433594 21 4 20.566406 4 20 L 4 7 C 4 6.433594 4.433594 6 5 6 L 25 6 C 25.566406 6 26 6.433594 26 7 L 26 11.480469 C 26 11.480469 26.976562 11 28 11 L 28 7 C 28 5.355469 26.644531 4 25 4 Z M 21 8 C 21 8 20.074219 10.671875 20.011719 13.699219 C 20.011719 13.695312 20.007812 13.691406 20.007812 13.691406 C 18.628906 12.019531 16 12 16 12 C 16 12 17.476562 13.691406 18.121094 15.5 C 18.761719 17.300781 19 19 19 19 L 24.988281 19 C 24.988281 19 25.121094 17.835938 25.742188 16.164062 C 26.371094 14.46875 27.988281 13 27.988281 13 C 27.988281 13 25.453125 13.082031 23.929688 15 C 23.972656 14.652344 24 14.3125 24 14 C 24 11.09375 21 8 21 8 Z M 18 21 C 17.640625 20.996094 17.304688 21.183594 17.121094 21.496094 C 16.941406 21.808594 16.941406 22.191406 17.121094 22.503906 C 17.304688 22.816406 17.640625 23.003906 18 23 L 18.199219 23 L 18.839844 26.195312 C 18.933594 26.664062 19.34375 27 19.820312 27 L 24.179688 27 C 24.65625 27 25.066406 26.664062 25.160156 26.195312 L 25.800781 23 L 26 23 C 26.359375 23.003906 26.695312 22.816406 26.878906 22.503906 C 27.058594 22.191406 27.058594 21.808594 26.878906 21.496094 C 26.695312 21.183594 26.359375 20.996094 26 21 Z M 18 21 "/>
</g>
</svg>
