<?xml version="1.0" encoding="UTF-8"?>
<svg xmlns="http://www.w3.org/2000/svg" xmlns:xlink="http://www.w3.org/1999/xlink" viewBox="0 0 30 30" width="30px" height="30px">
<g id="surface32139413">
<path style=" stroke:none;fill-rule:nonzero;fill:rgb(100%,100%,100%);fill-opacity:1;" d="M 21 1 L 9 1 C 7.894531 1 7 1.894531 7 3 L 7 27 C 7 28.105469 7.894531 29 9 29 L 21 29 C 22.105469 29 23 28.105469 23 27 L 23 3 C 23 1.894531 22.105469 1 21 1 Z M 15 27 C 14.449219 27 14 26.550781 14 26 C 14 25.449219 14.449219 25 15 25 C 15.550781 25 16 25.449219 16 26 C 16 26.550781 15.550781 27 15 27 Z M 21 24 L 9 24 L 9 4 L 21 4 Z M 21 24 "/>
</g>
</svg>
