<?xml version="1.0" encoding="UTF-8"?>
<svg xmlns="http://www.w3.org/2000/svg" xmlns:xlink="http://www.w3.org/1999/xlink" viewBox="0 0 30 30" width="30px" height="30px">
<g id="surface32667927">
<path style=" stroke:none;fill-rule:nonzero;fill:rgb(100%,100%,100%);fill-opacity:1;" d="M 14 4 C 13.6875 4 13.390625 4.148438 13.203125 4.398438 C 13.011719 4.648438 12.949219 4.972656 13.035156 5.273438 L 15.035156 12.277344 C 15.160156 12.703125 15.554688 13 16 13 L 24 13 C 24.554688 13 25 12.550781 25 12 L 25 10 C 25 6.691406 22.308594 4 19 4 Z M 4 9 C 3.640625 8.996094 3.304688 9.183594 3.121094 9.496094 C 2.941406 9.808594 2.941406 10.191406 3.121094 10.503906 C 3.304688 10.816406 3.640625 11.003906 4 11 L 5 11 C 4.5625 11 4.859375 10.972656 5.089844 11.164062 C 5.320312 11.355469 5.625 11.671875 5.910156 12.082031 C 6.488281 12.90625 7 14.089844 7 15.5 L 7 16 C 7 16.039062 7 16.082031 7.003906 16.121094 C 7.03125 17.589844 7.515625 18.945312 8.3125 20.058594 C 7.511719 20.792969 7 21.835938 7 23 C 7 25.199219 8.800781 27 11 27 C 13.199219 27 15 25.199219 15 23 L 18 23 C 18.0625 23 18.125 22.992188 18.1875 22.988281 C 18.074219 23.308594 18 23.644531 18 24 C 18 25.644531 19.355469 27 21 27 C 22.644531 27 24 25.644531 24 24 C 24 22.882812 23.367188 21.914062 22.453125 21.394531 C 24.007812 20.113281 25 18.167969 25 16 C 25 15.449219 24.554688 15 24 15 L 8.976562 15 C 8.871094 13.332031 8.25 11.941406 7.550781 10.9375 C 7.164062 10.386719 6.757812 9.949219 6.367188 9.625 C 5.976562 9.300781 5.746094 9 5 9 Z M 11 21 C 12.117188 21 13 21.882812 13 23 C 13 24.117188 12.117188 25 11 25 C 9.882812 25 9 24.117188 9 23 C 9 21.882812 9.882812 21 11 21 Z M 21 23 C 21.5625 23 22 23.4375 22 24 C 22 24.5625 21.5625 25 21 25 C 20.4375 25 20 24.5625 20 24 C 20 23.4375 20.4375 23 21 23 Z M 21 23 "/>
</g>
</svg>
