<?xml version="1.0" encoding="UTF-8"?>
<svg xmlns="http://www.w3.org/2000/svg" xmlns:xlink="http://www.w3.org/1999/xlink" viewBox="0 0 30 30" width="30px" height="30px">
<g id="surface32103176">
<path style=" stroke:none;fill-rule:nonzero;fill:rgb(100%,100%,100%);fill-opacity:1;" d="M 7 2 C 6.285156 2 5.625 2.382812 5.269531 3 L 5 3 C 3.90625 3 3 3.90625 3 5 L 3 11 C 3 14.363281 5.09375 17.246094 8.042969 18.425781 C 8.203125 19.539062 8.96875 20.449219 10 20.816406 L 10 21 C 10 24.300781 12.699219 27 16 27 L 19 27 C 22.300781 27 25 24.300781 25 21 L 25 16.828125 C 26.199219 16.402344 27 15.269531 27 14 C 27 12.34375 25.65625 11 24 11 C 22.34375 11 21 12.34375 21 14 C 21 15.269531 21.804688 16.402344 23 16.824219 L 23 21 C 23 23.21875 21.21875 25 19 25 L 16 25 C 13.78125 25 12 23.21875 12 21 L 12 20.816406 C 13.03125 20.449219 13.796875 19.539062 13.957031 18.425781 C 16.90625 17.246094 19 14.363281 19 11 L 19 5 C 19 3.90625 18.09375 3 17 3 L 16.730469 3 C 16.371094 2.382812 15.714844 2 15 2 C 13.894531 2 13 2.894531 13 4 C 13 5.105469 13.894531 6 15 6 C 15.714844 6 16.375 5.617188 16.730469 5 L 17 5 L 17 11 C 17 14.324219 14.324219 17 11 17 C 7.675781 17 5 14.324219 5 11 L 5 5 L 5.273438 5 C 5.628906 5.617188 6.285156 6 7 6 C 8.105469 6 9 5.105469 9 4 C 9 2.894531 8.105469 2 7 2 Z M 7 2 "/>
</g>
</svg>
