<?xml version="1.0" encoding="UTF-8"?>
<svg xmlns="http://www.w3.org/2000/svg" xmlns:xlink="http://www.w3.org/1999/xlink" viewBox="0 0 30 30" width="30px" height="30px">
<g id="surface32266076">
<path style=" stroke:none;fill-rule:nonzero;fill:rgb(100%,100%,100%);fill-opacity:1;" d="M 11.988281 2.996094 C 11.730469 2.996094 11.472656 3.097656 11.277344 3.292969 L 9.03125 5.539062 L 4.09375 4.761719 L 3.421875 5.429688 L 7.058594 7.507812 L 5.324219 9.242188 L 3.515625 8.789062 L 3 9.304688 L 6.691406 13 L 7.207031 12.484375 L 6.753906 10.671875 L 8.488281 8.9375 L 10.566406 12.574219 L 11.234375 11.90625 L 10.457031 6.96875 L 12.703125 4.722656 C 13.101562 4.328125 13.101562 3.691406 12.703125 3.292969 C 12.507812 3.097656 12.25 2.996094 11.988281 2.996094 Z M 15 3 C 14.9375 3 14.878906 3.007812 14.816406 3.011719 C 15.046875 3.65625 15.046875 4.363281 14.816406 5.011719 C 14.878906 5.007812 14.9375 5 15 5 C 17.105469 5 19.058594 5.65625 20.667969 6.773438 L 20 7 L 20 8 L 19 8 L 18 9 L 18 11 L 20 10 L 23 11 L 22 13 L 20 12 L 18 12 L 16 14 L 16 16 L 18 18 L 20 18 L 21 20 L 18.894531 24.210938 C 17.695312 24.71875 16.382812 25 15 25 C 14.632812 25 14.269531 24.976562 13.910156 24.9375 L 11.964844 23.035156 L 12 19 L 9 16 L 6 16 L 5.242188 17.164062 C 5.089844 16.464844 5 15.742188 5 15 C 5 14.722656 5.019531 14.449219 5.042969 14.179688 L 3.285156 12.421875 C 3.101562 13.253906 3 14.113281 3 15 C 3 21.617188 8.382812 27 15 27 C 21.617188 27 27 21.617188 27 15 C 27 8.382812 21.617188 3 15 3 Z M 15 3 "/>
</g>
</svg>
