<?xml version="1.0" encoding="UTF-8"?>
<svg xmlns="http://www.w3.org/2000/svg" xmlns:xlink="http://www.w3.org/1999/xlink" viewBox="0 0 30 30" width="30px" height="30px">
<g id="surface32411898">
<path style=" stroke:none;fill-rule:nonzero;fill:rgb(100%,100%,100%);fill-opacity:1;" d="M 15 5 C 9.476562 5 4.476562 7.238281 0.859375 10.859375 L 4.398438 14.398438 C 7.113281 11.683594 10.863281 10 15 10 C 19.136719 10 22.886719 11.683594 25.601562 14.398438 L 29.144531 10.859375 C 25.523438 7.238281 20.523438 5 15 5 Z M 15 12 C 11.414062 12 8.167969 13.457031 5.8125 15.8125 L 9.34375 19.34375 C 10.792969 17.898438 12.792969 17 15 17 C 17.207031 17 19.207031 17.898438 20.65625 19.34375 L 24.1875 15.8125 C 21.832031 13.457031 18.585938 12 15 12 Z M 15 19 C 13.347656 19 11.847656 19.671875 10.761719 20.761719 L 15 25 L 19.238281 20.761719 C 18.152344 19.671875 16.652344 19 15 19 Z M 15 19 "/>
</g>
</svg>
