<?xml version="1.0" encoding="UTF-8"?>
<svg xmlns="http://www.w3.org/2000/svg" xmlns:xlink="http://www.w3.org/1999/xlink" viewBox="0 0 30 30" width="30px" height="30px">
<g id="surface32742740">
<path style=" stroke:none;fill-rule:nonzero;fill:rgb(100%,100%,100%);fill-opacity:1;" d="M 16.859375 1.953125 C 16.546875 2 16.265625 2.191406 16.117188 2.488281 C 15.917969 2.878906 15.996094 3.351562 16.308594 3.660156 L 21.363281 8.566406 C 21.507812 8.707031 21.691406 8.800781 21.886719 8.835938 L 28.828125 10.058594 C 28.886719 10.070312 28.945312 10.074219 29 10.074219 C 29.371094 10.074219 29.71875 9.867188 29.890625 9.527344 C 30.089844 9.140625 30.011719 8.664062 29.695312 8.355469 L 24.644531 3.445312 C 24.5 3.304688 24.316406 3.214844 24.121094 3.175781 L 17.179688 1.953125 C 17.074219 1.9375 16.964844 1.9375 16.859375 1.953125 Z M 5 4 C 3.894531 4 3 4.894531 3 6 L 3 20 C 3 21.105469 3.894531 22 5 22 L 25 22 C 26.105469 22 27 21.105469 27 20 L 27 12.078125 L 25.820312 14.414062 L 25 15.988281 L 25 18 L 5 18 L 5 6 L 15.851562 6 L 14.917969 5.09375 C 14.59375 4.777344 14.355469 4.402344 14.203125 4 Z M 17.628906 7.113281 L 16.375 9.59375 C 16.375 9.59375 18.015625 10.429688 19.644531 12.644531 C 22.394531 12.667969 24.035156 13.507812 24.035156 13.507812 L 25.292969 11.023438 L 21.324219 10.324219 C 21.015625 10.273438 20.730469 10.125 20.503906 9.90625 Z M 15 19 C 15.550781 19 16 19.449219 16 20 C 16 20.550781 15.550781 21 15 21 C 14.449219 21 14 20.550781 14 20 C 14 19.449219 14.449219 19 15 19 Z M 10 24 C 9.640625 23.996094 9.304688 24.183594 9.121094 24.496094 C 8.941406 24.808594 8.941406 25.191406 9.121094 25.503906 C 9.304688 25.816406 9.640625 26.003906 10 26 L 20 26 C 20.359375 26.003906 20.695312 25.816406 20.878906 25.503906 C 21.058594 25.191406 21.058594 24.808594 20.878906 24.496094 C 20.695312 24.183594 20.359375 23.996094 20 24 Z M 10 24 "/>
</g>
</svg>
