<?xml version="1.0" encoding="UTF-8"?>
<svg xmlns="http://www.w3.org/2000/svg" xmlns:xlink="http://www.w3.org/1999/xlink" viewBox="0 0 30 30" width="30px" height="30px">
<g id="surface34010453">
<path style=" stroke:none;fill-rule:nonzero;fill:rgb(100%,100%,100%);fill-opacity:1;" d="M 25 2 L 25 5 L 19 5 L 19 5.820312 C 20.5625 6.515625 21.742188 7.621094 22.417969 9 L 25 9 L 25 12 L 30 7 Z M 13 5 L 13 7.242188 C 10.496094 7.824219 8.945312 9.527344 8.945312 11.910156 C 8.945312 14.300781 10.378906 15.816406 13.15625 16.34375 L 15.152344 16.738281 C 16.886719 17.085938 17.550781 17.539062 17.550781 18.382812 C 17.550781 19.382812 16.5625 20.078125 15.121094 20.078125 C 13.523438 20.078125 12.417969 19.371094 12.324219 18.269531 L 8.640625 18.269531 C 8.691406 20.648438 10.324219 22.269531 13 22.796875 L 13 25 L 17 25 L 17 22.777344 C 19.738281 22.21875 21.359375 20.496094 21.359375 17.921875 C 21.359375 15.511719 20.011719 14.152344 17.015625 13.574219 L 15.058594 13.195312 C 13.460938 12.878906 12.785156 12.394531 12.785156 11.566406 C 12.785156 10.554688 13.679688 9.914062 15.035156 9.914062 C 16.394531 9.914062 17.414062 10.660156 17.496094 11.734375 L 21.0625 11.734375 C 21.011719 9.496094 19.433594 7.835938 17 7.25 L 17 5 Z M 5 18 L 0 23 L 5 28 L 5 25 L 11 25 L 11 24.296875 C 9.25 23.625 7.972656 22.480469 7.269531 21 L 5 21 Z M 5 18 "/>
</g>
</svg>
