<?xml version="1.0" encoding="UTF-8"?>
<svg xmlns="http://www.w3.org/2000/svg" xmlns:xlink="http://www.w3.org/1999/xlink" viewBox="0 0 30 30" width="30px" height="30px">
<g id="surface32737129">
<path style=" stroke:none;fill-rule:nonzero;fill:rgb(100%,100%,100%);fill-opacity:1;" d="M 19.980469 0.988281 C 19.71875 0.996094 19.472656 1.105469 19.292969 1.292969 L 14 6.585938 L 10.707031 3.292969 C 10.519531 3.097656 10.261719 2.992188 9.988281 2.988281 C 9.582031 2.992188 9.21875 3.238281 9.0625 3.613281 C 8.910156 3.992188 9 4.421875 9.292969 4.707031 L 11.585938 7 L 7 7 C 4.238281 7 2 9.238281 2 12 L 2 21 C 2 23.046875 3.234375 24.804688 5 25.578125 L 5 26 C 4.996094 26.359375 5.183594 26.695312 5.496094 26.878906 C 5.808594 27.058594 6.191406 27.058594 6.503906 26.878906 C 6.816406 26.695312 7.003906 26.359375 7 26 L 23 26 C 22.996094 26.359375 23.183594 26.695312 23.496094 26.878906 C 23.808594 27.058594 24.191406 27.058594 24.503906 26.878906 C 24.816406 26.695312 25.003906 26.359375 25 26 L 25 25.578125 C 26.765625 24.804688 28 23.046875 28 21 L 28 12 C 28 9.238281 25.761719 7 23 7 L 16.414062 7 L 20.707031 2.707031 C 21.003906 2.417969 21.089844 1.980469 20.929688 1.601562 C 20.769531 1.21875 20.394531 0.976562 19.980469 0.988281 Z M 13 9 C 15.96875 9 18.566406 9.445312 19.960938 9.742188 C 20.660156 9.890625 21.226562 10.445312 21.40625 11.171875 C 21.675781 12.261719 22 14.074219 22 16.5 C 22 18.925781 21.675781 20.738281 21.40625 21.824219 C 21.226562 22.554688 20.660156 23.109375 19.960938 23.257812 C 18.566406 23.554688 15.96875 24 13 24 C 10.03125 24 7.433594 23.554688 6.039062 23.257812 C 5.339844 23.109375 4.773438 22.554688 4.59375 21.828125 C 4.324219 20.738281 4 18.925781 4 16.5 C 4 14.074219 4.324219 12.261719 4.59375 11.175781 C 4.773438 10.445312 5.339844 9.890625 6.039062 9.742188 C 7.433594 9.445312 10.03125 9 13 9 Z M 25 11 C 25.550781 11 26 11.449219 26 12 C 26 12.550781 25.550781 13 25 13 C 24.449219 13 24 12.550781 24 12 C 24 11.449219 24.449219 11 25 11 Z M 25 15 C 25.550781 15 26 15.449219 26 16 C 26 16.550781 25.550781 17 25 17 C 24.449219 17 24 16.550781 24 16 C 24 15.449219 24.449219 15 25 15 Z M 25 21 C 25.550781 21 26 21.449219 26 22 C 26 22.550781 25.550781 23 25 23 C 24.449219 23 24 22.550781 24 22 C 24 21.449219 24.449219 21 25 21 Z M 25 21 "/>
</g>
</svg>
