<?xml version="1.0" encoding="UTF-8"?>
<svg xmlns="http://www.w3.org/2000/svg" xmlns:xlink="http://www.w3.org/1999/xlink" viewBox="0 0 30 30" width="30px" height="30px">
<g id="surface32262899">
<path style=" stroke:none;fill-rule:nonzero;fill:rgb(100%,100%,100%);fill-opacity:1;" d="M 8 3 C 4.6875 3 2 5.6875 2 9 C 2 11.21875 3.207031 13.152344 5 14.191406 L 5 24 C 5 25.65625 6.34375 27 8 27 C 9.65625 27 11 25.65625 11 24 L 11 14.191406 C 12.792969 13.152344 14 11.21875 14 9 C 14 8.121094 13.808594 7.285156 13.46875 6.53125 L 10 10 L 7 10 L 7 7 L 10.46875 3.53125 C 9.714844 3.191406 8.878906 3 8 3 Z M 15.734375 11 C 15.546875 11.703125 15.269531 12.375 14.90625 13 L 16.859375 13 C 17.863281 13 18.796875 13.5 19.355469 14.335938 L 20.488281 16.035156 C 20.417969 16.023438 20.351562 16.007812 20.285156 16 L 13 16 L 13.050781 24 L 20.355469 24 C 20.921875 25.175781 22.117188 26 23.5 26 C 25.042969 26 26.347656 24.976562 26.808594 23.582031 L 28 23 L 28 19.097656 C 28 18.15625 27.347656 17.34375 26.433594 17.144531 C 25.570312 16.953125 24.417969 16.71875 23.195312 16.492188 L 21.019531 13.226562 C 20.089844 11.832031 18.535156 11 16.859375 11 Z M 23.5 21 C 24.339844 21 25 21.660156 25 22.5 C 25 23.339844 24.339844 24 23.5 24 C 22.660156 24 22 23.339844 22 22.5 C 22 21.660156 22.660156 21 23.5 21 Z M 8 23 C 8.550781 23 9 23.449219 9 24 C 9 24.550781 8.550781 25 8 25 C 7.449219 25 7 24.550781 7 24 C 7 23.449219 7.449219 23 8 23 Z M 8 23 "/>
</g>
</svg>
