<?xml version="1.0" encoding="UTF-8"?>
<svg xmlns="http://www.w3.org/2000/svg" xmlns:xlink="http://www.w3.org/1999/xlink" viewBox="0 0 30 30" width="30px" height="30px">
<g id="surface32404547">
<path style=" stroke:none;fill-rule:nonzero;fill:rgb(100%,100%,100%);fill-opacity:1;" d="M 12 2 C 11.515625 2 11.101562 2.347656 11.015625 2.828125 L 8.035156 15.734375 L 8.039062 15.734375 C 8.011719 15.820312 8 15.910156 8 16 C 8 16.550781 8.449219 17 9 17 L 14.5 17 L 13.019531 26.800781 C 13.007812 26.867188 13 26.933594 13 27 C 13 27.550781 13.449219 28 14 28 C 14.371094 28 14.710938 27.792969 14.882812 27.464844 L 21.808594 14.589844 L 21.796875 14.574219 C 21.914062 14.40625 22 14.21875 22 14 C 22 13.449219 21.550781 13 21 13 L 15.5 13 L 18.914062 3.410156 C 18.96875 3.28125 19 3.140625 19 3 C 19 2.449219 18.550781 2 18 2 Z M 12 2 "/>
</g>
</svg>
