<?xml version="1.0" encoding="UTF-8"?>
<svg xmlns="http://www.w3.org/2000/svg" xmlns:xlink="http://www.w3.org/1999/xlink" viewBox="0 0 30 30" width="30px" height="30px">
<g id="surface32264100">
<path style=" stroke:none;fill-rule:nonzero;fill:rgb(100%,100%,100%);fill-opacity:1;" d="M 8.152344 4 C 7.253906 4 6.460938 4.609375 6.222656 5.476562 L 4.691406 11.152344 L 4.65625 11.171875 C 3.640625 11.679688 3 12.71875 3 13.851562 L 3 18 L 27 18 L 27 13.851562 C 27 12.71875 26.359375 11.679688 25.34375 11.171875 L 25.308594 11.152344 L 23.777344 5.480469 L 23.777344 5.476562 C 23.542969 4.609375 22.742188 4 21.847656 4 Z M 8.152344 6 L 21.84375 6 L 23.195312 11 L 6.804688 11 Z M 2.984375 6.988281 C 2.433594 6.996094 1.992188 7.449219 2 8 L 2 10 C 1.996094 10.359375 2.183594 10.695312 2.496094 10.878906 C 2.808594 11.058594 3.191406 11.058594 3.503906 10.878906 C 3.816406 10.695312 4.003906 10.359375 4 10 L 4 8 C 4.003906 7.730469 3.898438 7.46875 3.707031 7.277344 C 3.515625 7.085938 3.253906 6.980469 2.984375 6.988281 Z M 26.984375 6.988281 C 26.433594 6.996094 25.992188 7.449219 26 8 L 26 10 C 25.996094 10.359375 26.183594 10.695312 26.496094 10.878906 C 26.808594 11.058594 27.191406 11.058594 27.503906 10.878906 C 27.816406 10.695312 28.003906 10.359375 28 10 L 28 8 C 28.003906 7.730469 27.898438 7.46875 27.707031 7.277344 C 27.515625 7.085938 27.253906 6.980469 26.984375 6.988281 Z M 6 13 L 7 13 C 7.550781 13 8 13.449219 8 14 L 8 15 C 8 15.550781 7.550781 16 7 16 L 6 16 C 5.449219 16 5 15.550781 5 15 L 5 14 C 5 13.449219 5.449219 13 6 13 Z M 11 13 L 19 13 C 19.550781 13 20 13.449219 20 14 L 20 15 C 20 15.550781 19.550781 16 19 16 L 11 16 C 10.449219 16 10 15.550781 10 15 L 10 14 C 10 13.449219 10.449219 13 11 13 Z M 23 13 L 24 13 C 24.550781 13 25 13.449219 25 14 L 25 15 C 25 15.550781 24.550781 16 24 16 L 23 16 C 22.449219 16 22 15.550781 22 15 L 22 14 C 22 13.449219 22.449219 13 23 13 Z M 3 20 L 3 24 C 3 25.105469 3.894531 26 5 26 C 6.105469 26 7 25.105469 7 24 L 7 23 L 23 23 L 23 24 C 23 25.105469 23.894531 26 25 26 C 26.105469 26 27 25.105469 27 24 L 27 20 L 19 20 C 19 20.550781 18.550781 21 18 21 L 12 21 C 11.449219 21 11 20.550781 11 20 Z M 3 20 "/>
</g>
</svg>
