<?xml version="1.0" encoding="UTF-8"?>
<svg xmlns="http://www.w3.org/2000/svg" xmlns:xlink="http://www.w3.org/1999/xlink" viewBox="0 0 30 30" width="30px" height="30px">
<g id="surface34007002">
<path style=" stroke:none;fill-rule:nonzero;fill:rgb(100%,100%,100%);fill-opacity:1;" d="M 7 3 C 5.894531 3 5 3.894531 5 5 L 5 25 C 5 26.105469 5.894531 27 7 27 L 17.734375 27 C 17.070312 26.070312 16.53125 25.066406 16.242188 24 L 14 24 C 13.449219 24 13 23.550781 13 23 C 13 22.449219 13.449219 22 14 22 L 16.027344 22 C 16.0625 21.285156 16.238281 20.613281 16.535156 20 L 14 20 C 13.449219 20 13 19.550781 13 19 C 13 18.449219 13.449219 18 14 18 L 18.207031 18 C 19.074219 17.378906 20.128906 17 21.273438 17 C 22.390625 17 23.300781 17.363281 24 17.804688 C 24.292969 17.617188 24.632812 17.453125 25 17.320312 L 25 5 C 25 3.894531 24.105469 3 23 3 Z M 10 6 C 10.550781 6 11 6.449219 11 7 C 11 7.550781 10.550781 8 10 8 C 9.449219 8 9 7.550781 9 7 C 9 6.449219 9.449219 6 10 6 Z M 14 6 L 20 6 C 20.550781 6 21 6.449219 21 7 C 21 7.550781 20.550781 8 20 8 L 14 8 C 13.449219 8 13 7.550781 13 7 C 13 6.449219 13.449219 6 14 6 Z M 10 10 C 10.550781 10 11 10.449219 11 11 C 11 11.550781 10.550781 12 10 12 C 9.449219 12 9 11.550781 9 11 C 9 10.449219 9.449219 10 10 10 Z M 14 10 L 20 10 C 20.550781 10 21 10.449219 21 11 C 21 11.550781 20.550781 12 20 12 L 14 12 C 13.449219 12 13 11.550781 13 11 C 13 10.449219 13.449219 10 14 10 Z M 10 14 C 10.550781 14 11 14.449219 11 15 C 11 15.550781 10.550781 16 10 16 C 9.449219 16 9 15.550781 9 15 C 9 14.449219 9.449219 14 10 14 Z M 14 14 L 20 14 C 20.550781 14 21 14.449219 21 15 C 21 15.550781 20.550781 16 20 16 L 14 16 C 13.449219 16 13 15.550781 13 15 C 13 14.449219 13.449219 14 14 14 Z M 10 18 C 10.550781 18 11 18.449219 11 19 C 11 19.550781 10.550781 20 10 20 C 9.449219 20 9 19.550781 9 19 C 9 18.449219 9.449219 18 10 18 Z M 21.273438 19 C 19.464844 19 18 20.464844 18 22.273438 C 18 25.410156 21.625 28.402344 23.332031 29.746094 C 23.515625 29.910156 23.753906 30 24 30 C 24.222656 30 24.441406 29.925781 24.613281 29.785156 C 24.617188 29.785156 24.621094 29.785156 24.621094 29.78125 C 24.625 29.78125 24.628906 29.777344 24.636719 29.769531 C 26.335938 28.4375 30 25.425781 30 22.273438 C 30 20.464844 28.535156 19 26.726562 19 C 25 19 24 20.5 24 20.5 C 24 20.5 23 19 21.273438 19 Z M 10 22 C 10.550781 22 11 22.449219 11 23 C 11 23.550781 10.550781 24 10 24 C 9.449219 24 9 23.550781 9 23 C 9 22.449219 9.449219 22 10 22 Z M 10 22 "/>
</g>
</svg>
