<?xml version="1.0" encoding="UTF-8"?>
<svg xmlns="http://www.w3.org/2000/svg" xmlns:xlink="http://www.w3.org/1999/xlink" viewBox="0 0 30 30" width="30px" height="30px">
<g id="surface31614219">
<path style=" stroke:none;fill-rule:nonzero;fill:rgb(100%,100%,100%);fill-opacity:1;" d="M 24.5 3 C 23.121094 3 22 4.121094 22 5.5 C 22 6.878906 23.121094 8 24.5 8 C 25.878906 8 27 6.878906 27 5.5 C 27 4.121094 25.878906 3 24.5 3 Z M 4.957031 3.386719 C 4.734375 3.402344 4.550781 3.5625 4.503906 3.777344 C 4.453125 3.996094 4.558594 4.21875 4.753906 4.328125 L 17.28125 11.445312 C 17.308594 11.457031 17.335938 11.46875 17.363281 11.480469 L 17.714844 11.679688 L 18.605469 11.234375 L 19 13 L 19 13.003906 C 19 13.316406 19.148438 13.613281 19.402344 13.800781 L 23.402344 16.800781 C 23.84375 17.132812 24.46875 17.042969 24.800781 16.601562 C 25.132812 16.15625 25.042969 15.53125 24.597656 15.199219 L 24.304688 14.976562 L 21.484375 12.398438 L 20.988281 8.210938 L 20.976562 8.207031 C 20.828125 6.949219 19.765625 6.003906 18.5 6 C 18.101562 6 17.710938 6.09375 17.355469 6.277344 L 17.351562 6.273438 L 13.5625 8.179688 L 5.246094 3.457031 C 5.175781 3.414062 5.09375 3.390625 5.007812 3.386719 C 4.992188 3.386719 4.976562 3.386719 4.957031 3.386719 Z M 10.589844 9.933594 C 10.234375 10.359375 10 10.898438 10 11.5 C 10 12.324219 10.40625 13.054688 11.023438 13.507812 L 11.023438 13.515625 L 14.667969 16.394531 L 12.03125 19.675781 L 11.890625 19.792969 L 3.496094 15.023438 C 3.347656 14.9375 3.183594 14.890625 3.019531 14.886719 C 2.554688 14.871094 2.144531 15.175781 2.023438 15.621094 C 1.902344 16.066406 2.101562 16.535156 2.507812 16.761719 L 18.378906 25.777344 C 20.386719 26.925781 23.160156 27.5625 25.417969 26.4375 C 25.75 26.285156 25.976562 25.964844 26.003906 25.597656 C 26.03125 25.230469 25.855469 24.878906 25.542969 24.679688 C 25.234375 24.484375 24.84375 24.46875 24.523438 24.648438 C 23.21875 25.300781 20.914062 24.921875 19.371094 24.039062 C 19.367188 24.039062 19.367188 24.039062 19.367188 24.035156 L 13.75 20.847656 L 18.640625 16.769531 C 18.867188 16.578125 18.996094 16.300781 19 16.003906 C 19 15.710938 18.871094 15.429688 18.648438 15.242188 L 17.042969 13.597656 Z M 10.589844 9.933594 "/>
</g>
</svg>
