<?xml version="1.0" encoding="UTF-8"?>
<svg xmlns="http://www.w3.org/2000/svg" xmlns:xlink="http://www.w3.org/1999/xlink" viewBox="0 0 30 30" width="30px" height="30px">
<g id="surface32717179">
<path style=" stroke:none;fill-rule:nonzero;fill:rgb(100%,100%,100%);fill-opacity:1;" d="M 19.972656 1.988281 C 19.609375 2 19.277344 2.210938 19.113281 2.539062 L 16.605469 7.34375 C 16.105469 7.125 15.566406 7 15 7 C 13.921875 7 12.910156 7.429688 12.171875 8.183594 C 11.789062 8.0625 11.398438 8 11 8 C 9.402344 8 8 8.929688 7.363281 10.363281 C 5.929688 11 5 12.402344 5 14 C 5 14.347656 5.050781 14.679688 5.136719 15 L 4 15 C 3.640625 14.992188 3.304688 15.183594 3.121094 15.492188 C 2.9375 15.804688 2.9375 16.1875 3.117188 16.5 C 3.296875 16.8125 3.632812 17.003906 3.992188 17 C 3.992188 20.410156 6.132812 23.316406 9.140625 24.46875 C 8.945312 24.777344 8.933594 25.167969 9.113281 25.488281 C 9.292969 25.808594 9.632812 26.003906 10 26 L 20 26 C 20.367188 26.003906 20.707031 25.808594 20.886719 25.484375 C 21.0625 25.164062 21.050781 24.773438 20.855469 24.464844 C 23.855469 23.308594 25.992188 20.40625 25.992188 17 L 26 17 C 26.359375 17.003906 26.695312 16.816406 26.878906 16.503906 C 27.058594 16.191406 27.058594 15.808594 26.878906 15.496094 C 26.695312 15.183594 26.359375 14.996094 26 15 L 24.863281 15 C 24.949219 14.679688 25 14.347656 25 14 C 25 12.871094 24.527344 11.84375 23.75 11.113281 L 22.417969 12.632812 C 22.773438 12.992188 23 13.46875 23 14 C 23 14.367188 22.894531 14.703125 22.722656 15 L 7.28125 15 C 7.105469 14.703125 7 14.367188 7 14 C 7 13.117188 7.574219 12.355469 8.429688 12.101562 C 8.75 12.003906 9.003906 11.75 9.101562 11.429688 C 9.355469 10.574219 10.117188 10 11 10 C 11.332031 10 11.660156 10.089844 11.976562 10.269531 C 12.441406 10.535156 13.03125 10.386719 13.316406 9.9375 C 13.6875 9.351562 14.316406 9 15 9 C 15.683594 9 16.3125 9.351562 16.6875 9.9375 C 16.96875 10.386719 17.558594 10.535156 18.023438 10.269531 C 18.464844 10.019531 18.9375 9.964844 19.375 10.054688 L 18.25 11.34375 C 17.996094 11.609375 17.910156 11.992188 18.023438 12.339844 C 18.136719 12.6875 18.433594 12.945312 18.792969 13.011719 C 19.152344 13.078125 19.519531 12.941406 19.753906 12.660156 L 26.753906 4.660156 C 27.015625 4.367188 27.082031 3.945312 26.921875 3.585938 C 26.761719 3.226562 26.40625 2.992188 26.015625 2.992188 C 25.71875 2.988281 25.4375 3.117188 25.25 3.34375 L 20.792969 8.433594 C 20.25 8.15625 19.644531 8 19 8 C 18.832031 8 18.664062 8.015625 18.5 8.039062 L 20.886719 3.464844 C 21.058594 3.148438 21.046875 2.765625 20.855469 2.460938 C 20.667969 2.15625 20.332031 1.976562 19.972656 1.988281 Z M 10 18 C 10.550781 18 11 18.449219 11 19 C 11 19.550781 10.550781 20 10 20 C 9.449219 20 9 19.550781 9 19 C 9 18.449219 9.449219 18 10 18 Z M 20 18 C 20.550781 18 21 18.449219 21 19 C 21 19.550781 20.550781 20 20 20 C 19.449219 20 19 19.550781 19 19 C 19 18.449219 19.449219 18 20 18 Z M 13 20 L 17 20 C 17 21.105469 16.105469 22 15 22 C 13.894531 22 13 21.105469 13 20 Z M 13 20 "/>
</g>
</svg>
