<?xml version="1.0" encoding="UTF-8"?>
<svg xmlns="http://www.w3.org/2000/svg" xmlns:xlink="http://www.w3.org/1999/xlink" viewBox="0 0 30 30" width="30px" height="30px">
<g id="surface34001326">
<path style=" stroke:none;fill-rule:nonzero;fill:rgb(100%,100%,100%);fill-opacity:1;" d="M 4 2 L 4 7 L 3 7 C 2.640625 6.996094 2.304688 7.183594 2.121094 7.496094 C 1.941406 7.808594 1.941406 8.191406 2.121094 8.503906 C 2.304688 8.816406 2.640625 9.003906 3 9 L 4 9 C 4.550781 9 5 9.445312 5 10 C 5 10.554688 4.550781 11 4 11 L 3 11 C 2.640625 10.996094 2.304688 11.183594 2.121094 11.496094 C 1.941406 11.808594 1.941406 12.191406 2.121094 12.503906 C 2.304688 12.816406 2.640625 13.003906 3 13 L 4 13 C 4.550781 13 5 13.445312 5 14 C 5 14.554688 4.550781 15 4 15 L 3 15 C 2.640625 14.996094 2.304688 15.183594 2.121094 15.496094 C 1.941406 15.808594 1.941406 16.191406 2.121094 16.503906 C 2.304688 16.816406 2.640625 17.003906 3 17 L 4 17 C 4.550781 17 5 17.445312 5 18 C 5 18.554688 4.550781 19 4 19 L 3 19 C 2.640625 18.996094 2.304688 19.183594 2.121094 19.496094 C 1.941406 19.808594 1.941406 20.191406 2.121094 20.503906 C 2.304688 20.816406 2.640625 21.003906 3 21 L 4 21 C 4.550781 21 5 21.445312 5 22 C 5 22.554688 4.550781 23 4 23 L 4 28 L 24 28 C 25.105469 28 26 27.105469 26 26 L 26 4 C 26 2.894531 25.105469 2 24 2 Z M 15.160156 8 C 19.21875 8 22 10.558594 22 14.296875 C 22 16.992188 20.722656 18.675781 18.671875 18.675781 C 17.609375 18.675781 16.839844 18.167969 16.652344 17.355469 L 16.5 17.355469 C 16.144531 18.210938 15.449219 18.652344 14.46875 18.652344 C 12.703125 18.652344 11.535156 17.226562 11.535156 15.074219 C 11.535156 13.015625 12.6875 11.617188 14.378906 11.617188 C 15.289062 11.617188 16.023438 12.058594 16.363281 12.8125 L 16.519531 12.8125 L 16.519531 11.804688 L 18.230469 11.804688 L 18.230469 16.296875 C 18.230469 16.898438 18.527344 17.246094 19.042969 17.246094 C 19.898438 17.246094 20.449219 16.160156 20.449219 14.441406 C 20.449219 11.375 18.332031 9.371094 15.113281 9.371094 C 11.832031 9.371094 9.554688 11.726562 9.554688 15.109375 C 9.554688 18.550781 11.832031 20.71875 15.433594 20.71875 C 16.339844 20.71875 17.261719 20.609375 17.738281 20.4375 L 17.738281 21.820312 C 17.078125 22.015625 16.203125 22.125 15.308594 22.125 C 10.890625 22.128906 8 19.324219 8 15.066406 C 8 10.882812 10.921875 8 15.160156 8 Z M 14.890625 13.195312 C 13.992188 13.195312 13.457031 13.914062 13.457031 15.125 C 13.457031 16.328125 13.992188 17.058594 14.882812 17.058594 C 15.789062 17.058594 16.359375 16.320312 16.359375 15.125 C 16.359375 13.933594 15.789062 13.195312 14.890625 13.195312 Z M 14.890625 13.195312 "/>
</g>
</svg>
