<?xml version="1.0" encoding="UTF-8"?>
<svg xmlns="http://www.w3.org/2000/svg" xmlns:xlink="http://www.w3.org/1999/xlink" viewBox="0 0 30 30" width="30px" height="30px">
<g id="surface32156108">
<path style=" stroke:none;fill-rule:nonzero;fill:rgb(100%,100%,100%);fill-opacity:1;" d="M 28 12.183594 L 28 7 C 28 5.894531 27.105469 5 26 5 L 4 5 C 2.894531 5 2 5.894531 2 7 L 2 12.183594 C 3.164062 12.597656 4 13.695312 4 15 C 4 16.304688 3.164062 17.402344 2 17.816406 L 2 23 C 2 24.105469 2.894531 25 4 25 L 26 25 C 27.105469 25 28 24.105469 28 23 L 28 17.816406 C 26.835938 17.402344 26 16.304688 26 15 C 26 13.695312 26.835938 12.597656 28 12.183594 Z M 20.550781 13.960938 L 17.648438 16.121094 L 18.726562 19.574219 C 18.871094 20.035156 18.347656 20.417969 17.949219 20.136719 L 15 18.046875 L 12.050781 20.136719 C 11.652344 20.417969 11.128906 20.035156 11.273438 19.574219 L 12.351562 16.121094 L 9.449219 13.960938 C 9.058594 13.671875 9.261719 13.054688 9.746094 13.046875 L 13.363281 13.007812 L 14.519531 9.578125 C 14.675781 9.121094 15.324219 9.121094 15.480469 9.578125 L 16.636719 13.007812 L 20.253906 13.046875 C 20.738281 13.054688 20.941406 13.671875 20.550781 13.960938 Z M 20.550781 13.960938 "/>
</g>
</svg>
