<?xml version="1.0" encoding="UTF-8"?>
<svg xmlns="http://www.w3.org/2000/svg" xmlns:xlink="http://www.w3.org/1999/xlink" viewBox="0 0 30 30" width="30px" height="30px">
<g id="surface32418513">
<path style=" stroke:none;fill-rule:nonzero;fill:rgb(100%,100%,100%);fill-opacity:1;" d="M 13 5 C 12.605469 5 12.25 5.230469 12.089844 5.589844 L 12.085938 5.59375 C 12.0625 5.652344 12.042969 5.707031 12.027344 5.769531 L 11.050781 8.679688 L 11.050781 8.683594 C 11.019531 8.785156 11 8.890625 11 9 C 11 9.550781 11.449219 10 12 10 L 18 10 C 18.550781 10 19 9.550781 19 9 C 19 8.890625 18.980469 8.785156 18.945312 8.683594 L 18.949219 8.679688 L 17.96875 5.765625 C 17.957031 5.710938 17.941406 5.65625 17.917969 5.605469 L 17.910156 5.589844 C 17.75 5.230469 17.390625 5 17 5 Z M 9 12 C 8.605469 12 8.25 12.230469 8.085938 12.589844 L 8.085938 12.59375 C 8.0625 12.652344 8.042969 12.707031 8.027344 12.765625 L 7.050781 15.679688 L 7.050781 15.683594 C 7.019531 15.785156 7 15.890625 7 16 C 7 16.550781 7.449219 17 8 17 L 14 17 C 14.550781 17 15 16.550781 15 16 C 15 15.890625 14.980469 15.785156 14.945312 15.683594 L 14.945312 15.679688 L 13.96875 12.765625 C 13.957031 12.710938 13.941406 12.65625 13.917969 12.605469 L 13.910156 12.589844 C 13.75 12.230469 13.390625 12 13 12 Z M 15 16 C 15 16.550781 15.449219 17 16 17 L 22 17 C 22.550781 17 23 16.550781 23 16 C 23 15.890625 22.980469 15.785156 22.945312 15.679688 L 21.96875 12.765625 C 21.957031 12.710938 21.941406 12.65625 21.917969 12.605469 L 21.910156 12.589844 L 21.910156 12.585938 C 21.75 12.230469 21.390625 12 21 12 L 17 12 C 16.605469 12 16.25 12.230469 16.085938 12.589844 L 16.085938 12.59375 C 16.0625 12.652344 16.042969 12.707031 16.027344 12.765625 L 15.050781 15.679688 C 15.019531 15.785156 15 15.890625 15 16 Z M 5 19 C 4.605469 19 4.25 19.230469 4.089844 19.589844 L 4.085938 19.59375 C 4.0625 19.652344 4.042969 19.707031 4.027344 19.765625 L 3.050781 22.679688 L 3.050781 22.683594 C 3.019531 22.785156 3 22.890625 3 23 C 3 23.550781 3.449219 24 4 24 L 10 24 C 10.550781 24 11 23.550781 11 23 C 11 22.890625 10.980469 22.785156 10.945312 22.683594 L 10.945312 22.679688 L 9.96875 19.765625 C 9.957031 19.710938 9.941406 19.65625 9.917969 19.605469 L 9.914062 19.589844 L 9.910156 19.589844 C 9.75 19.230469 9.390625 19 9 19 Z M 11 23 C 11 23.550781 11.449219 24 12 24 L 18 24 C 18.550781 24 19 23.550781 19 23 C 19 22.890625 18.980469 22.785156 18.945312 22.683594 L 18.949219 22.679688 L 17.96875 19.765625 C 17.957031 19.710938 17.941406 19.65625 17.917969 19.605469 L 17.910156 19.589844 C 17.75 19.230469 17.390625 19 17 19 L 13 19 C 12.605469 19 12.25 19.230469 12.085938 19.589844 L 12.085938 19.59375 C 12.0625 19.652344 12.042969 19.707031 12.027344 19.765625 L 11.050781 22.679688 L 11.050781 22.683594 C 11.019531 22.785156 11 22.890625 11 23 Z M 19 23 C 19 23.550781 19.449219 24 20 24 L 26 24 C 26.550781 24 27 23.550781 27 23 C 27 22.890625 26.980469 22.785156 26.945312 22.683594 L 26.945312 22.679688 L 25.96875 19.765625 C 25.957031 19.710938 25.941406 19.65625 25.917969 19.605469 L 25.910156 19.589844 C 25.75 19.230469 25.390625 19 25 19 L 21 19 C 20.605469 19 20.25 19.230469 20.085938 19.589844 L 20.085938 19.59375 C 20.0625 19.652344 20.042969 19.707031 20.027344 19.765625 L 19.050781 22.679688 L 19.050781 22.683594 C 19.019531 22.785156 19 22.890625 19 23 Z M 19 23 "/>
</g>
</svg>
