<?xml version="1.0" encoding="UTF-8"?>
<svg xmlns="http://www.w3.org/2000/svg" xmlns:xlink="http://www.w3.org/1999/xlink" viewBox="0 0 30 30" width="30px" height="30px">
<g id="surface32350231">
<path style=" stroke:none;fill-rule:nonzero;fill:rgb(100%,100%,100%);fill-opacity:1;" d="M 15 1 C 14.113281 1 13.328125 1.390625 12.78125 2 L 10 2 C 9.296875 2 8.808594 2.714844 9.070312 3.371094 L 10 6 L 20 6 L 20.925781 3.371094 C 21.191406 2.714844 20.703125 2 19.996094 2 L 17.21875 2 C 16.671875 1.390625 15.886719 1 15 1 Z M 10 8 C 10 8 3 14 3 21 C 3 25 6 27 8 27 L 22 27 C 24 27 27 25 27 21 C 27 14 20 8 20 8 Z M 16.675781 12 C 17.164062 12 17.675781 12.046875 17.972656 12.109375 L 17.972656 13.824219 C 17.648438 13.769531 17.242188 13.75 16.714844 13.75 C 14.308594 13.75 13.527344 15.046875 13.273438 16 L 17 16 L 17 17 L 13.152344 17 C 13.148438 17.082031 13.140625 17.492188 13.273438 18 L 17 18 L 17 19 L 13.734375 19 C 14.214844 19.671875 15.089844 20.25 16.683594 20.25 C 17.222656 20.25 17.710938 20.230469 18 20.183594 L 18 21.933594 C 17.6875 21.96875 17.242188 22 16.675781 22 C 13.1875 22 11.839844 20.394531 11.320312 19 L 10 19 L 10 18 L 11.0625 18 C 10.980469 17.453125 11.003906 17.054688 11.003906 17 L 10 17 L 10 16 L 11.074219 16 C 11.3125 14.542969 12.335938 12 16.675781 12 Z M 16.675781 12 "/>
</g>
</svg>
