<?xml version="1.0" encoding="UTF-8"?>
<svg xmlns="http://www.w3.org/2000/svg" xmlns:xlink="http://www.w3.org/1999/xlink" viewBox="0 0 30 30" width="30px" height="30px">
<g id="surface32715244">
<path style=" stroke:none;fill-rule:nonzero;fill:rgb(100%,100%,100%);fill-opacity:1;" d="M 15 5 C 10.3125 5 7.558594 6.804688 7.441406 6.882812 C 7.039062 7.152344 6.890625 7.679688 7.089844 8.125 L 11.734375 18.410156 C 11.898438 18.769531 12.257812 19 12.648438 19 L 17.351562 19 C 17.746094 19 18.101562 18.769531 18.261719 18.410156 L 22.910156 8.125 C 23.113281 7.679688 22.960938 7.152344 22.558594 6.882812 C 22.441406 6.804688 19.6875 5 15 5 Z M 11 9 C 11.550781 9 12 9.449219 12 10 C 12 10.550781 11.550781 11 11 11 C 10.449219 11 10 10.550781 10 10 C 10 9.449219 10.449219 9 11 9 Z M 19 9 C 19.550781 9 20 9.449219 20 10 C 20 10.550781 19.550781 11 19 11 C 18.449219 11 18 10.550781 18 10 C 18 9.449219 18.449219 9 19 9 Z M 5.929688 10.421875 C 4.433594 11.59375 2.824219 13.300781 2.054688 15.59375 C 1.949219 15.898438 2 16.238281 2.195312 16.503906 C 2.285156 16.621094 3.117188 17.695312 5.433594 18.777344 C 7.320312 19.660156 9.03125 19.972656 9.101562 19.984375 C 9.160156 19.996094 9.21875 20 9.277344 20 C 9.632812 20 9.894531 19.847656 10.128906 19.628906 C 10.050781 19.503906 9.976562 19.375 9.917969 19.238281 Z M 24.070312 10.421875 L 20.082031 19.238281 C 20.023438 19.375 19.949219 19.503906 19.871094 19.628906 C 20.105469 19.847656 20.367188 20 20.722656 20 C 20.78125 20 20.839844 19.996094 20.898438 19.984375 C 20.96875 19.972656 22.679688 19.660156 24.566406 18.777344 C 26.882812 17.695312 27.714844 16.621094 27.804688 16.503906 C 28 16.238281 28.050781 15.898438 27.949219 15.59375 C 27.175781 13.300781 25.566406 11.59375 24.070312 10.421875 Z M 13 11 L 17 11 C 17 12.105469 16.105469 13 15 13 C 13.894531 13 13 12.105469 13 11 Z M 2.003906 19.050781 C 2.019531 23.023438 3.835938 25 5 25 C 6.140625 25 6.710938 23.566406 7.621094 21.691406 C 6.84375 21.480469 5.75 21.132812 4.582031 20.589844 C 3.453125 20.0625 2.621094 19.527344 2.003906 19.050781 Z M 27.996094 19.050781 C 27.378906 19.527344 26.546875 20.0625 25.417969 20.589844 C 24.25 21.132812 23.15625 21.480469 22.378906 21.6875 C 23.289062 23.566406 23.859375 25 25 25 C 26.164062 25 27.980469 23.023438 27.996094 19.050781 Z M 27.996094 19.050781 "/>
</g>
</svg>
