<?xml version="1.0" encoding="UTF-8"?>
<svg xmlns="http://www.w3.org/2000/svg" xmlns:xlink="http://www.w3.org/1999/xlink" viewBox="0 0 30 30" width="30px" height="30px">
<g id="surface32380731">
<path style=" stroke:none;fill-rule:nonzero;fill:rgb(100%,100%,100%);fill-opacity:1;" d="M 15 1 C 14.113281 1 13.328125 1.390625 12.78125 2 L 10 2 C 9.296875 2 8.808594 2.714844 9.070312 3.371094 L 10 6 L 20 6 L 20.925781 3.371094 C 21.191406 2.714844 20.703125 2 19.996094 2 L 17.21875 2 C 16.671875 1.390625 15.886719 1 15 1 Z M 10 8 C 10 8 3 14 3 21 C 3 25 6 27 8 27 L 22 27 C 24 27 27 25 27 21 C 27 14 20 8 20 8 Z M 14 10 L 16 10 L 16 12.007812 C 17.859375 12.050781 18.972656 12.984375 18.972656 14.496094 C 18.972656 15.554688 18.1875 16.476562 17.164062 16.628906 L 17.164062 16.753906 C 18.484375 16.851562 19.449219 17.851562 19.449219 19.140625 C 19.449219 20.890625 18.128906 21.996094 16 22 L 16 24 L 14 24 L 14 22 L 11.5 22 L 11.5 12 L 14 12 Z M 13.59375 13.601562 L 13.59375 16.144531 L 15.167969 16.144531 C 16.296875 16.144531 16.910156 15.679688 16.910156 14.875 C 16.910156 14.078125 16.335938 13.601562 15.339844 13.601562 Z M 13.59375 17.558594 L 13.59375 20.398438 L 15.457031 20.398438 C 16.664062 20.398438 17.3125 19.890625 17.3125 18.957031 C 17.3125 18.042969 16.640625 17.558594 15.40625 17.558594 Z M 13.59375 17.558594 "/>
</g>
</svg>
