<?xml version="1.0" encoding="UTF-8"?>
<svg xmlns="http://www.w3.org/2000/svg" xmlns:xlink="http://www.w3.org/1999/xlink" viewBox="0 0 30 30" width="30px" height="30px">
<g id="surface31784721">
<path style=" stroke:none;fill-rule:nonzero;fill:rgb(100%,100%,100%);fill-opacity:1;" d="M 15 2 C 13.34375 2 12 3.34375 12 5 C 12 6.65625 13.34375 8 15 8 C 16.65625 8 18 6.65625 18 5 C 18 3.34375 16.65625 2 15 2 Z M 15 10 C 8.917969 10 5.246094 14.199219 5.246094 14.199219 C 4.890625 14.589844 4.898438 15.1875 5.265625 15.566406 C 5.628906 15.949219 6.226562 15.980469 6.628906 15.640625 C 6.808594 15.515625 8.632812 14.28125 10.574219 13.773438 L 10.734375 16.554688 C 10.132812 17.15625 9 18.539062 9 20.5 C 9 22.015625 9.59375 23.28125 10.140625 24.195312 C 10.40625 24.632812 10.65625 24.984375 10.835938 25.246094 C 10.472656 25.558594 10.382812 26.085938 10.621094 26.503906 C 10.863281 26.921875 11.367188 27.105469 11.820312 26.949219 C 11.820312 26.949219 13 26.414062 13 25.261719 C 13 24.90625 12.929688 24.773438 12.859375 24.675781 C 12.761719 24.449219 12 22.679688 12 21.5 C 12 21.261719 12.050781 21.042969 12.117188 20.839844 C 12.871094 21.558594 13.886719 22 15 22 C 16.113281 22 17.128906 21.558594 17.882812 20.839844 C 17.949219 21.042969 18 21.261719 18 21.5 C 18 22.679688 17.238281 24.449219 17.140625 24.675781 C 17.070312 24.773438 17 24.90625 17 25.261719 C 17 26.414062 18.179688 26.949219 18.179688 26.949219 C 18.632812 27.105469 19.136719 26.921875 19.378906 26.503906 C 19.617188 26.085938 19.527344 25.558594 19.160156 25.246094 C 19.34375 24.984375 19.59375 24.632812 19.855469 24.195312 C 20.40625 23.28125 21 22.015625 21 20.5 C 21 18.539062 19.867188 17.15625 19.261719 16.554688 L 19.425781 13.773438 C 21.359375 14.277344 23.171875 15.5 23.359375 15.632812 C 23.761719 15.980469 24.367188 15.957031 24.734375 15.574219 C 25.105469 15.191406 25.113281 14.589844 24.75 14.199219 C 24.75 14.199219 21.082031 10 15 10 Z M 12.648438 15 L 17.351562 15 L 17.179688 17.945312 C 17.109375 19.109375 16.164062 20 15 20 C 13.835938 20 12.890625 19.109375 12.824219 17.945312 Z M 12.648438 15 "/>
</g>
</svg>
