<?xml version="1.0" encoding="UTF-8"?>
<svg xmlns="http://www.w3.org/2000/svg" xmlns:xlink="http://www.w3.org/1999/xlink" viewBox="0 0 30 30" width="30px" height="30px">
<g id="surface32355582">
<path style=" stroke:none;fill-rule:nonzero;fill:rgb(100%,100%,100%);fill-opacity:1;" d="M 20 2 L 20 5 L 17.605469 8.824219 L 23 12.195312 L 24 10 L 27 10 C 27.359375 10 27.691406 9.804688 27.871094 9.492188 L 27.878906 9.476562 C 27.894531 9.449219 27.910156 9.414062 27.925781 9.382812 L 28.882812 7.46875 C 28.960938 7.324219 29 7.164062 29 7 C 29 6.601562 28.765625 6.242188 28.402344 6.082031 L 26 5 C 26 5 25.742188 4 24.28125 4 L 22 4 C 22 4 21.5 2.527344 20 2 Z M 3.953125 8.984375 C 3.65625 9 3.375 9.144531 3.195312 9.386719 C 3.015625 9.625 2.953125 9.933594 3.023438 10.222656 C 3.40625 11.871094 4.472656 12.820312 5.375 13.355469 C 5.195312 13.746094 5.0625 14.160156 5.019531 14.609375 C 5 14.8125 5.015625 15.007812 5.023438 15.203125 C 5.007812 15.300781 5 15.402344 5 15.5 C 5 16.996094 5.257812 18.046875 5.261719 18.683594 C 5.265625 19.316406 5.230469 19.636719 4.394531 20.550781 C 4.140625 20.828125 4 21.1875 4 21.566406 L 4 26.5 C 3.992188 27.039062 4.277344 27.542969 4.742188 27.816406 C 5.210938 28.089844 5.789062 28.089844 6.257812 27.816406 C 6.722656 27.542969 7.007812 27.039062 7 26.5 L 7 22.484375 C 7 22.484375 9.335938 21.027344 10.4375 19 L 19 19 L 19 21.4375 C 19 21.535156 19.011719 21.632812 19.027344 21.730469 L 20.027344 26.792969 C 20.117188 27.332031 20.492188 27.78125 21.011719 27.964844 C 21.527344 28.148438 22.101562 28.035156 22.511719 27.667969 C 22.921875 27.304688 23.097656 26.742188 22.972656 26.210938 L 22 21.292969 L 22 18.722656 C 22.59375 18.375 23 17.738281 23 17 L 23 14.554688 L 16.25 10.335938 C 15.609375 10.753906 14.855469 11 14.050781 11 L 9.171875 11 C 8.25 11 7.382812 11.3125 6.671875 11.824219 C 6.097656 11.554688 5.25 10.96875 4.976562 9.777344 C 4.871094 9.300781 4.441406 8.964844 3.957031 8.988281 Z M 11.527344 21 C 10.824219 21.949219 9.996094 22.722656 9.316406 23.269531 L 10.03125 26.796875 C 10.175781 27.511719 10.800781 28 11.5 28 C 11.597656 28 11.699219 27.992188 11.800781 27.96875 C 12.609375 27.808594 13.136719 27.011719 12.972656 26.199219 L 11.933594 21 Z M 11.527344 21 "/>
</g>
</svg>
