<?xml version="1.0" encoding="UTF-8"?>
<svg xmlns="http://www.w3.org/2000/svg" xmlns:xlink="http://www.w3.org/1999/xlink" viewBox="0 0 30 30" width="30px" height="30px">
<g id="surface34011306">
<path style=" stroke:none;fill-rule:nonzero;fill:rgb(100%,100%,100%);fill-opacity:1;" d="M 6.53125 2.515625 C 6.257812 2.511719 6 2.617188 5.808594 2.808594 C 5.417969 3.199219 5.417969 3.832031 5.808594 4.222656 C 6.199219 4.613281 6.832031 4.613281 7.222656 4.222656 C 7.613281 3.832031 7.613281 3.199219 7.222656 2.808594 C 7.039062 2.625 6.789062 2.519531 6.53125 2.515625 Z M 23.5 2.515625 C 23.230469 2.511719 22.96875 2.617188 22.777344 2.808594 C 22.386719 3.199219 22.386719 3.832031 22.777344 4.222656 C 23.167969 4.613281 23.800781 4.613281 24.191406 4.222656 C 24.582031 3.832031 24.582031 3.199219 24.191406 2.808594 C 24.007812 2.625 23.761719 2.519531 23.5 2.515625 Z M 15 3 C 10.027344 3 6 7.027344 6 12 C 6 17 10 19 12 23 L 18 23 C 20 19 24 17 24 12 C 24 7.027344 19.972656 3 15 3 Z M 15 6 L 15 11 L 19 11 L 15 18 L 15 13 L 11 13 Z M 3 11 C 2.449219 11 2 11.449219 2 12 C 2 12.550781 2.449219 13 3 13 C 3.550781 13 4 12.550781 4 12 C 4 11.449219 3.550781 11 3 11 Z M 27 11 C 26.449219 11 26 11.449219 26 12 C 26 12.550781 26.449219 13 27 13 C 27.550781 13 28 12.550781 28 12 C 28 11.449219 27.550781 11 27 11 Z M 6.53125 19.484375 C 6.257812 19.480469 5.996094 19.585938 5.808594 19.777344 C 5.417969 20.167969 5.417969 20.800781 5.808594 21.191406 C 5.996094 21.378906 6.25 21.484375 6.515625 21.484375 C 6.78125 21.484375 7.035156 21.378906 7.222656 21.191406 C 7.613281 20.800781 7.613281 20.167969 7.222656 19.777344 C 7.039062 19.59375 6.789062 19.488281 6.527344 19.484375 Z M 23.5 19.484375 C 23.226562 19.480469 22.96875 19.585938 22.777344 19.777344 C 22.589844 19.964844 22.484375 20.21875 22.484375 20.484375 C 22.484375 20.75 22.589844 21.003906 22.777344 21.191406 C 23.167969 21.582031 23.800781 21.582031 24.191406 21.191406 C 24.378906 21.003906 24.484375 20.75 24.484375 20.484375 C 24.484375 20.21875 24.378906 19.964844 24.191406 19.777344 C 24.007812 19.59375 23.757812 19.488281 23.5 19.484375 Z M 12 25 L 12 26 C 12 27.105469 12.894531 28 14 28 C 14 28.550781 14.449219 29 15 29 C 15.550781 29 16 28.550781 16 28 C 17.105469 28 18 27.105469 18 26 L 18 25 Z M 12 25 "/>
</g>
</svg>
