<?xml version="1.0" encoding="UTF-8"?>
<svg xmlns="http://www.w3.org/2000/svg" xmlns:xlink="http://www.w3.org/1999/xlink" viewBox="0 0 30 30" width="30px" height="30px">
<g id="surface32405452">
<path style=" stroke:none;fill-rule:nonzero;fill:rgb(100%,100%,100%);fill-opacity:1;" d="M 13 3 C 12.449219 3 12 3.449219 12 4 C 12 8.34375 5 12.023438 5 19 C 5 24.523438 9.476562 27 15 27 C 12.789062 27 11 25.210938 11 23 C 11 21 12 19 12 19 C 12 19 13 21 14 21 C 16 21 16 14 16 14 C 16 14 19 17 19 23 C 19 25.210938 17.210938 27 15 27 C 20.523438 27 25 24.523438 25 19 C 25 10.234375 14.167969 3.546875 13.601562 3.203125 C 13.429688 3.070312 13.21875 3 13 3 Z M 13 3 "/>
</g>
</svg>
