<?xml version="1.0" encoding="UTF-8"?>
<svg xmlns="http://www.w3.org/2000/svg" xmlns:xlink="http://www.w3.org/1999/xlink" viewBox="0 0 30 30" width="30px" height="30px">
<g id="surface32352458">
<path style=" stroke:none;fill-rule:nonzero;fill:rgb(100%,100%,100%);fill-opacity:1;" d="M 23.5 2 C 21.015625 2 19 4.015625 19 6.5 C 19 8.984375 21.015625 11 23.5 11 C 25.984375 11 28 8.984375 28 6.5 C 28 4.015625 25.984375 2 23.5 2 Z M 23.5 3.691406 C 23.945312 3.691406 24.304688 4.054688 24.304688 4.5 C 24.304688 4.945312 23.945312 5.308594 23.5 5.308594 C 23.054688 5.308594 22.691406 4.945312 22.691406 4.5 C 22.691406 4.054688 23.054688 3.691406 23.5 3.691406 Z M 23 6 L 24 6 L 24 9 L 23 9 Z M 2.984375 7.984375 C 2.433594 7.996094 1.992188 8.449219 2 9 L 2 26 C 1.996094 26.359375 2.183594 26.695312 2.496094 26.878906 C 2.808594 27.058594 3.191406 27.058594 3.503906 26.878906 C 3.816406 26.695312 4.003906 26.359375 4 26 L 4 25 L 26 25 L 26 26 C 25.996094 26.359375 26.183594 26.695312 26.496094 26.878906 C 26.808594 27.058594 27.191406 27.058594 27.503906 26.878906 C 27.816406 26.695312 28.003906 26.359375 28 26 L 28 21 C 28.003906 20.730469 27.898438 20.46875 27.707031 20.277344 C 27.515625 20.085938 27.253906 19.980469 26.984375 19.984375 C 26.9375 19.988281 26.886719 19.992188 26.839844 20 L 4 20 L 4 9 C 4.003906 8.730469 3.898438 8.46875 3.707031 8.277344 C 3.515625 8.085938 3.253906 7.980469 2.984375 7.984375 Z M 8.5 13 C 7.121094 13 6 14.121094 6 15.5 C 6 16.878906 7.121094 18 8.5 18 C 9.878906 18 11 16.878906 11 15.5 C 11 14.121094 9.878906 13 8.5 13 Z M 13 13 L 13 18 L 27 18 L 27 16 C 27 14.34375 25.65625 13 24 13 Z M 13 13 "/>
</g>
</svg>
