<?xml version="1.0" encoding="UTF-8"?>
<svg xmlns="http://www.w3.org/2000/svg" xmlns:xlink="http://www.w3.org/1999/xlink" viewBox="0 0 30 30" width="30px" height="30px">
<g id="surface32629922">
<path style=" stroke:none;fill-rule:nonzero;fill:rgb(100%,100%,100%);fill-opacity:1;" d="M 13 2 C 11.355469 2 10 3.355469 10 5 C 10 5.351562 10.074219 5.683594 10.1875 6 L 5 6 C 3.894531 6 3 6.894531 3 8 L 3 10 L 27 10 L 27 8 C 27 6.894531 26.105469 6 25 6 L 19.8125 6 C 19.925781 5.683594 20 5.351562 20 5 C 20 3.355469 18.644531 2 17 2 C 16.230469 2 15.535156 2.304688 15 2.789062 C 14.464844 2.304688 13.769531 2 13 2 Z M 13 4 C 13.566406 4 14 4.433594 14 5 L 14 6 L 13 6 C 12.433594 6 12 5.566406 12 5 C 12 4.433594 12.433594 4 13 4 Z M 17 4 C 17.566406 4 18 4.433594 18 5 C 18 5.566406 17.566406 6 17 6 L 16 6 L 16 5 C 16 4.433594 16.433594 4 17 4 Z M 4 12 L 4 25 C 4 26.105469 4.894531 27 6 27 L 14 27 L 14 12 Z M 16 12 L 16 27 L 24 27 C 25.105469 27 26 26.105469 26 25 L 26 12 Z M 16 12 "/>
</g>
</svg>
