<?xml version="1.0" encoding="UTF-8"?>
<svg xmlns="http://www.w3.org/2000/svg" xmlns:xlink="http://www.w3.org/1999/xlink" viewBox="0 0 30 30" width="30px" height="30px">
<g id="surface32621504">
<path style=" stroke:none;fill-rule:nonzero;fill:rgb(100%,100%,100%);fill-opacity:1;" d="M 16 3 C 15.640625 2.996094 15.304688 3.183594 15.121094 3.496094 C 14.941406 3.808594 14.941406 4.191406 15.121094 4.503906 C 15.304688 4.816406 15.640625 5.003906 16 5 L 18.265625 5 L 21.585938 15.582031 L 17.453125 22 L 7.8125 22 C 7.394531 20.84375 6.292969 20 5 20 C 3.355469 20 2 21.355469 2 23 C 2 24.644531 3.355469 26 5 26 C 6.292969 26 7.394531 25.15625 7.8125 24 L 18 24 C 18.339844 24 18.65625 23.828125 18.839844 23.539062 L 22.367188 18.0625 L 23.175781 20.640625 C 22.46875 21.195312 22 22.042969 22 23 C 22 24.644531 23.355469 26 25 26 C 26.644531 26 28 24.644531 28 23 C 28 21.378906 26.683594 20.046875 25.074219 20.007812 L 19.957031 3.699219 C 19.824219 3.285156 19.4375 3 19 3 Z M 5 22 C 5.542969 22 5.957031 22.410156 5.988281 22.941406 C 5.984375 22.980469 5.984375 23.019531 5.988281 23.058594 C 5.957031 23.59375 5.542969 24 5 24 C 4.4375 24 4 23.5625 4 23 C 4 22.4375 4.4375 22 5 22 Z M 25 22 C 25.5625 22 26 22.4375 26 23 C 26 23.5625 25.5625 24 25 24 C 24.4375 24 24 23.5625 24 23 C 24 22.4375 24.4375 22 25 22 Z M 25 22 "/>
</g>
</svg>
