<?xml version="1.0" encoding="UTF-8"?>
<svg xmlns="http://www.w3.org/2000/svg" xmlns:xlink="http://www.w3.org/1999/xlink" viewBox="0 0 30 30" width="30px" height="30px">
<g id="surface32110552">
<path style=" stroke:none;fill-rule:nonzero;fill:rgb(100%,100%,100%);fill-opacity:1;" d="M 8.5 3 C 6.566406 3 5 4.566406 5 6.5 C 5 8.433594 6.566406 10 8.5 10 C 10.433594 10 12 8.433594 12 6.5 C 12 4.566406 10.433594 3 8.5 3 Z M 23 6 C 22.449219 6 22 6.449219 22 7 C 22 7.550781 22.449219 8 23 8 C 23.550781 8 24 7.550781 24 7 C 24 6.449219 23.550781 6 23 6 Z M 23 8 C 21.136719 8 19.589844 9.277344 19.140625 11 L 19 11 C 18.449219 11 18 11.449219 18 12 C 18 12.550781 18.449219 13 19 13 L 27 13 C 27.550781 13 28 12.550781 28 12 C 28 11.449219 27.550781 11 27 11 L 26.855469 11 C 26.410156 9.277344 24.863281 8 23 8 Z M 5.875 12.203125 C 5.097656 12.328125 4.472656 12.488281 4 12.632812 L 4 26 L 14 26 L 14 18.507812 L 17.394531 20.796875 L 17.394531 20.792969 C 17.8125 21.113281 18.40625 21.050781 18.753906 20.65625 L 21.953125 17 L 24 17 C 24.359375 17.003906 24.695312 16.816406 24.878906 16.503906 C 25.058594 16.191406 25.058594 15.808594 24.878906 15.496094 C 24.695312 15.183594 24.359375 14.996094 24 15 L 21.953125 15 C 21.527344 15 21.117188 15.136719 20.78125 15.382812 L 20.78125 15.375 L 18 17.378906 L 14 13 C 14 13 12.972656 12.496094 11.125 12.203125 L 8.5 21.328125 Z M 5.875 12.203125 "/>
</g>
</svg>
