<?xml version="1.0" encoding="UTF-8"?>
<svg xmlns="http://www.w3.org/2000/svg" xmlns:xlink="http://www.w3.org/1999/xlink" viewBox="0 0 30 30" width="30px" height="30px">
<g id="surface32383231">
<path style=" stroke:none;fill-rule:nonzero;fill:rgb(100%,100%,100%);fill-opacity:1;" d="M 15 3 C 14.835938 3 14.671875 3.042969 14.527344 3.117188 L 0.539062 10.113281 C 0.207031 10.289062 0 10.628906 0 11 C 0 11.371094 0.207031 11.710938 0.539062 11.886719 L 14.519531 18.878906 C 14.667969 18.957031 14.832031 19 15 19 C 15.164062 19 15.328125 18.957031 15.472656 18.878906 L 29.453125 11.890625 C 29.457031 11.890625 29.460938 11.886719 29.460938 11.886719 C 29.792969 11.710938 30 11.371094 30 11 C 30 10.628906 29.792969 10.289062 29.460938 10.113281 L 15.480469 3.125 C 15.332031 3.042969 15.167969 3 15 3 Z M 29 14.355469 L 27 15.351562 L 27 24.277344 C 26.40625 24.625 26 25.261719 26 26 C 26 27.105469 28 30 28 30 C 28 30 30 27.105469 30 26 C 30 25.261719 29.59375 24.625 29 24.277344 Z M 6 16.851562 L 6 21 C 6 23.761719 10.027344 26 15 26 C 19.972656 26 24 23.761719 24 21 L 24 16.851562 L 16.363281 20.667969 C 16.28125 20.710938 16.199219 20.746094 16.109375 20.777344 C 15.75 20.925781 15.378906 21 15 21 C 14.625 21 14.253906 20.925781 13.890625 20.777344 C 13.804688 20.746094 13.71875 20.710938 13.636719 20.667969 Z M 6 16.851562 "/>
</g>
</svg>
