<?xml version="1.0" encoding="UTF-8"?>
<svg xmlns="http://www.w3.org/2000/svg" xmlns:xlink="http://www.w3.org/1999/xlink" viewBox="0 0 30 30" width="30px" height="30px">
<g id="surface32447760">
<path style=" stroke:none;fill-rule:nonzero;fill:rgb(100%,100%,100%);fill-opacity:1;" d="M 3 5 C 1.894531 5 1 5.894531 1 7 L 1 21 C 0.640625 20.996094 0.304688 21.183594 0.121094 21.496094 C -0.0585938 21.808594 -0.0585938 22.191406 0.121094 22.503906 C 0.304688 22.816406 0.640625 23.003906 1 23 L 4.050781 23 C 4.296875 24.683594 5.75 26 7.5 26 C 9.25 26 10.703125 24.683594 10.949219 23 L 20.050781 23 C 20.296875 24.683594 21.75 26 23.5 26 C 25.25 26 26.703125 24.683594 26.949219 23 L 29 23 C 29.359375 23.003906 29.695312 22.816406 29.878906 22.503906 C 30.058594 22.191406 30.058594 21.808594 29.878906 21.496094 C 29.695312 21.183594 29.359375 20.996094 29 21 L 29 16 L 23 16 L 23 12 C 23 11.449219 23.449219 11 24 11 L 26.855469 11 L 26.519531 10.214844 C 26.203125 9.476562 25.480469 9 24.679688 9 L 18 9 L 18 7 C 18 5.894531 17.105469 5 16 5 Z M 9 8 C 11.761719 8 14 10.238281 14 13 C 14 15.761719 11.761719 18 9 18 C 6.238281 18 4 15.761719 4 13 C 4 10.238281 6.238281 8 9 8 Z M 8.984375 8.984375 C 8.433594 8.996094 7.992188 9.449219 8 10 L 8 13 C 8 13.265625 8.105469 13.519531 8.292969 13.707031 L 9.667969 15.082031 C 9.917969 15.335938 10.289062 15.433594 10.632812 15.339844 C 10.980469 15.25 11.25 14.980469 11.339844 14.632812 C 11.433594 14.289062 11.335938 13.917969 11.082031 13.664062 L 10 12.585938 L 10 10 C 10.003906 9.730469 9.898438 9.46875 9.707031 9.277344 C 9.515625 9.085938 9.253906 8.980469 8.984375 8.984375 Z M 7.5 21 C 8.339844 21 9 21.660156 9 22.5 C 9 23.339844 8.339844 24 7.5 24 C 6.660156 24 6 23.339844 6 22.5 C 6 21.660156 6.660156 21 7.5 21 Z M 23.5 21 C 24.339844 21 25 21.660156 25 22.5 C 25 23.339844 24.339844 24 23.5 24 C 22.660156 24 22 23.339844 22 22.5 C 22 21.660156 22.660156 21 23.5 21 Z M 23.5 21 "/>
</g>
</svg>
