<?xml version="1.0" encoding="UTF-8"?>
<svg xmlns="http://www.w3.org/2000/svg" xmlns:xlink="http://www.w3.org/1999/xlink" viewBox="0 0 30 30" width="30px" height="30px">
<g id="surface32403342">
<path style=" stroke:none;fill-rule:nonzero;fill:rgb(100%,100%,100%);fill-opacity:1;" d="M 6 4 C 4.894531 4 4 4.894531 4 6 L 4 24 C 4 25.105469 4.894531 26 6 26 L 24 26 C 25.105469 26 26 25.105469 26 24 L 26 6 C 26 4.894531 25.105469 4 24 4 Z M 10.5 7 C 12.429688 7 14 8.570312 14 10.5 C 14 12.429688 12.429688 14 10.5 14 C 8.570312 14 7 12.429688 7 10.5 C 7 8.570312 8.570312 7 10.5 7 Z M 21 8 C 21.253906 8 21.511719 8.097656 21.707031 8.292969 C 22.097656 8.683594 22.097656 9.316406 21.707031 9.707031 L 9.707031 21.707031 C 9.511719 21.902344 9.257812 22 9 22 C 8.742188 22 8.488281 21.902344 8.292969 21.707031 C 7.902344 21.316406 7.902344 20.683594 8.292969 20.292969 L 20.292969 8.292969 C 20.488281 8.097656 20.746094 8 21 8 Z M 10.5 9 C 9.671875 9 9 9.671875 9 10.5 C 9 11.328125 9.671875 12 10.5 12 C 11.328125 12 12 11.328125 12 10.5 C 12 9.671875 11.328125 9 10.5 9 Z M 19.5 16 C 21.429688 16 23 17.570312 23 19.5 C 23 21.429688 21.429688 23 19.5 23 C 17.570312 23 16 21.429688 16 19.5 C 16 17.570312 17.570312 16 19.5 16 Z M 19.5 18 C 18.671875 18 18 18.671875 18 19.5 C 18 20.328125 18.671875 21 19.5 21 C 20.328125 21 21 20.328125 21 19.5 C 21 18.671875 20.328125 18 19.5 18 Z M 19.5 18 "/>
</g>
</svg>
