<?xml version="1.0" encoding="UTF-8"?>
<svg xmlns="http://www.w3.org/2000/svg" xmlns:xlink="http://www.w3.org/1999/xlink" viewBox="0 0 30 30" width="30px" height="30px">
<g id="surface32382294">
<path style=" stroke:none;fill-rule:nonzero;fill:rgb(100%,100%,100%);fill-opacity:1;" d="M 5 4 C 3.355469 4 2 5.355469 2 7 L 2 23 C 2 24.65625 3.34375 26 5 26 L 25 26 C 26.65625 26 28 24.65625 28 23 L 28 7 C 28 5.355469 26.644531 4 25 4 Z M 5 6 L 25 6 C 25.566406 6 26 6.433594 26 7 L 26 8.1875 C 25.683594 8.074219 25.351562 8 25 8 L 5 8 C 4.648438 8 4.316406 8.074219 4 8.1875 L 4 7 C 4 6.433594 4.433594 6 5 6 Z M 5 10 L 25 10 C 25.566406 10 26 10.433594 26 11 L 26 12.1875 C 25.683594 12.074219 25.351562 12 25 12 L 5 12 C 4.648438 12 4.316406 12.074219 4 12.1875 L 4 11 C 4 10.433594 4.433594 10 5 10 Z M 5 14 L 25 14 C 25.566406 14 26 14.433594 26 15 L 26 16 L 21 16 C 19.773438 16 18.652344 16.691406 18.105469 17.789062 L 17.894531 18.210938 C 17.34375 19.308594 16.226562 20 15 20 C 13.773438 20 12.652344 19.308594 12.105469 18.210938 L 11.894531 17.789062 C 11.34375 16.691406 10.226562 16 9 16 L 4 16 L 4 15 C 4 14.433594 4.433594 14 5 14 Z M 5 14 "/>
</g>
</svg>
