<?xml version="1.0" encoding="UTF-8"?>
<svg xmlns="http://www.w3.org/2000/svg" xmlns:xlink="http://www.w3.org/1999/xlink" viewBox="0 0 30 30" width="30px" height="30px">
<g id="surface31440316">
<path style=" stroke:none;fill-rule:nonzero;fill:rgb(100%,100%,100%);fill-opacity:1;" d="M 12 3 C 11.917969 3 11.835938 3.007812 11.757812 3.03125 L 3.757812 5.03125 C 3.3125 5.140625 3 5.539062 3 6 L 3 10 C 3 10.550781 3.449219 11 4 11 L 7 11 L 7 26 C 7 26.550781 7.449219 27 8 27 L 22 27 C 22.550781 27 23 26.550781 23 26 L 23 11 L 26 11 C 26.550781 11 27 10.550781 27 10 L 27 6 C 27 5.539062 26.6875 5.140625 26.242188 5.03125 L 18.242188 3.03125 C 18.164062 3.007812 18.082031 3 18 3 Z M 12.160156 5 L 17.835938 5 C 17.574219 6.183594 16.871094 8 15 8 C 13.128906 8 12.425781 6.183594 12.160156 5 Z M 12.160156 5 "/>
</g>
</svg>
