<?xml version="1.0" encoding="UTF-8"?>
<svg xmlns="http://www.w3.org/2000/svg" xmlns:xlink="http://www.w3.org/1999/xlink" viewBox="0 0 30 30" width="30px" height="30px">
<g id="surface32524037">
<path style=" stroke:none;fill-rule:nonzero;fill:rgb(100%,100%,100%);fill-opacity:1;" d="M 15 2 C 14.75 2 14.507812 2.097656 14.324219 2.265625 C 14.316406 2.273438 14.308594 2.277344 14.300781 2.285156 L 3.394531 11.207031 C 3.378906 11.214844 3.367188 11.226562 3.355469 11.234375 L 3.320312 11.265625 L 3.320312 11.269531 C 3.117188 11.457031 3 11.722656 3 12 C 3 12.550781 3.449219 13 4 13 L 5 13 L 5 24 C 5 25.105469 5.894531 26 7 26 L 23 26 C 24.105469 26 25 25.105469 25 24 L 25 13 L 26 13 C 26.550781 13 27 12.550781 27 12 C 27 11.722656 26.882812 11.457031 26.683594 11.269531 C 26.683594 11.269531 26.683594 11.269531 26.683594 11.265625 L 26.667969 11.253906 C 26.644531 11.234375 26.621094 11.21875 26.597656 11.199219 L 25 9.890625 L 25 6 C 25 5.449219 24.550781 5 24 5 L 23 5 C 22.449219 5 22 5.449219 22 6 L 22 7.4375 L 15.691406 2.277344 L 15.679688 2.265625 C 15.492188 2.097656 15.25 2 15 2 Z M 14 10.5 L 16 10.5 L 16 12.113281 C 17.351562 12.417969 18.253906 13.335938 18.296875 14.578125 L 16.613281 14.578125 C 16.527344 13.902344 15.898438 13.453125 15.035156 13.453125 C 14.136719 13.453125 13.546875 13.867188 13.546875 14.519531 C 13.546875 15.050781 13.953125 15.351562 14.957031 15.566406 L 15.988281 15.785156 C 17.710938 16.148438 18.449219 16.890625 18.449219 18.21875 C 18.449219 19.648438 17.53125 20.609375 16 20.898438 L 16 22.5 L 14 22.5 L 14 20.902344 C 12.527344 20.625 11.605469 19.722656 11.550781 18.402344 L 13.28125 18.402344 C 13.363281 19.097656 14.066406 19.542969 15.074219 19.542969 C 16.003906 19.542969 16.664062 19.089844 16.664062 18.445312 C 16.664062 17.898438 16.238281 17.582031 15.1875 17.359375 L 14.074219 17.121094 C 12.511719 16.792969 11.746094 15.980469 11.746094 14.675781 C 11.746094 13.363281 12.613281 12.425781 14 12.121094 Z M 14 10.5 "/>
</g>
</svg>
