<?xml version="1.0" encoding="UTF-8"?>
<svg xmlns="http://www.w3.org/2000/svg" xmlns:xlink="http://www.w3.org/1999/xlink" viewBox="0 0 30 30" width="30px" height="30px">
<g id="surface32522901">
<path style=" stroke:none;fill-rule:nonzero;fill:rgb(100%,100%,100%);fill-opacity:1;" d="M 5 6 C 3.894531 6 3 6.894531 3 8 L 3 20 C 3 21.105469 3.894531 22 5 22 L 25 22 C 26.105469 22 27 21.105469 27 20 L 27 8 C 27 6.894531 26.105469 6 25 6 Z M 13 10 C 13.203125 10 13.382812 10.078125 13.542969 10.183594 L 18.546875 13.183594 C 18.8125 13.367188 19 13.652344 19 14 C 19 14.347656 18.8125 14.632812 18.546875 14.8125 L 13.542969 17.816406 C 13.382812 17.921875 13.203125 18 13 18 C 12.449219 18 12 17.550781 12 17 L 12 11 C 12 10.449219 12.449219 10 13 10 Z M 10 24 C 9.640625 23.996094 9.304688 24.183594 9.121094 24.496094 C 8.941406 24.808594 8.941406 25.191406 9.121094 25.503906 C 9.304688 25.816406 9.640625 26.003906 10 26 L 20 26 C 20.359375 26.003906 20.695312 25.816406 20.878906 25.503906 C 21.058594 25.191406 21.058594 24.808594 20.878906 24.496094 C 20.695312 24.183594 20.359375 23.996094 20 24 Z M 10 24 "/>
</g>
</svg>
