<?xml version="1.0" encoding="UTF-8"?>
<svg xmlns="http://www.w3.org/2000/svg" xmlns:xlink="http://www.w3.org/1999/xlink" viewBox="0 0 30 30" width="30px" height="30px">
<g id="surface39428845">
<path style=" stroke:none;fill-rule:nonzero;fill:rgb(100%,100%,100%);fill-opacity:1;" d="M 26 5 L 4 5 C 2.894531 5 2 5.894531 2 7 L 2 23 C 2 24.105469 2.894531 25 4 25 L 26 25 C 27.105469 25 28 24.105469 28 23 L 28 7 C 28 5.894531 27.105469 5 26 5 Z M 6 21 C 4.894531 21 4 20.105469 4 19 C 4 17.894531 4.894531 17 6 17 C 7.105469 17 8 17.894531 8 19 C 8 20.105469 7.105469 21 6 21 Z M 6 13 C 4.894531 13 4 12.105469 4 11 C 4 9.894531 4.894531 9 6 9 C 7.105469 9 8 9.894531 8 11 C 8 12.105469 7.105469 13 6 13 Z M 12 21 C 10.894531 21 10 20.105469 10 19 C 10 17.894531 10.894531 17 12 17 C 13.105469 17 14 17.894531 14 19 C 14 20.105469 13.105469 21 12 21 Z M 12 13 C 10.894531 13 10 12.105469 10 11 C 10 9.894531 10.894531 9 12 9 C 13.105469 9 14 9.894531 14 11 C 14 12.105469 13.105469 13 12 13 Z M 18 21 C 16.894531 21 16 20.105469 16 19 C 16 17.894531 16.894531 17 18 17 C 19.105469 17 20 17.894531 20 19 C 20 20.105469 19.105469 21 18 21 Z M 18 13 C 16.894531 13 16 12.105469 16 11 C 16 9.894531 16.894531 9 18 9 C 19.105469 9 20 9.894531 20 11 C 20 12.105469 19.105469 13 18 13 Z M 24 21 C 22.894531 21 22 20.105469 22 19 C 22 17.894531 22.894531 17 24 17 C 25.105469 17 26 17.894531 26 19 C 26 20.105469 25.105469 21 24 21 Z M 24 13 C 22.894531 13 22 12.105469 22 11 C 22 9.894531 22.894531 9 24 9 C 25.105469 9 26 9.894531 26 11 C 26 12.105469 25.105469 13 24 13 Z M 24 13 "/>
</g>
</svg>
