<?xml version="1.0" encoding="UTF-8"?>
<svg xmlns="http://www.w3.org/2000/svg" xmlns:xlink="http://www.w3.org/1999/xlink" viewBox="0 0 30 30" width="30px" height="30px">
<g id="surface34827724">
<path style=" stroke:none;fill-rule:nonzero;fill:rgb(100%,100%,100%);fill-opacity:1;" d="M 4 3 C 3.871094 3 3.742188 3.011719 3.613281 3.039062 C 3.601562 3.042969 3.59375 3.042969 3.582031 3.046875 C 2.660156 3.242188 2 4.058594 2 5 L 2 17 C 2 17.128906 2.011719 17.257812 2.039062 17.386719 C 2.042969 17.398438 2.042969 17.40625 2.046875 17.417969 C 2.242188 18.339844 3.058594 19 4 19 L 26 19 C 26.128906 19 26.257812 18.988281 26.386719 18.960938 C 26.398438 18.957031 26.40625 18.957031 26.417969 18.953125 C 27.339844 18.757812 28 17.941406 28 17 L 28 5 C 28 4.871094 27.988281 4.742188 27.960938 4.613281 C 27.957031 4.601562 27.957031 4.59375 27.953125 4.582031 C 27.757812 3.660156 26.941406 3 26 3 Z M 6 5 L 24 5 C 24 6.105469 24.894531 7 26 7 L 26 15 C 24.894531 15 24 15.894531 24 17 L 6 17 C 6 15.894531 5.105469 15 4 15 L 4 7 C 5.105469 7 6 6.105469 6 5 Z M 15 7 C 12.789062 7 11 9.015625 11 11.5 C 11 12.921875 11.597656 14.175781 12.515625 15 L 17.488281 15 C 18.402344 14.175781 19 12.921875 19 11.5 C 19 9.015625 17.210938 7 15 7 Z M 7 10 C 6.449219 10 6 10.449219 6 11 C 6 11.550781 6.449219 12 7 12 C 7.550781 12 8 11.550781 8 11 C 8 10.449219 7.550781 10 7 10 Z M 23 10 C 22.449219 10 22 10.449219 22 11 C 22 11.550781 22.449219 12 23 12 C 23.550781 12 24 11.550781 24 11 C 24 10.449219 23.550781 10 23 10 Z M 14 21 L 14 26 L 11 26 L 15 30 L 19 26 L 16 26 L 16 21 Z M 14 21 "/>
</g>
</svg>
