<?xml version="1.0" encoding="UTF-8"?>
<svg xmlns="http://www.w3.org/2000/svg" xmlns:xlink="http://www.w3.org/1999/xlink" viewBox="0 0 30 30" width="30px" height="30px">
<g id="surface32388580">
<path style=" stroke:none;fill-rule:nonzero;fill:rgb(100%,100%,100%);fill-opacity:1;" d="M 11.628906 3 L 10.832031 5.070312 C 19.148438 5.71875 24.28125 10.851562 24.929688 19.167969 L 27 18.371094 C 27 9.882812 20.117188 3 11.628906 3 Z M 10.074219 7.039062 L 3.089844 25.191406 C 2.679688 26.265625 3.734375 27.320312 4.808594 26.910156 L 22.960938 19.925781 C 22.574219 12.054688 17.945312 7.425781 10.074219 7.039062 Z M 12.5 10 C 13.328125 10 14 10.671875 14 11.5 C 14 12.328125 13.328125 13 12.5 13 C 11.671875 13 11 12.328125 11 11.5 C 11 10.671875 11.671875 10 12.5 10 Z M 17 15 C 18.105469 15 19 15.894531 19 17 C 19 18.105469 18.105469 19 17 19 C 15.894531 19 15 18.105469 15 17 C 15 15.894531 15.894531 15 17 15 Z M 9 18 C 10.105469 18 11 18.894531 11 20 C 11 21.105469 10.105469 22 9 22 C 7.894531 22 7 21.105469 7 20 C 7 18.894531 7.894531 18 9 18 Z M 9 18 "/>
</g>
</svg>
