<?xml version="1.0" encoding="UTF-8"?>
<svg xmlns="http://www.w3.org/2000/svg" xmlns:xlink="http://www.w3.org/1999/xlink" viewBox="0 0 30 30" width="30px" height="30px">
<g id="surface32516457">
<path style=" stroke:none;fill-rule:nonzero;fill:rgb(100%,100%,100%);fill-opacity:1;" d="M 15 0 C 13.355469 0 12 1.355469 12 3 L 8 3 C 6.355469 3 5 4.355469 5 6 L 5 24 C 5 25.644531 6.355469 27 8 27 L 22 27 C 23.644531 27 25 25.644531 25 24 L 25 6 C 25 4.355469 23.644531 3 22 3 L 18 3 C 18 1.355469 16.644531 0 15 0 Z M 15 2 C 15.5625 2 16 2.4375 16 3 C 16 3.5625 15.5625 4 15 4 C 14.4375 4 14 3.5625 14 3 C 14 2.4375 14.4375 2 15 2 Z M 8 5 L 12 5 L 12 6 C 12 6.550781 12.449219 7 13 7 L 17 7 C 17.550781 7 18 6.550781 18 6 L 18 5 L 22 5 C 22.566406 5 23 5.433594 23 6 L 23 24 C 23 24.566406 22.566406 25 22 25 L 8 25 C 7.433594 25 7 24.566406 7 24 L 7 6 C 7 5.433594 7.433594 5 8 5 Z M 14.984375 10.984375 C 14.433594 10.996094 13.992188 11.449219 14 12 L 14 14.269531 L 12.035156 13.136719 C 11.863281 13.03125 11.664062 12.980469 11.460938 12.996094 C 11.019531 13.023438 10.644531 13.335938 10.546875 13.769531 C 10.449219 14.203125 10.648438 14.648438 11.035156 14.863281 L 13 16 L 11.035156 17.132812 C 10.710938 17.304688 10.503906 17.640625 10.5 18.007812 C 10.496094 18.375 10.691406 18.714844 11.011719 18.894531 C 11.332031 19.070312 11.726562 19.0625 12.035156 18.863281 L 14 17.730469 L 14 20 C 13.996094 20.359375 14.183594 20.695312 14.496094 20.878906 C 14.808594 21.058594 15.191406 21.058594 15.503906 20.878906 C 15.816406 20.695312 16.003906 20.359375 16 20 L 16 17.730469 L 17.964844 18.863281 C 18.273438 19.0625 18.667969 19.070312 18.988281 18.894531 C 19.308594 18.714844 19.503906 18.375 19.5 18.007812 C 19.496094 17.640625 19.289062 17.304688 18.964844 17.132812 L 17 16 L 18.964844 14.863281 C 19.355469 14.644531 19.550781 14.191406 19.445312 13.757812 C 19.339844 13.320312 18.957031 13.007812 18.507812 12.996094 C 18.316406 12.988281 18.128906 13.035156 17.964844 13.136719 L 16 14.269531 L 16 12 C 16.003906 11.730469 15.898438 11.46875 15.707031 11.277344 C 15.515625 11.085938 15.253906 10.980469 14.984375 10.984375 Z M 14.984375 10.984375 "/>
</g>
</svg>
