<?xml version="1.0" encoding="UTF-8"?>
<svg xmlns="http://www.w3.org/2000/svg" xmlns:xlink="http://www.w3.org/1999/xlink" viewBox="0 0 30 30" width="30px" height="30px">
<g id="surface34828505">
<path style=" stroke:none;fill-rule:nonzero;fill:rgb(100%,100%,100%);fill-opacity:1;" d="M 19 3 C 14.589844 3 11 6.589844 11 11 C 11 12.113281 11.230469 13.167969 11.640625 14.132812 L 15.378906 15.765625 C 14.75 15.285156 14.210938 14.6875 13.8125 14 L 15.269531 14 C 15.402344 14.695312 15.585938 15.351562 15.808594 15.953125 L 18.765625 17.238281 C 18.78125 17.25 18.796875 17.253906 18.8125 17.265625 C 19.582031 17.574219 20.183594 18.148438 20.5625 18.847656 C 24.230469 18.117188 27 14.875 27 11 C 27 6.589844 23.410156 3 19 3 Z M 19 5 C 19.488281 5 20.246094 6.105469 20.675781 8 L 17.328125 8 C 17.753906 6.105469 18.511719 5 19 5 Z M 15.859375 5.898438 C 15.609375 6.539062 15.414062 7.246094 15.269531 8 L 13.8125 8 C 14.308594 7.140625 15.015625 6.417969 15.859375 5.898438 Z M 22.140625 5.898438 C 22.984375 6.417969 23.691406 7.140625 24.1875 8 L 22.730469 8 C 22.585938 7.246094 22.390625 6.539062 22.140625 5.898438 Z M 13.089844 10 L 15.03125 10 C 15.011719 10.332031 15 10.664062 15 11 C 15 11.335938 15.011719 11.667969 15.03125 12 L 13.089844 12 C 13.035156 11.675781 13 11.339844 13 11 C 13 10.660156 13.035156 10.324219 13.089844 10 Z M 17.042969 10 L 20.957031 10 C 20.976562 10.324219 21 10.648438 21 11 C 21 11.351562 20.976562 11.675781 20.957031 12 L 17.042969 12 C 17.023438 11.675781 17 11.351562 17 11 C 17 10.648438 17.023438 10.324219 17.042969 10 Z M 22.964844 10 L 24.910156 10 C 24.964844 10.324219 25 10.660156 25 11 C 25 11.339844 24.964844 11.675781 24.910156 12 L 22.96875 12 C 22.988281 11.667969 23 11.335938 23 11 C 23 10.664062 22.988281 10.332031 22.964844 10 Z M 17.324219 14 L 20.671875 14 C 20.246094 15.894531 19.488281 17 19 17 C 18.511719 17 17.753906 15.894531 17.324219 14 Z M 22.730469 14 L 24.1875 14 C 23.6875 14.859375 22.984375 15.582031 22.140625 16.101562 C 22.390625 15.460938 22.585938 14.753906 22.730469 14 Z M 8 15 C 7.617188 15 7.242188 15.074219 6.886719 15.214844 C 6.886719 15.214844 6.882812 15.214844 6.882812 15.21875 L 2 17 L 2 25 L 6.222656 23.167969 C 6.71875 22.949219 7.28125 22.941406 7.785156 23.148438 L 16.851562 26.851562 C 16.851562 26.851562 16.851562 26.851562 16.855469 26.851562 C 17.054688 26.949219 17.277344 27 17.5 27 C 17.757812 27 18.011719 26.929688 18.238281 26.800781 C 18.238281 26.800781 18.242188 26.804688 18.246094 26.800781 L 27.230469 21.8125 L 27.230469 21.808594 C 27.703125 21.542969 28 21.042969 28 20.5 C 28 19.671875 27.328125 19 26.5 19 C 26.28125 19 26.0625 19.050781 25.863281 19.144531 L 25.863281 19.140625 L 19 22 L 17.5 22 C 18.328125 22 19 21.328125 19 20.5 C 19 19.851562 18.582031 19.277344 17.964844 19.074219 L 17.964844 19.070312 L 9.269531 15.28125 L 9.257812 15.28125 C 8.863281 15.097656 8.433594 15 8 15 Z M 8 15 "/>
</g>
</svg>
