<?xml version="1.0" encoding="UTF-8"?>
<svg xmlns="http://www.w3.org/2000/svg" xmlns:xlink="http://www.w3.org/1999/xlink" viewBox="0 0 30 30" width="30px" height="30px">
<g id="surface32141221">
<path style=" stroke:none;fill-rule:nonzero;fill:rgb(100%,100%,100%);fill-opacity:1;" d="M 12.984375 2.984375 C 12.433594 2.996094 11.992188 3.449219 12 4 L 8.730469 4 C 8.371094 3.382812 7.714844 3 7 3 C 5.894531 3 5 3.894531 5 5 C 5 6.105469 5.894531 7 7 7 C 7.714844 7 8.375 6.617188 8.730469 6 L 12 6 L 12 9.132812 C 11.394531 9.289062 10.832031 9.585938 10.359375 10 L 4 10 L 4 16 L 10.359375 16 C 11.089844 16.644531 12.027344 17 13 17 C 13.972656 17 14.910156 16.644531 15.640625 16 L 18 16 C 19.105469 16 20 16.894531 20 18 L 20 21 L 26 21 L 26 18 C 26 13.582031 22.417969 10 18 10 L 15.640625 10 C 15.167969 9.585938 14.605469 9.289062 14 9.132812 L 14 6 L 17.273438 6 C 17.628906 6.617188 18.285156 7 19 7 C 20.105469 7 21 6.105469 21 5 C 21 3.894531 20.105469 3 19 3 C 18.285156 3 17.625 3.382812 17.269531 4 L 14 4 C 14.003906 3.730469 13.898438 3.46875 13.707031 3.277344 C 13.515625 3.085938 13.253906 2.980469 12.984375 2.984375 Z M 23 23 C 23 23 21 25.894531 21 27 C 21 28.105469 21.894531 29 23 29 C 24.105469 29 25 28.105469 25 27 C 25 25.894531 23 23 23 23 Z M 23 23 "/>
</g>
</svg>
