<?xml version="1.0" encoding="UTF-8"?>
<svg xmlns="http://www.w3.org/2000/svg" xmlns:xlink="http://www.w3.org/1999/xlink" viewBox="0 0 30 30" width="30px" height="30px">
<g id="surface31524865">
<path style=" stroke:none;fill-rule:nonzero;fill:rgb(100%,100%,100%);fill-opacity:1;" d="M 15 1 C 13.894531 1 13 1.894531 13 3 L 13 5 C 13 3.894531 12.105469 3 11 3 C 9.894531 3 9 3.894531 9 5 L 9 5.277344 C 8.703125 5.105469 8.367188 5 8 5 C 6.894531 5 6 5.894531 6 7 L 6 8 L 4 8 C 3.871094 8 3.742188 8.011719 3.613281 8.039062 C 3.601562 8.042969 3.59375 8.042969 3.582031 8.046875 C 2.660156 8.242188 2 9.058594 2 10 L 2 21 C 2 22.09375 2.90625 23 4 23 L 6 23 C 6 26.3125 8.6875 29 12 29 L 15.683594 29 C 17.808594 29 19.84375 28.15625 21.34375 26.65625 L 24.5 23.5 L 28.996094 21.488281 C 28.988281 19.578125 27.496094 19 26 19 C 24.710938 19 23.550781 19.199219 21 20.5 L 20 21 L 4 21 L 4 12 C 5.105469 12 6 11.105469 6 10 L 24 10 C 24 11.105469 24.894531 12 26 12 L 26 17 L 28 17 L 28 10 C 28 9.871094 27.988281 9.742188 27.960938 9.613281 C 27.957031 9.601562 27.957031 9.59375 27.953125 9.582031 C 27.757812 8.660156 26.941406 8 26 8 L 21 8 L 21 4 C 21 2.894531 20.105469 2 19 2 C 17.894531 2 17 2.894531 17 4 L 17 3 C 17 1.894531 16.105469 1 15 1 Z M 29 21.484375 C 29 21.492188 29 21.496094 29 21.5 Z M 15 12 C 12.789062 12 11 14.015625 11 16.5 C 11 17.4375 11.277344 18.285156 11.71875 19 L 18.285156 19 C 18.722656 18.285156 19 17.4375 19 16.5 C 19 14.015625 17.210938 12 15 12 Z M 7 15 C 6.449219 15 6 15.449219 6 16 C 6 16.550781 6.449219 17 7 17 C 7.550781 17 8 16.550781 8 16 C 8 15.449219 7.550781 15 7 15 Z M 23 15 C 22.449219 15 22 15.449219 22 16 C 22 16.550781 22.449219 17 23 17 C 23.550781 17 24 16.550781 24 16 C 24 15.449219 23.550781 15 23 15 Z M 23 15 "/>
</g>
</svg>
