<?xml version="1.0" encoding="UTF-8"?>
<svg xmlns="http://www.w3.org/2000/svg" xmlns:xlink="http://www.w3.org/1999/xlink" viewBox="0 0 30 30" width="30px" height="30px">
<g id="surface32524583">
<path style=" stroke:none;fill-rule:nonzero;fill:rgb(100%,100%,100%);fill-opacity:1;" d="M 15 3 C 14.832031 3 14.667969 3.042969 14.519531 3.125 L 3.523438 9.125 C 3.191406 9.285156 2.972656 9.613281 2.960938 9.984375 C 2.945312 10.351562 3.132812 10.695312 3.453125 10.882812 C 3.769531 11.070312 4.164062 11.066406 4.476562 10.878906 L 5 10.59375 L 5 20 L 4.5 20 C 4.140625 19.996094 3.804688 20.183594 3.621094 20.496094 C 3.441406 20.808594 3.441406 21.191406 3.621094 21.503906 C 3.804688 21.816406 4.140625 22.003906 4.5 22 L 25.5 22 C 25.859375 22.003906 26.195312 21.816406 26.378906 21.503906 C 26.558594 21.191406 26.558594 20.808594 26.378906 20.496094 C 26.195312 20.183594 25.859375 19.996094 25.5 20 L 25 20 L 25 10.59375 L 25.519531 10.878906 C 25.835938 11.066406 26.230469 11.070312 26.546875 10.882812 C 26.867188 10.695312 27.054688 10.351562 27.039062 9.984375 C 27.027344 9.613281 26.808594 9.285156 26.476562 9.125 L 15.476562 3.125 C 15.332031 3.042969 15.167969 3 15 3 Z M 14 8 L 16 8 L 16 9.617188 C 17.351562 9.917969 18.253906 10.835938 18.296875 12.082031 L 16.613281 12.082031 C 16.527344 11.402344 15.898438 10.953125 15.035156 10.953125 C 14.136719 10.953125 13.546875 11.367188 13.546875 12.023438 C 13.546875 12.550781 13.953125 12.851562 14.957031 13.066406 L 15.988281 13.285156 C 17.710938 13.648438 18.449219 14.390625 18.449219 15.71875 C 18.449219 17.148438 17.53125 18.109375 16 18.398438 L 16 20 L 14 20 L 14 18.402344 C 12.527344 18.125 11.605469 17.222656 11.550781 15.902344 L 13.28125 15.902344 C 13.363281 16.597656 14.066406 17.042969 15.074219 17.042969 C 16.003906 17.042969 16.664062 16.589844 16.664062 15.945312 C 16.664062 15.398438 16.238281 15.082031 15.1875 14.859375 L 14.074219 14.621094 C 12.511719 14.292969 11.746094 13.480469 11.746094 12.175781 C 11.746094 10.863281 12.613281 9.925781 14 9.621094 Z M 2.5 24 C 2.140625 23.996094 1.804688 24.183594 1.621094 24.496094 C 1.441406 24.808594 1.441406 25.191406 1.621094 25.503906 C 1.804688 25.816406 2.140625 26.003906 2.5 26 L 27.5 26 C 27.859375 26.003906 28.195312 25.816406 28.378906 25.503906 C 28.558594 25.191406 28.558594 24.808594 28.378906 24.496094 C 28.195312 24.183594 27.859375 23.996094 27.5 24 Z M 2.5 24 "/>
</g>
</svg>
