<?xml version="1.0" encoding="UTF-8"?>
<svg xmlns="http://www.w3.org/2000/svg" xmlns:xlink="http://www.w3.org/1999/xlink" viewBox="0 0 30 30" width="30px" height="30px">
<g id="surface34826498">
<path style=" stroke:none;fill-rule:nonzero;fill:rgb(100%,100%,100%);fill-opacity:1;" d="M 26 5 L 4 5 C 2.894531 5 2 5.894531 2 7 L 2 23 C 2 24.105469 2.894531 25 4 25 L 26 25 C 27.105469 25 28 24.105469 28 23 L 28 7 C 28 5.894531 27.105469 5 26 5 Z M 4 23 L 4 19 L 8 23 Z M 4 11 L 4 7 L 8 7 Z M 16 18.597656 L 16 20 L 14 20 L 14 18.605469 C 12.800781 18.347656 12.070312 17.601562 12.046875 16.515625 L 13.757812 16.515625 C 13.800781 17.03125 14.3125 17.355469 15.054688 17.355469 C 15.726562 17.355469 16.183594 17.035156 16.183594 16.570312 C 16.183594 16.179688 15.875 15.96875 15.070312 15.808594 L 14.144531 15.621094 C 12.855469 15.378906 12.191406 14.675781 12.191406 13.566406 C 12.191406 12.484375 12.878906 11.699219 14 11.414062 L 14 10 L 16 10 L 16 11.417969 C 17.089844 11.707031 17.792969 12.46875 17.816406 13.484375 L 16.160156 13.484375 C 16.121094 12.984375 15.648438 12.640625 15.015625 12.640625 C 14.386719 12.640625 13.972656 12.9375 13.972656 13.40625 C 13.972656 13.792969 14.285156 14.015625 15.027344 14.164062 L 15.933594 14.339844 C 17.328125 14.609375 17.953125 15.238281 17.953125 16.355469 C 17.953125 17.527344 17.226562 18.320312 16 18.597656 Z M 21 17 C 20.449219 17 20 16.550781 20 16 C 20 15.449219 20.449219 15 21 15 C 21.550781 15 22 15.449219 22 16 C 22 16.550781 21.550781 17 21 17 Z M 25 17 C 24.449219 17 24 16.550781 24 16 C 24 15.449219 24.449219 15 25 15 C 25.550781 15 26 15.449219 26 16 C 26 16.550781 25.550781 17 25 17 Z M 5 17 C 4.449219 17 4 16.550781 4 16 C 4 15.449219 4.449219 15 5 15 C 5.550781 15 6 15.449219 6 16 C 6 16.550781 5.550781 17 5 17 Z M 9 17 C 8.449219 17 8 16.550781 8 16 C 8 15.449219 8.449219 15 9 15 C 9.550781 15 10 15.449219 10 16 C 10 16.550781 9.550781 17 9 17 Z M 26 23 L 22 23 L 26 19 Z M 26 11 L 22 7 L 26 7 Z M 26 11 "/>
</g>
</svg>
