<?xml version="1.0" encoding="UTF-8"?>
<svg xmlns="http://www.w3.org/2000/svg" xmlns:xlink="http://www.w3.org/1999/xlink" viewBox="0 0 30 30" width="30px" height="30px">
<g id="surface32748794">
<path style=" stroke:none;fill-rule:nonzero;fill:rgb(100%,100%,100%);fill-opacity:1;" d="M 15 2 C 13.34375 2 12 3.34375 12 5 C 12 6.65625 13.34375 8 15 8 C 16.65625 8 18 6.65625 18 5 C 18 3.34375 16.65625 2 15 2 Z M 15 10 C 14.949219 10 14.898438 10.007812 14.847656 10.015625 C 14.578125 10.03125 14.316406 10.082031 14.070312 10.160156 C 12.292969 10.550781 10.882812 11.996094 10.675781 13.871094 L 10.214844 18 L 7 18 L 7 15 C 7 14.449219 6.550781 14 6 14 C 5.449219 14 5 14.449219 5 15 L 4 15 C 3.449219 15 3 15.449219 3 16 L 3 18 L 2 18 C 1.640625 17.996094 1.304688 18.183594 1.121094 18.496094 C 0.941406 18.808594 0.941406 19.191406 1.121094 19.503906 C 1.304688 19.816406 1.640625 20.003906 2 20 L 3 20 L 3 22 C 3 22.550781 3.449219 23 4 23 L 5 23 C 5 23.550781 5.449219 24 6 24 C 6.550781 24 7 23.550781 7 23 L 7 20 L 10 20 C 10 20.421875 10.261719 20.796875 10.65625 20.941406 C 11.050781 21.085938 11.496094 20.964844 11.765625 20.644531 L 11 25.964844 C 11 26.535156 11.464844 27 12.035156 27 C 12.578125 27 13.027344 26.578125 13.066406 26.035156 L 14.503906 20.464844 C 14.519531 20.203125 14.738281 20 15 20 C 15.261719 20 15.480469 20.203125 15.5 20.464844 L 16.9375 26.035156 C 16.972656 26.578125 17.421875 27 17.96875 27 C 18.535156 27 19 26.535156 19 25.964844 L 18.234375 20.640625 C 18.503906 20.964844 18.945312 21.082031 19.339844 20.9375 C 19.738281 20.792969 20 20.421875 20 20 L 23 20 L 23 23 C 23 23.550781 23.449219 24 24 24 C 24.550781 24 25 23.550781 25 23 L 26 23 C 26.550781 23 27 22.550781 27 22 L 27 20 L 28 20 C 28.359375 20.003906 28.695312 19.816406 28.878906 19.503906 C 29.058594 19.191406 29.058594 18.808594 28.878906 18.496094 C 28.695312 18.183594 28.359375 17.996094 28 18 L 27 18 L 27 16 C 27 15.449219 26.550781 15 26 15 L 25 15 C 25 14.449219 24.550781 14 24 14 C 23.449219 14 23 14.449219 23 15 L 23 18 L 19.785156 18 L 19.324219 13.871094 C 19.117188 11.996094 17.707031 10.550781 15.929688 10.160156 C 15.683594 10.082031 15.425781 10.03125 15.15625 10.015625 C 15.105469 10.007812 15.050781 10 15 10 Z M 15 10 "/>
</g>
</svg>
