<?xml version="1.0" encoding="UTF-8"?>
<svg xmlns="http://www.w3.org/2000/svg" xmlns:xlink="http://www.w3.org/1999/xlink" viewBox="0 0 30 30" width="30px" height="30px">
<g id="surface32546874">
<path style=" stroke:none;fill-rule:nonzero;fill:rgb(100%,100%,100%);fill-opacity:1;" d="M 15 4 C 8.382812 4 3 9.382812 3 16 L 3 21 C 2.996094 21.359375 3.183594 21.695312 3.496094 21.878906 C 3.808594 22.058594 4.191406 22.058594 4.503906 21.878906 C 4.816406 21.695312 5.003906 21.359375 5 21 L 5 16 C 5 10.464844 9.464844 6 15 6 C 20.535156 6 25 10.464844 25 16 L 25 21 C 24.996094 21.359375 25.183594 21.695312 25.496094 21.878906 C 25.808594 22.058594 26.191406 22.058594 26.503906 21.878906 C 26.816406 21.695312 27.003906 21.359375 27 21 L 27 16 C 27 9.382812 21.617188 4 15 4 Z M 8 17 C 7.449219 17 7 17.449219 7 18 L 7 25 C 7 25.550781 7.449219 26 8 26 L 9 26 C 10.105469 26 11 25.105469 11 24 L 11 19 C 11 17.894531 10.105469 17 9 17 Z M 21 17 C 19.894531 17 19 17.894531 19 19 L 19 24 C 19 25.105469 19.894531 26 21 26 L 22 26 C 22.550781 26 23 25.550781 23 25 L 23 18 C 23 17.449219 22.550781 17 22 17 Z M 21 17 "/>
</g>
</svg>
