<?xml version="1.0" encoding="UTF-8"?>
<svg xmlns="http://www.w3.org/2000/svg" xmlns:xlink="http://www.w3.org/1999/xlink" viewBox="0 0 30 30" width="30px" height="30px">
<g id="surface32622220">
<path style=" stroke:none;fill-rule:nonzero;fill:rgb(100%,100%,100%);fill-opacity:1;" d="M 6 4 C 4.894531 4 4 4.894531 4 6 L 4 24 C 4 25.105469 4.894531 26 6 26 L 24 26 C 25.105469 26 26 25.105469 26 24 L 26 6 C 26 4.894531 25.105469 4 24 4 Z M 10.933594 9 L 16.1875 9 C 18.765625 9 20.515625 10.679688 20.515625 13.257812 C 20.515625 15.8125 18.675781 17.484375 16.007812 17.484375 L 13.984375 17.484375 L 13.984375 21 L 10.933594 21 Z M 13.984375 11.347656 L 13.984375 15.179688 L 15.363281 15.179688 C 16.664062 15.179688 17.425781 14.511719 17.425781 13.265625 C 17.425781 12 16.671875 11.347656 15.382812 11.347656 Z M 13.984375 11.347656 "/>
</g>
</svg>
