<?xml version="1.0" encoding="UTF-8"?>
<svg xmlns="http://www.w3.org/2000/svg" xmlns:xlink="http://www.w3.org/1999/xlink" viewBox="0 0 30 30" width="30px" height="30px">
<g id="surface32426229">
<path style=" stroke:none;fill-rule:nonzero;fill:rgb(100%,100%,100%);fill-opacity:1;" d="M 2 2 C 1.628906 2 1.289062 2.089844 1 2.269531 C 0.398438 2.609375 0 3.25 0 4 L 0 26 C 0 26.738281 0.398438 27.390625 1 27.738281 C 1.289062 27.910156 1.628906 28 2 28 L 14 28 C 15.101562 28 16 27.101562 16 26 L 16 4 C 16 2.890625 15.101562 2 14 2 Z M 2 5 L 14 5 L 14 23 L 2 23 Z M 18 7 L 18 9 L 21.78125 9 C 22.199219 9.210938 22.539062 9.570312 22.699219 10.019531 L 23.761719 12.980469 C 23.917969 13.449219 23.527344 13.917969 23.03125 13.839844 C 21.660156 13.621094 19.988281 13.4375 18 13.367188 L 18 16 L 19 16 C 19.550781 16 20 16.449219 20 17 C 20 17.550781 19.550781 18 19 18 L 18 18 L 18 23.269531 C 21.058594 23.210938 24.3125 23.050781 24.3125 23.050781 L 24.3125 24.1875 C 24.3125 25.1875 25.128906 26 26.152344 26 C 27.171875 26 28 25.1875 28 24.1875 L 28 17.769531 C 28 16.53125 27.359375 15.398438 26.339844 14.738281 L 24.4375 9.417969 C 24.050781 8.300781 23.121094 7.46875 22 7.148438 C 21.671875 7.050781 21.320312 7 20.960938 7 Z M 7 8 L 7 9.410156 C 5.878906 9.699219 5.1875 10.480469 5.1875 11.570312 C 5.1875 12.359375 5.519531 12.9375 6.179688 13.289062 C 6.449219 13.4375 6.769531 13.550781 7.140625 13.621094 L 8.070312 13.8125 C 8.878906 13.96875 9.179688 14.179688 9.179688 14.570312 C 9.179688 14.800781 9.066406 14.996094 8.871094 15.136719 C 8.773438 15.207031 8.652344 15.261719 8.515625 15.300781 C 8.382812 15.339844 8.226562 15.359375 8.058594 15.359375 C 7.308594 15.359375 6.800781 15.03125 6.761719 14.519531 L 5.050781 14.519531 C 5.050781 14.738281 5.089844 14.960938 5.160156 15.152344 C 5.390625 15.890625 6.050781 16.398438 7 16.609375 L 7 18 L 9 18 L 9 16.597656 C 10.230469 16.320312 10.949219 15.53125 10.949219 14.359375 C 10.949219 14.078125 10.910156 13.820312 10.820312 13.597656 C 10.589844 12.941406 9.980469 12.539062 8.9375 12.339844 L 8.5 12.25 L 8.027344 12.160156 C 7.277344 12.019531 6.96875 11.789062 6.96875 11.410156 C 6.96875 10.941406 7.390625 10.640625 8.019531 10.640625 C 8.410156 10.640625 8.738281 10.78125 8.949219 11 C 9.070312 11.128906 9.140625 11.300781 9.160156 11.480469 L 10.808594 11.480469 C 10.804688 11.269531 10.769531 11.070312 10.710938 10.882812 C 10.53125 10.328125 10.113281 9.886719 9.519531 9.609375 C 9.359375 9.53125 9.191406 9.46875 9 9.417969 L 9 8 Z M 23.847656 16.949219 C 24.609375 16.949219 25.230469 17.5625 25.230469 18.3125 C 25.230469 19.0625 24.609375 19.671875 23.847656 19.671875 C 23.078125 19.671875 22.460938 19.0625 22.460938 18.3125 C 22.460938 17.5625 23.078125 16.949219 23.847656 16.949219 Z M 8 24 C 8.550781 24 9 24.449219 9 25 C 9 25.550781 8.550781 26 8 26 C 7.449219 26 7 25.550781 7 25 C 7 24.808594 7.058594 24.621094 7.152344 24.46875 C 7.160156 24.460938 7.171875 24.449219 7.171875 24.4375 C 7.21875 24.371094 7.269531 24.308594 7.332031 24.257812 C 7.511719 24.101562 7.738281 24 8 24 Z M 8 24 "/>
</g>
</svg>
