<?xml version="1.0" encoding="UTF-8"?>
<svg xmlns="http://www.w3.org/2000/svg" xmlns:xlink="http://www.w3.org/1999/xlink" viewBox="0 0 30 30" width="30px" height="30px">
<g id="surface32407473">
<path style=" stroke:none;fill-rule:nonzero;fill:rgb(100%,100%,100%);fill-opacity:1;" d="M 2 2 C 1.640625 1.996094 1.304688 2.183594 1.121094 2.496094 C 0.941406 2.808594 0.941406 3.191406 1.121094 3.503906 C 1.304688 3.816406 1.640625 4.003906 2 4 L 3.878906 4 C 4.105469 4 4.292969 4.140625 4.359375 4.359375 L 8.621094 18.847656 C 8.992188 20.121094 10.167969 21 11.496094 21 L 22.4375 21 C 23.808594 21 25.015625 20.058594 25.347656 18.730469 L 25.347656 18.726562 L 27.96875 8.242188 C 28.046875 7.945312 27.976562 7.625 27.789062 7.382812 C 27.597656 7.140625 27.308594 7 27 7 L 7.21875 7 L 6.277344 3.796875 C 6.277344 3.796875 6.277344 3.796875 6.273438 3.796875 C 5.964844 2.734375 4.984375 2 3.878906 2 Z M 17 9 C 17.550781 9 18 9.445312 18 10 L 18 13 L 21 13 C 21.550781 13 22 13.445312 22 14 C 22 14.554688 21.550781 15 21 15 L 18 15 L 18 18 C 18 18.554688 17.550781 19 17 19 C 16.449219 19 16 18.554688 16 18 L 16 15 L 13 15 C 12.449219 15 12 14.554688 12 14 C 12 13.445312 12.449219 13 13 13 L 16 13 L 16 10 C 16 9.445312 16.449219 9 17 9 Z M 12 23 C 10.894531 23 10 23.894531 10 25 C 10 26.105469 10.894531 27 12 27 C 13.105469 27 14 26.105469 14 25 C 14 23.894531 13.105469 23 12 23 Z M 22 23 C 20.894531 23 20 23.894531 20 25 C 20 26.105469 20.894531 27 22 27 C 23.105469 27 24 26.105469 24 25 C 24 23.894531 23.105469 23 22 23 Z M 22 23 "/>
</g>
</svg>
