<?xml version="1.0" encoding="UTF-8"?>
<svg xmlns="http://www.w3.org/2000/svg" xmlns:xlink="http://www.w3.org/1999/xlink" viewBox="0 0 30 30" width="30px" height="30px">
<g id="surface34003593">
<path style=" stroke:none;fill-rule:nonzero;fill:rgb(100%,100%,100%);fill-opacity:1;" d="M 17.273438 4 C 15.464844 4 14 5.464844 14 7.273438 C 14 10.410156 17.625 13.402344 19.335938 14.746094 C 19.351562 14.761719 19.371094 14.777344 19.390625 14.789062 C 19.390625 14.792969 19.394531 14.796875 19.398438 14.796875 C 19.570312 14.929688 19.78125 15 20 15 C 20.21875 15 20.429688 14.929688 20.601562 14.796875 C 20.605469 14.796875 20.609375 14.792969 20.617188 14.785156 C 20.617188 14.785156 20.621094 14.785156 20.621094 14.78125 C 20.625 14.78125 20.628906 14.777344 20.636719 14.769531 C 22.335938 13.4375 26 10.425781 26 7.273438 C 26 5.464844 24.535156 4 22.726562 4 C 21 4 20 5.5 20 5.5 C 20 5.5 19 4 17.273438 4 Z M 8 14 C 7.617188 14 7.238281 14.074219 6.882812 14.21875 L 2 16 L 2 24 L 6.222656 22.167969 C 6.71875 21.949219 7.28125 21.941406 7.785156 22.148438 L 16.851562 25.851562 C 16.851562 25.851562 16.851562 25.851562 16.855469 25.851562 C 17.054688 25.949219 17.277344 26 17.5 26 C 17.757812 26 18.011719 25.929688 18.238281 25.804688 C 18.238281 25.800781 18.242188 25.804688 18.246094 25.804688 L 27.230469 20.8125 L 27.230469 20.808594 C 27.703125 20.542969 28 20.042969 28 19.5 C 28 18.671875 27.328125 18 26.5 18 C 26.28125 18 26.0625 18.050781 25.863281 18.144531 L 25.863281 18.140625 L 19 21 L 17.5 21 C 18.328125 21 19 20.328125 19 19.5 C 19 18.851562 18.582031 18.277344 17.964844 18.074219 L 17.964844 18.070312 L 9.269531 14.28125 L 9.257812 14.28125 C 8.863281 14.097656 8.433594 14 8 14 Z M 8 14 "/>
</g>
</svg>
