<?xml version="1.0" encoding="UTF-8"?>
<svg xmlns="http://www.w3.org/2000/svg" xmlns:xlink="http://www.w3.org/1999/xlink" viewBox="0 0 30 30" width="30px" height="30px">
<g id="surface32376410">
<path style=" stroke:none;fill-rule:nonzero;fill:rgb(100%,100%,100%);fill-opacity:1;" d="M 3.988281 2.988281 C 3.582031 2.992188 3.21875 3.238281 3.0625 3.613281 C 2.910156 3.992188 3 4.421875 3.292969 4.707031 L 6.550781 7.964844 C 4.960938 9.875 4 12.328125 4 15 C 4 17.675781 4.96875 20.121094 6.558594 22.027344 L 3.292969 25.292969 C 3.03125 25.542969 2.925781 25.917969 3.019531 26.265625 C 3.109375 26.617188 3.382812 26.890625 3.734375 26.980469 C 4.082031 27.074219 4.457031 26.96875 4.707031 26.707031 L 7.976562 23.4375 C 9.765625 24.929688 12.03125 25.867188 14.515625 25.972656 C 14.285156 25.328125 14.125 24.652344 14.050781 23.949219 C 9.53125 23.472656 6 19.640625 6 15 C 6 10.035156 10.035156 6 15 6 C 19.640625 6 23.472656 9.53125 23.949219 14.050781 C 24.652344 14.125 25.328125 14.289062 25.976562 14.511719 C 25.867188 12.03125 24.929688 9.765625 23.441406 7.972656 L 26.707031 4.707031 C 27.003906 4.417969 27.089844 3.980469 26.929688 3.601562 C 26.769531 3.21875 26.394531 2.976562 25.980469 2.988281 C 25.71875 2.996094 25.472656 3.105469 25.292969 3.292969 L 22.027344 6.558594 C 20.121094 4.96875 17.675781 4 15 4 C 12.328125 4 9.875 4.960938 7.96875 6.550781 L 4.707031 3.292969 C 4.519531 3.097656 4.261719 2.992188 3.992188 2.988281 Z M 22.636719 16 C 22.511719 16 22.40625 16.09375 22.390625 16.222656 L 22.363281 16.476562 C 22.328125 16.804688 22.078125 17.066406 21.757812 17.132812 C 21.546875 17.175781 21.34375 17.230469 21.140625 17.296875 C 20.828125 17.398438 20.488281 17.296875 20.292969 17.03125 L 20.140625 16.824219 C 20.066406 16.722656 19.921875 16.695312 19.8125 16.757812 L 19.1875 17.121094 C 19.078125 17.183594 19.03125 17.320312 19.082031 17.4375 L 19.1875 17.675781 C 19.320312 17.980469 19.234375 18.324219 18.992188 18.546875 C 18.835938 18.6875 18.683594 18.835938 18.542969 18.996094 C 18.324219 19.238281 17.976562 19.320312 17.675781 19.1875 L 17.433594 19.082031 C 17.320312 19.03125 17.179688 19.078125 17.117188 19.1875 L 16.757812 19.8125 C 16.695312 19.925781 16.722656 20.066406 16.824219 20.140625 L 17.03125 20.292969 C 17.296875 20.488281 17.394531 20.828125 17.292969 21.140625 C 17.230469 21.34375 17.175781 21.546875 17.128906 21.757812 C 17.0625 22.078125 16.804688 22.328125 16.476562 22.363281 L 16.261719 22.390625 C 16.09375 22.40625 16 22.511719 16 22.636719 L 16 23.359375 C 16 23.488281 16.09375 23.597656 16.222656 23.609375 L 16.476562 23.636719 C 16.804688 23.671875 17.066406 23.921875 17.132812 24.242188 C 17.175781 24.453125 17.230469 24.65625 17.296875 24.859375 C 17.398438 25.171875 17.296875 25.511719 17.03125 25.707031 L 16.824219 25.859375 C 16.722656 25.933594 16.695312 26.074219 16.757812 26.1875 L 17.121094 26.8125 C 17.183594 26.921875 17.320312 26.96875 17.433594 26.917969 L 17.675781 26.808594 C 17.976562 26.679688 18.324219 26.761719 18.546875 27.003906 C 18.6875 27.164062 18.835938 27.3125 18.992188 27.453125 C 19.234375 27.675781 19.320312 28.019531 19.191406 28.324219 L 19.085938 28.5625 C 19.03125 28.679688 19.078125 28.816406 19.1875 28.878906 L 19.816406 29.238281 C 19.925781 29.304688 20.066406 29.277344 20.140625 29.171875 L 20.292969 28.964844 C 20.484375 28.703125 20.828125 28.601562 21.140625 28.703125 C 21.339844 28.769531 21.546875 28.824219 21.757812 28.867188 C 22.078125 28.933594 22.324219 29.195312 22.363281 29.519531 L 22.390625 29.777344 C 22.40625 29.90625 22.511719 30 22.640625 30 L 23.363281 30 C 23.488281 30 23.59375 29.90625 23.609375 29.777344 L 23.636719 29.519531 C 23.671875 29.195312 23.921875 28.933594 24.242188 28.867188 C 24.453125 28.824219 24.65625 28.769531 24.859375 28.703125 C 25.171875 28.601562 25.511719 28.703125 25.707031 28.964844 L 25.859375 29.171875 C 25.933594 29.277344 26.074219 29.304688 26.1875 29.238281 L 26.8125 28.878906 C 26.921875 28.816406 26.964844 28.679688 26.914062 28.5625 L 26.8125 28.324219 C 26.679688 28.019531 26.761719 27.675781 27.007812 27.453125 C 27.164062 27.3125 27.3125 27.164062 27.457031 27.003906 C 27.675781 26.761719 28.019531 26.679688 28.324219 26.808594 L 28.5625 26.917969 C 28.679688 26.96875 28.816406 26.921875 28.882812 26.8125 L 29.242188 26.1875 C 29.304688 26.074219 29.273438 25.933594 29.171875 25.859375 L 28.96875 25.707031 C 28.703125 25.511719 28.601562 25.171875 28.703125 24.859375 C 28.765625 24.65625 28.820312 24.453125 28.867188 24.242188 C 28.933594 23.921875 29.191406 23.671875 29.519531 23.636719 C 29.613281 23.625 29.699219 23.617188 29.777344 23.609375 C 29.90625 23.597656 30 23.488281 30 23.359375 L 30 22.636719 C 30 22.511719 29.90625 22.40625 29.777344 22.390625 L 29.523438 22.363281 C 29.195312 22.328125 28.933594 22.078125 28.867188 21.757812 C 28.824219 21.546875 28.769531 21.34375 28.703125 21.140625 C 28.601562 20.828125 28.703125 20.488281 28.96875 20.292969 L 29.175781 20.140625 C 29.277344 20.066406 29.304688 19.925781 29.242188 19.8125 L 28.882812 19.1875 C 28.816406 19.078125 28.679688 19.03125 28.5625 19.082031 L 28.324219 19.1875 C 28.019531 19.320312 27.675781 19.238281 27.457031 18.996094 C 27.3125 18.835938 27.164062 18.6875 27.007812 18.546875 C 26.761719 18.324219 26.679688 17.980469 26.8125 17.675781 L 26.914062 17.4375 C 26.964844 17.320312 26.921875 17.183594 26.8125 17.121094 L 26.1875 16.757812 C 26.074219 16.695312 25.933594 16.722656 25.859375 16.824219 L 25.707031 17.03125 C 25.511719 17.296875 25.167969 17.398438 24.855469 17.296875 C 24.65625 17.230469 24.449219 17.175781 24.242188 17.132812 C 23.917969 17.066406 23.671875 16.804688 23.636719 16.476562 L 23.609375 16.222656 C 23.597656 16.09375 23.488281 16 23.363281 16 Z M 23 19 C 25.210938 19 27 20.789062 27 23 C 27 25.210938 25.210938 27 23 27 C 20.789062 27 19 25.210938 19 23 C 19 20.789062 20.789062 19 23 19 Z M 23 22 C 22.449219 22 22 22.449219 22 23 C 22 23.550781 22.449219 24 23 24 C 23.550781 24 24 23.550781 24 23 C 24 22.449219 23.550781 22 23 22 Z M 23 22 "/>
</g>
</svg>
