<?xml version="1.0" encoding="UTF-8"?>
<svg xmlns="http://www.w3.org/2000/svg" xmlns:xlink="http://www.w3.org/1999/xlink" viewBox="0 0 30 30" width="30px" height="30px">
<g id="surface32514818">
<path style=" stroke:none;fill-rule:nonzero;fill:rgb(100%,100%,100%);fill-opacity:1;" d="M 4 5 C 2.894531 5 2 5.894531 2 7 L 2 23 C 2 24.105469 2.894531 25 4 25 L 26 25 C 27.105469 25 28 24.105469 28 23 L 28 7 C 28 5.894531 27.105469 5 26 5 Z M 9.5 8 C 9.636719 8 9.777344 8.027344 9.90625 8.085938 L 14.40625 10.085938 C 14.910156 10.3125 15.136719 10.902344 14.914062 11.40625 C 14.75 11.777344 14.382812 12 14 12 C 13.863281 12 13.726562 11.972656 13.59375 11.914062 L 9.5 10.097656 L 5.40625 11.914062 C 4.902344 12.140625 4.3125 11.910156 4.085938 11.40625 C 3.863281 10.902344 4.089844 10.308594 4.59375 10.085938 L 9.09375 8.085938 C 9.222656 8.027344 9.363281 8 9.5 8 Z M 19 12 L 24 12 C 24.554688 12 25 12.445312 25 13 C 25 13.554688 24.554688 14 24 14 L 19 14 C 18.445312 14 18 13.554688 18 13 C 18 12.445312 18.445312 12 19 12 Z M 7.28125 14 L 11.71875 14 C 12.179688 14 12.578125 14.3125 12.6875 14.757812 L 13 16 L 13.707031 16.707031 C 13.894531 16.894531 14 17.148438 14 17.414062 L 14 20.5 C 14 20.777344 13.777344 21 13.5 21 L 12.5 21 C 12.222656 21 12 20.777344 12 20.5 L 12 20 L 7 20 L 7 20.5 C 7 20.777344 6.777344 21 6.5 21 L 5.5 21 C 5.222656 21 5 20.777344 5 20.5 L 5 17.414062 C 5 17.148438 5.105469 16.894531 5.292969 16.707031 L 6 16 L 6.308594 14.757812 C 6.421875 14.3125 6.820312 14 7.28125 14 Z M 19 16 L 24 16 C 24.554688 16 25 16.445312 25 17 C 25 17.554688 24.554688 18 24 18 L 19 18 C 18.445312 18 18 17.554688 18 17 C 18 16.445312 18.445312 16 19 16 Z M 6 17 L 6 18 L 8 18 L 8 17 Z M 11 17 L 11 18 L 13 18 L 13 17 Z M 11 17 "/>
</g>
</svg>
