<?xml version="1.0" encoding="UTF-8"?>
<svg xmlns="http://www.w3.org/2000/svg" xmlns:xlink="http://www.w3.org/1999/xlink" viewBox="0 0 30 30" width="30px" height="30px">
<g id="surface32257963">
<path style=" stroke:none;fill-rule:nonzero;fill:rgb(100%,100%,100%);fill-opacity:1;" d="M 15 3 C 13.226562 3 11.636719 3.773438 10.535156 5 L 8 5 C 5.238281 5 3 7.238281 3 10 L 3 11 C 5.210938 11 7 12.789062 7 15 L 7 17 L 23 17 L 23 15 C 23 12.789062 24.789062 11 27 11 L 27 10 C 27 7.238281 24.761719 5 22 5 L 19.460938 5 C 18.363281 3.773438 16.773438 3 15 3 Z M 15 8 C 15.550781 8 16 8.449219 16 9 C 16 9.550781 15.550781 10 15 10 C 14.449219 10 14 9.550781 14 9 C 14 8.449219 14.449219 8 15 8 Z M 9 9 C 9.550781 9 10 9.449219 10 10 C 10 10.550781 9.550781 11 9 11 C 8.449219 11 8 10.550781 8 10 C 8 9.449219 8.449219 9 9 9 Z M 21 9 C 21.550781 9 22 9.449219 22 10 C 22 10.550781 21.550781 11 21 11 C 20.449219 11 20 10.550781 20 10 C 20 9.449219 20.449219 9 21 9 Z M 2 13 C 0.894531 13 0 13.894531 0 15 C 0 15.738281 0.40625 16.375 1 16.722656 L 1 25 C 0.996094 25.359375 1.183594 25.695312 1.496094 25.878906 C 1.808594 26.058594 2.191406 26.058594 2.503906 25.878906 C 2.816406 25.695312 3.003906 25.359375 3 25 L 3 24 L 27 24 L 27 25 C 26.996094 25.359375 27.183594 25.695312 27.496094 25.878906 C 27.808594 26.058594 28.191406 26.058594 28.503906 25.878906 C 28.816406 25.695312 29.003906 25.359375 29 25 L 29 16.722656 C 29.59375 16.375 30 15.738281 30 15 C 30 13.894531 29.105469 13 28 13 L 27 13 C 25.894531 13 25 13.894531 25 15 L 25 19 L 5 19 L 5 15 C 5 13.894531 4.105469 13 3 13 Z M 2 13 "/>
</g>
</svg>
