<?xml version="1.0" encoding="UTF-8"?>
<svg xmlns="http://www.w3.org/2000/svg" xmlns:xlink="http://www.w3.org/1999/xlink" viewBox="0 0 30 30" width="30px" height="30px">
<g id="surface31447361">
<path style=" stroke:none;fill-rule:nonzero;fill:rgb(100%,100%,100%);fill-opacity:1;" d="M 9 3 C 5.171875 3 2 6.132812 2 10 C 2 11.621094 2.535156 13.089844 3.503906 14.300781 C 4.472656 15.511719 6 18.449219 6 22 L 6 24.972656 C 6 26.09375 6.90625 27 8.027344 27 C 9.113281 27 10.050781 26.152344 10.050781 25.066406 C 10.050781 23.496094 10.230469 22.152344 10.527344 21 L 11 21 C 11.550781 21 12 20.550781 12 20 L 12 19 C 12 18.699219 11.863281 18.4375 11.652344 18.257812 C 12.460938 16.933594 13.472656 16.140625 14.425781 15.828125 C 16.480469 15.15625 19.703125 14 22 14 L 22 6 C 18 6 12.828125 3 9 3 Z M 27 5 C 26.917969 5 26.835938 5.011719 26.753906 5.03125 C 25.992188 5.183594 25.816406 6 24 6 L 24 14 C 25.816406 14 25.992188 14.816406 26.753906 14.96875 C 26.835938 14.988281 26.917969 15 27 15 C 27.550781 15 28 14.550781 28 14 L 28 6 C 28 5.449219 27.550781 5 27 5 Z M 9 7 C 10.65625 7 12 8.34375 12 10 C 12 11.65625 10.65625 13 9 13 C 7.34375 13 6 11.65625 6 10 C 6 8.34375 7.34375 7 9 7 Z M 9 7 "/>
</g>
</svg>
