<?xml version="1.0" encoding="UTF-8"?>
<svg xmlns="http://www.w3.org/2000/svg" xmlns:xlink="http://www.w3.org/1999/xlink" viewBox="0 0 30 30" width="30px" height="30px">
<g id="surface34007470">
<path style=" stroke:none;fill-rule:nonzero;fill:rgb(100%,100%,100%);fill-opacity:1;" d="M 15 3 C 11.132812 3 8 6.132812 8 10 C 8 13.523438 10.609375 16.433594 14 16.917969 L 14 26 C 13.996094 26.304688 14.132812 26.59375 14.367188 26.785156 C 14.601562 26.980469 14.910156 27.054688 15.210938 26.988281 C 15.210938 26.988281 15.210938 26.992188 15.214844 26.988281 C 16.34375 26.984375 19.144531 26.855469 22 24 C 25 21 25 17 25 17 C 25 17 21 17 18 20 C 17.0625 20.9375 16.441406 21.964844 16 22.941406 L 16 16.917969 C 19.390625 16.433594 22 13.523438 22 10 C 22 6.132812 18.867188 3 15 3 Z M 14.535156 5 L 15.46875 5 L 15.46875 5.832031 C 17.070312 5.992188 18.152344 6.941406 18.183594 8.285156 L 16.3125 8.285156 C 16.269531 7.722656 15.734375 7.328125 15.019531 7.328125 C 14.304688 7.328125 13.839844 7.667969 13.839844 8.199219 C 13.839844 8.632812 14.191406 8.886719 15.03125 9.054688 L 16.058594 9.253906 C 17.632812 9.554688 18.339844 10.269531 18.339844 11.535156 C 18.339844 13.058594 17.257812 14.023438 15.464844 14.171875 L 15.464844 15 L 15.152344 15 C 15.097656 14.992188 15.042969 14.984375 14.984375 14.988281 C 14.9375 14.988281 14.886719 14.992188 14.839844 15 L 14.53125 15 L 14.53125 14.175781 C 12.78125 14.039062 11.691406 13.128906 11.660156 11.714844 L 13.59375 11.714844 C 13.644531 12.292969 14.226562 12.664062 15.0625 12.664062 C 15.820312 12.664062 16.339844 12.300781 16.339844 11.777344 C 16.339844 11.335938 15.992188 11.097656 15.078125 10.914062 L 14.03125 10.703125 C 12.574219 10.425781 11.820312 9.632812 11.820312 8.378906 C 11.820312 6.949219 12.878906 5.984375 14.53125 5.832031 Z M 5 17 C 5 17 5 21 8 24 C 9.28125 25.28125 10.742188 26.011719 12 26.433594 L 12 20 C 9 17 5 17 5 17 Z M 5 17 "/>
</g>
</svg>
