<?xml version="1.0" encoding="UTF-8"?>
<svg xmlns="http://www.w3.org/2000/svg" xmlns:xlink="http://www.w3.org/1999/xlink" viewBox="0 0 30 30" width="30px" height="30px">
<g id="surface32627153">
<path style=" stroke:none;fill-rule:nonzero;fill:rgb(100%,100%,100%);fill-opacity:1;" d="M 15 2 C 10.03125 2 6 6.03125 6 11 C 6 15.96875 10.03125 20 15 20 C 19.96875 20 24 15.96875 24 11 C 24 6.03125 19.96875 2 15 2 Z M 3.5 14 C 2.671875 14 2 14.671875 2 15.5 C 2 16.261719 2.558594 16.878906 3.289062 16.980469 L 3.292969 16.980469 C 5.308594 21.171875 9.382812 23.949219 14 24.304688 L 14 26 L 6 26 C 5.445312 26 5 26.445312 5 27 C 5 27.554688 5.445312 28 6 28 L 23 28 C 23.554688 28 24 27.554688 24 27 C 24 26.445312 23.554688 26 23 26 L 16 26 L 16 24.304688 C 20.617188 23.949219 24.6875 21.171875 26.707031 16.980469 L 26.710938 16.980469 C 27.441406 16.878906 28 16.261719 28 15.5 C 28 14.671875 27.328125 14 26.5 14 C 25.671875 14 25 14.671875 25 15.5 C 25 15.609375 25.007812 15.726562 25.039062 15.828125 C 23.269531 19.789062 19.355469 22.34375 15 22.34375 C 10.644531 22.34375 6.730469 19.789062 4.960938 15.828125 C 4.988281 15.726562 5 15.609375 5 15.5 C 5 14.671875 4.328125 14 3.5 14 Z M 3.5 14 "/>
</g>
</svg>
