<?xml version="1.0" encoding="UTF-8"?>
<svg xmlns="http://www.w3.org/2000/svg" xmlns:xlink="http://www.w3.org/1999/xlink" viewBox="0 0 30 30" width="30px" height="30px">
<g id="surface32427556">
<path style=" stroke:none;fill-rule:nonzero;fill:rgb(100%,100%,100%);fill-opacity:1;" d="M 7 2 C 6.449219 2 6 2.449219 6 3 L 6 6.953125 L 2.546875 9.621094 L 8 13.90625 L 8 6 C 9.105469 6 10 5.105469 10 4 L 20 4 C 20 5.105469 20.894531 6 22 6 L 22 13.90625 L 27.453125 9.621094 L 24 6.953125 L 24 3 C 24 2.449219 23.550781 2 23 2 Z M 15 7 C 14.449219 7 14 7.449219 14 8 C 14 8.550781 14.449219 9 15 9 C 15.550781 9 16 8.550781 16 8 C 16 7.449219 15.550781 7 15 7 Z M 2 11.734375 L 2 23.585938 L 8.636719 16.949219 Z M 28 11.734375 L 21.363281 16.953125 L 28 23.585938 Z M 15 12 C 12.789062 12 11 13.789062 11 16 C 11 16.195312 11.03125 16.378906 11.058594 16.5625 L 13.316406 18.371094 C 14.308594 19.164062 15.691406 19.164062 16.683594 18.371094 L 18.941406 16.566406 C 18.96875 16.378906 19 16.195312 19 16 C 19 13.789062 17.210938 12 15 12 Z M 10.21875 18.191406 L 2.414062 26 L 27.585938 26 L 19.78125 18.195312 L 17.160156 20.253906 C 16.523438 20.753906 15.761719 21.003906 15 21.003906 C 14.238281 21.003906 13.472656 20.753906 12.839844 20.253906 Z M 10.21875 18.191406 "/>
</g>
</svg>
