<?xml version="1.0" encoding="UTF-8"?>
<svg xmlns="http://www.w3.org/2000/svg" xmlns:xlink="http://www.w3.org/1999/xlink" viewBox="0 0 30 30" width="30px" height="30px">
<g id="surface32379352">
<path style=" stroke:none;fill-rule:nonzero;fill:rgb(100%,100%,100%);fill-opacity:1;" d="M 6 3 C 5.640625 2.996094 5.304688 3.183594 5.121094 3.496094 C 4.941406 3.808594 4.941406 4.191406 5.121094 4.503906 C 5.304688 4.816406 5.640625 5.003906 6 5 L 24 5 C 24.359375 5.003906 24.695312 4.816406 24.878906 4.503906 C 25.058594 4.191406 25.058594 3.808594 24.878906 3.496094 C 24.695312 3.183594 24.359375 2.996094 24 3 Z M 4 7 C 3.640625 6.996094 3.304688 7.183594 3.121094 7.496094 C 2.941406 7.808594 2.941406 8.191406 3.121094 8.503906 C 3.304688 8.816406 3.640625 9.003906 4 9 L 26 9 C 26.359375 9.003906 26.695312 8.816406 26.878906 8.503906 C 27.058594 8.191406 27.058594 7.808594 26.878906 7.496094 C 26.695312 7.183594 26.359375 6.996094 26 7 Z M 4 11 C 3.058594 11 2.242188 11.660156 2.046875 12.582031 C 2.042969 12.59375 2.042969 12.601562 2.039062 12.613281 C 2.011719 12.742188 2 12.871094 2 13 L 2 25 C 2 25.941406 2.660156 26.757812 3.582031 26.953125 C 3.59375 26.957031 3.601562 26.957031 3.613281 26.960938 C 3.742188 26.988281 3.871094 27 4 27 L 26 27 C 26.941406 27 27.757812 26.339844 27.953125 25.417969 C 27.957031 25.40625 27.957031 25.398438 27.960938 25.386719 C 27.988281 25.257812 28 25.128906 28 25 L 28 13 C 28 12.058594 27.339844 11.242188 26.417969 11.046875 C 26.40625 11.042969 26.398438 11.042969 26.386719 11.039062 C 26.257812 11.011719 26.128906 11 26 11 Z M 6 13 L 24 13 C 24 14.105469 24.894531 15 26 15 L 26 23 C 24.894531 23 24 23.894531 24 25 L 6 25 C 6 23.894531 5.105469 23 4 23 L 4 15 C 5.105469 15 6 14.105469 6 13 Z M 15 15 C 12.789062 15 11 17.015625 11 19.5 C 11 20.921875 11.597656 22.175781 12.515625 23 L 17.488281 23 C 18.402344 22.175781 19 20.921875 19 19.5 C 19 17.015625 17.210938 15 15 15 Z M 7 18 C 6.449219 18 6 18.449219 6 19 C 6 19.550781 6.449219 20 7 20 C 7.550781 20 8 19.550781 8 19 C 8 18.449219 7.550781 18 7 18 Z M 23 18 C 22.449219 18 22 18.449219 22 19 C 22 19.550781 22.449219 20 23 20 C 23.550781 20 24 19.550781 24 19 C 24 18.449219 23.550781 18 23 18 Z M 23 18 "/>
</g>
</svg>
