<?xml version="1.0" encoding="UTF-8"?>
<svg xmlns="http://www.w3.org/2000/svg" xmlns:xlink="http://www.w3.org/1999/xlink" viewBox="0 0 30 30" width="30px" height="30px">
<g id="surface34004494">
<path style=" stroke:none;fill-rule:nonzero;fill:rgb(100%,100%,100%);fill-opacity:1;" d="M 15 2 C 13.34375 2 12 3.34375 12 5 C 12 6.65625 13.34375 8 15 8 C 16.65625 8 18 6.65625 18 5 C 18 3.34375 16.65625 2 15 2 Z M 8.984375 2.984375 C 8.433594 2.996094 7.992188 3.449219 8 4 L 8 7.765625 C 8 8.898438 8.644531 9.941406 9.660156 10.449219 L 12 11.617188 L 12 25.964844 C 12 26.535156 12.464844 27 13.035156 27 C 13.578125 27 14.027344 26.578125 14.066406 26.035156 L 14.5 19.464844 C 14.519531 19.203125 14.738281 19 15 19 C 15.261719 19 15.480469 19.203125 15.5 19.464844 L 15.933594 26.035156 C 15.972656 26.578125 16.421875 27 16.964844 27 C 17.535156 27 18 26.535156 18 25.964844 L 18 11.617188 L 20.339844 10.445312 C 21.355469 9.941406 22 8.898438 22 7.761719 L 22 4 C 22.003906 3.640625 21.816406 3.304688 21.503906 3.121094 C 21.191406 2.941406 20.808594 2.941406 20.496094 3.121094 C 20.183594 3.304688 19.996094 3.640625 20 4 L 20 7.761719 C 20 8.144531 19.789062 8.488281 19.449219 8.65625 L 16.765625 10 L 13.234375 10 L 10.550781 8.65625 C 10.210938 8.488281 10 8.144531 10 7.761719 L 10 4 C 10.003906 3.730469 9.898438 3.46875 9.707031 3.277344 C 9.515625 3.085938 9.253906 2.980469 8.984375 2.984375 Z M 27 8 L 26.191406 8.8125 C 25.34375 8.273438 24.441406 8.304688 23.785156 8.960938 C 23.132812 9.613281 23.109375 10.402344 23.726562 11.347656 L 24.164062 12.023438 C 24.574219 12.660156 24.632812 13.03125 24.359375 13.304688 C 24.035156 13.625 23.480469 13.523438 23.015625 13.058594 C 22.511719 12.550781 22.382812 11.980469 22.6875 11.59375 L 21.824219 10.726562 C 21.191406 11.414062 21.203125 12.328125 21.796875 13.203125 L 21 14 L 22 15 L 22.800781 14.199219 C 23.710938 14.820312 24.648438 14.800781 25.363281 14.085938 C 26.027344 13.421875 26.03125 12.679688 25.351562 11.640625 L 24.945312 11.011719 C 24.550781 10.402344 24.496094 10.046875 24.761719 9.785156 C 25.089844 9.457031 25.589844 9.546875 26.039062 9.996094 C 26.472656 10.425781 26.5625 10.96875 26.265625 11.347656 L 27.105469 12.191406 C 27.707031 11.546875 27.714844 10.632812 27.191406 9.808594 L 28 9 Z M 4 11 L 3 12 L 3.808594 12.808594 C 3.269531 13.65625 3.304688 14.558594 3.960938 15.214844 C 4.613281 15.867188 5.402344 15.890625 6.347656 15.273438 L 7.023438 14.835938 C 7.660156 14.425781 8.03125 14.367188 8.304688 14.640625 C 8.625 14.964844 8.523438 15.519531 8.058594 15.984375 C 7.550781 16.488281 6.980469 16.617188 6.59375 16.3125 L 5.726562 17.175781 C 6.414062 17.808594 7.328125 17.796875 8.199219 17.203125 L 9 18 L 10 17 L 9.199219 16.199219 C 9.820312 15.289062 9.800781 14.351562 9.082031 13.636719 C 8.421875 12.972656 7.679688 12.96875 6.636719 13.648438 L 6.011719 14.054688 C 5.402344 14.449219 5.046875 14.503906 4.78125 14.238281 C 4.457031 13.910156 4.546875 13.410156 4.992188 12.960938 C 5.425781 12.527344 5.964844 12.4375 6.34375 12.734375 L 7.1875 11.894531 C 6.542969 11.292969 5.632812 11.285156 4.808594 11.808594 Z M 4 11 "/>
</g>
</svg>
