<?xml version="1.0" encoding="UTF-8"?>
<svg xmlns="http://www.w3.org/2000/svg" xmlns:xlink="http://www.w3.org/1999/xlink" viewBox="0 0 30 30" width="30px" height="30px">
<g id="surface31615237">
<path style=" stroke:none;fill-rule:nonzero;fill:rgb(100%,100%,100%);fill-opacity:1;" d="M 26 26 C 25.445312 26 25 25.554688 25 25 C 25 24.417969 25 19.179688 25 18.445312 C 25 15.789062 24.472656 15 23.5 15 C 22.324219 15 22.039062 16.28125 21.417969 18.519531 L 21.242188 19.167969 C 20.46875 22.050781 19.402344 26 14.5 26 C 9.484375 26 3.117188 25.027344 2.847656 24.988281 C 2.359375 24.914062 2 24.492188 2 24 C 2 22.820312 2.433594 21.851562 3.324219 21.035156 C 4.574219 19.898438 9.011719 17.40625 9.511719 17.128906 C 9.769531 16.984375 10.082031 16.960938 10.355469 17.066406 C 10.632812 17.171875 10.847656 17.390625 10.945312 17.671875 C 10.953125 17.691406 11.789062 20 13.5 20 C 15.550781 20 15.976562 18.675781 15.992188 18.617188 C 16.847656 15.8125 19.890625 6.414062 23.324219 3.265625 C 23.683594 2.933594 24.230469 2.910156 24.613281 3.210938 C 24.753906 3.320312 28 5.902344 28 10.0625 C 28 10.960938 27.890625 11.632812 27.746094 12.488281 C 27.449219 14.292969 27 17.019531 27 25 C 27 25.554688 26.554688 26 26 26 Z M 26 26 "/>
</g>
</svg>
