<?xml version="1.0" encoding="UTF-8"?>
<svg xmlns="http://www.w3.org/2000/svg" xmlns:xlink="http://www.w3.org/1999/xlink" viewBox="0 0 30 30" width="30px" height="30px">
<g id="surface32628151">
<path style=" stroke:none;fill-rule:nonzero;fill:rgb(100%,100%,100%);fill-opacity:1;" d="M 12.988281 5 C 9.503906 5 4.363281 6.976562 3.230469 12.03125 C 3.15625 12.011719 3.078125 12 3 12 C 2.449219 12 2 12.449219 2 13 C 2 13.550781 2.449219 14 3 14 C 3.003906 14 3.003906 14 3.007812 14 C 3.007812 14.046875 3 14.085938 3 14.132812 C 3 15.628906 3.382812 17.121094 4.113281 18.480469 L 5.035156 23.996094 C 5.132812 24.574219 5.632812 25 6.21875 25 L 8.988281 25 C 9.578125 25 10.078125 24.574219 10.175781 23.996094 L 10.277344 23.378906 C 11.539062 23.769531 12.941406 24 14.5 24 C 15.621094 24 16.691406 23.875 17.707031 23.65625 L 18.285156 24.546875 C 18.472656 24.828125 18.785156 25 19.125 25 L 22 25 C 22.632812 25 23.105469 24.421875 22.980469 23.804688 L 22.535156 21.59375 C 23.597656 20.839844 24.457031 19.957031 25.050781 18.992188 L 26.09375 18.992188 C 26.644531 18.992188 27.125 18.617188 27.261719 18.082031 L 27.964844 15.265625 C 28.117188 14.65625 27.777344 14.03125 27.179688 13.835938 L 25.6875 13.335938 C 25.347656 11.964844 24.746094 10.789062 23.960938 9.796875 C 24.527344 8.839844 25 7.582031 25 6 L 21.105469 7.300781 C 18.417969 5.640625 15.195312 5 12.992188 5 Z M 14.007812 9 C 16.214844 9.003906 18 10.792969 18 13 C 18 14.089844 17.5625 15.066406 16.855469 15.78125 C 16.515625 16.125 16.285156 16.546875 16.148438 17 L 11.855469 17 C 11.71875 16.554688 11.5 16.136719 11.164062 15.800781 C 10.234375 14.871094 9.757812 13.488281 10.121094 11.996094 C 10.46875 10.582031 11.621094 9.441406 13.039062 9.109375 C 13.367188 9.035156 13.691406 9 14.007812 9 Z M 12 18 L 15.988281 18 C 15.941406 18.953125 15.28125 19.820312 14.335938 19.972656 C 13.082031 20.175781 12 19.214844 12 18 Z M 12 18 "/>
</g>
</svg>
