<?xml version="1.0" encoding="UTF-8"?>
<svg xmlns="http://www.w3.org/2000/svg" xmlns:xlink="http://www.w3.org/1999/xlink" viewBox="0 0 30 30" width="30px" height="30px">
<g id="surface32669531">
<path style=" stroke:none;fill-rule:nonzero;fill:rgb(100%,100%,100%);fill-opacity:1;" d="M 16 3 C 11.4375 3 6.890625 4.671875 6.125 8 L 6 8 C 4.355469 8 3 9.355469 3 11 C 3 11.265625 3.105469 11.519531 3.292969 11.707031 C 3.355469 11.929688 3.445312 12.140625 3.542969 12.34375 C 3.03125 12.945312 2.773438 13.726562 2.773438 14.492188 C 2.773438 14.820312 2.914062 15.109375 3.003906 15.414062 C 2.671875 15.804688 2.289062 16.207031 2.160156 16.554688 C 1.800781 17.554688 2.09375 18.5 2.589844 19.308594 C 2.292969 19.867188 2.117188 20.464844 2.109375 21.054688 C 2.101562 21.890625 2.273438 22.691406 2.71875 23.359375 C 3.617188 24.695312 4.792969 24.925781 5.5625 25.015625 C 5.609375 25.210938 5.582031 25.402344 5.664062 25.605469 C 5.875 26.128906 6.210938 26.6875 6.820312 27.058594 C 8.277344 27.945312 9.773438 27.820312 10.933594 27.246094 C 12.070312 27.9375 13.515625 28.15625 14.960938 27.457031 C 15.746094 27.863281 16.59375 28.0625 17.402344 27.972656 C 18.101562 27.894531 18.734375 27.570312 19.273438 27.113281 C 20.339844 27.71875 21.714844 27.914062 23.164062 27.0625 C 23.789062 26.699219 24.128906 26.132812 24.335938 25.605469 C 24.417969 25.398438 24.394531 25.210938 24.4375 25.011719 C 25.210938 24.925781 26.382812 24.691406 27.277344 23.355469 C 27.726562 22.691406 27.894531 21.890625 27.886719 21.054688 C 27.882812 20.46875 27.707031 19.867188 27.40625 19.304688 C 27.90625 18.5 28.195312 17.554688 27.835938 16.554688 C 27.710938 16.207031 27.324219 15.804688 26.996094 15.414062 C 27.082031 15.109375 27.222656 14.820312 27.222656 14.492188 C 27.222656 13.726562 26.964844 12.945312 26.457031 12.339844 C 26.554688 12.140625 26.644531 11.929688 26.707031 11.707031 C 26.894531 11.519531 27 11.265625 27 11 C 27 10.464844 26.84375 9.964844 26.59375 9.527344 C 27.433594 8.992188 28 8.058594 28 7 C 28 5.355469 26.644531 4 25 4 C 24.222656 4 23.515625 4.308594 22.980469 4.800781 C 21.332031 3.964844 18.84375 3 16 3 Z M 25 6 C 25.5625 6 26 6.4375 26 7 C 26 7.5625 25.5625 8 25 8 C 24.4375 8 24 7.5625 24 7 C 24 6.4375 24.4375 6 25 6 Z M 6 10 L 24 10 C 24.566406 10 25 10.433594 25 11 C 25 11.269531 24.894531 11.507812 24.726562 11.683594 C 24.644531 11.730469 24.570312 11.785156 24.5 11.851562 C 24.351562 11.9375 24.1875 12 24 12 L 6 12 C 5.792969 12 5.617188 11.925781 5.460938 11.824219 C 5.402344 11.773438 5.34375 11.730469 5.277344 11.691406 C 5.105469 11.515625 5 11.273438 5 11 C 5 10.433594 5.433594 10 6 10 Z M 4.953125 13.769531 C 5.269531 13.914062 5.617188 14 6 14 L 10.09375 14 C 10.296875 14.582031 10.847656 15 11.5 15 C 12.152344 15 12.703125 14.582031 12.910156 14 L 17.09375 14 C 17.296875 14.582031 17.847656 15 18.5 15 C 19.152344 15 19.703125 14.582031 19.910156 14 L 24 14 C 24.382812 14 24.730469 13.914062 25.046875 13.769531 C 25.164062 13.960938 25.226562 14.1875 25.226562 14.492188 C 25.226562 14.730469 25.167969 14.949219 25.0625 15.148438 C 24.835938 15.570312 24.941406 16.097656 25.316406 16.398438 C 25.769531 16.765625 25.851562 16.945312 25.953125 17.230469 C 26.054688 17.515625 25.847656 18.324219 25.558594 18.625 C 25.179688 19.019531 25.1875 19.640625 25.574219 20.027344 C 25.71875 20.171875 25.882812 20.585938 25.886719 21.074219 C 25.890625 21.5625 25.722656 22.085938 25.617188 22.242188 C 24.921875 23.277344 24.414062 23.039062 23.492188 23.144531 C 22.957031 23.203125 22.566406 23.675781 22.609375 24.214844 C 22.613281 24.296875 22.578125 24.617188 22.480469 24.871094 C 22.378906 25.121094 22.222656 25.296875 22.152344 25.339844 C 20.902344 26.074219 20.113281 25.679688 19.863281 25.355469 C 19.65625 25.089844 19.328125 24.945312 18.996094 24.96875 C 18.660156 24.996094 18.359375 25.1875 18.199219 25.484375 C 18.097656 25.664062 17.722656 25.921875 17.179688 25.984375 C 16.632812 26.046875 16.003906 25.90625 15.566406 25.578125 C 15.230469 25.328125 14.773438 25.3125 14.425781 25.539062 C 13.261719 26.285156 12.230469 26.035156 11.625 25.492188 C 11.269531 25.167969 10.734375 25.148438 10.351562 25.4375 C 9.949219 25.742188 8.902344 25.984375 7.863281 25.351562 C 7.78125 25.300781 7.621094 25.117188 7.523438 24.863281 C 7.421875 24.605469 7.382812 24.289062 7.390625 24.210938 C 7.429688 23.675781 7.039062 23.203125 6.507812 23.144531 C 5.582031 23.039062 5.074219 23.277344 4.382812 22.242188 C 4.273438 22.082031 4.105469 21.5625 4.113281 21.074219 C 4.117188 20.585938 4.277344 20.171875 4.425781 20.027344 C 4.808594 19.640625 4.816406 19.019531 4.441406 18.628906 C 4.152344 18.328125 3.941406 17.515625 4.046875 17.234375 L 4.042969 17.234375 C 4.144531 16.945312 4.230469 16.765625 4.683594 16.398438 C 5.054688 16.097656 5.164062 15.574219 4.9375 15.152344 C 4.832031 14.953125 4.773438 14.730469 4.773438 14.492188 C 4.773438 14.1875 4.835938 13.960938 4.953125 13.773438 Z M 22.035156 15.988281 C 21.867188 15.984375 21.699219 16.027344 21.550781 16.105469 C 21.550781 16.105469 21.601562 16.089844 21.492188 16.121094 C 21.382812 16.152344 21.171875 16.207031 20.835938 16.265625 C 20.15625 16.375 18.957031 16.5 17 16.5 C 16.539062 16.5 16.140625 16.8125 16.027344 17.257812 C 16.027344 17.257812 15.984375 17.429688 15.824219 17.628906 C 15.664062 17.828125 15.503906 18 15 18 C 14.496094 18 14.332031 17.828125 14.171875 17.628906 C 14.015625 17.429688 13.972656 17.257812 13.972656 17.257812 C 13.859375 16.8125 13.460938 16.5 13 16.5 C 11.042969 16.5 9.84375 16.375 9.164062 16.265625 C 8.824219 16.207031 8.617188 16.152344 8.507812 16.121094 C 8.394531 16.089844 8.449219 16.105469 8.449219 16.105469 C 8.296875 16.027344 8.132812 15.988281 7.964844 15.996094 C 7.503906 16.003906 7.109375 16.332031 7.011719 16.78125 C 6.914062 17.234375 7.136719 17.695312 7.554688 17.894531 C 7.554688 17.894531 7.730469 17.972656 7.933594 18.035156 C 8.132812 18.097656 8.425781 18.167969 8.835938 18.238281 C 9.539062 18.351562 10.828125 18.433594 12.398438 18.460938 C 12.484375 18.640625 12.449219 18.671875 12.609375 18.871094 C 13.042969 19.421875 13.878906 20 15 20 C 16.121094 20 16.957031 19.421875 17.394531 18.871094 C 17.550781 18.671875 17.515625 18.640625 17.601562 18.460938 C 19.167969 18.429688 20.460938 18.351562 21.164062 18.238281 C 21.574219 18.167969 21.867188 18.097656 22.070312 18.035156 C 22.269531 17.972656 22.445312 17.894531 22.445312 17.894531 C 22.871094 17.699219 23.101562 17.234375 23.003906 16.773438 C 22.90625 16.316406 22.5 15.988281 22.035156 15.988281 Z M 17.996094 20.988281 C 17.734375 20.992188 17.484375 21.097656 17.300781 21.285156 C 17.300781 21.285156 16.636719 22 15 22 C 13.363281 22 12.699219 21.285156 12.699219 21.285156 C 12.507812 21.09375 12.246094 20.988281 11.976562 20.988281 C 11.570312 20.996094 11.207031 21.246094 11.058594 21.625 C 10.910156 22.003906 11.007812 22.433594 11.300781 22.714844 C 11.300781 22.714844 12.6875 24 15 24 C 17.3125 24 18.699219 22.714844 18.699219 22.714844 C 19 22.429688 19.09375 21.992188 18.9375 21.609375 C 18.78125 21.230469 18.410156 20.980469 17.996094 20.988281 Z M 17.996094 20.988281 "/>
</g>
</svg>
