<?xml version="1.0" encoding="UTF-8"?>
<svg xmlns="http://www.w3.org/2000/svg" xmlns:xlink="http://www.w3.org/1999/xlink" viewBox="0 0 30 30" width="30px" height="30px">
<g id="surface32744566">
<path style=" stroke:none;fill-rule:nonzero;fill:rgb(100%,100%,100%);fill-opacity:1;" d="M 13 1 C 12.449219 1 12 1.449219 12 2 L 12 3.039062 C 6.671875 3.390625 3.953125 6.441406 3.296875 7.292969 C 2.933594 7.664062 2.914062 8.246094 3.246094 8.640625 C 3.582031 9.035156 4.160156 9.109375 4.582031 8.8125 C 4.582031 8.8125 4.871094 8.601562 5.292969 8.386719 C 5.710938 8.175781 6.246094 8 6.5 8 C 6.753906 8 7.289062 8.175781 7.710938 8.386719 C 8.128906 8.601562 8.417969 8.8125 8.417969 8.8125 C 8.714844 9.027344 9.105469 9.0625 9.4375 8.902344 C 9.4375 8.902344 10.683594 8.335938 12 8.105469 L 12 13.644531 L 13 14.300781 L 14 13.644531 L 14 8.105469 C 15.316406 8.335938 16.5625 8.902344 16.5625 8.902344 C 16.886719 9.058594 17.273438 9.027344 17.570312 8.824219 C 17.570312 8.824219 17.878906 8.609375 18.308594 8.394531 C 18.734375 8.175781 19.285156 8 19.5 8 C 19.714844 8 20.265625 8.175781 20.691406 8.394531 C 21.121094 8.609375 21.429688 8.824219 21.429688 8.824219 C 21.855469 9.109375 22.429688 9.027344 22.757812 8.632812 C 23.089844 8.238281 23.066406 7.660156 22.703125 7.292969 C 22.046875 6.441406 19.328125 3.390625 14 3.042969 L 14 2 C 14 1.449219 13.550781 1 13 1 Z M 24 12 C 22.894531 12 22 12.894531 22 14 C 22 15.105469 22.894531 16 24 16 C 25.105469 16 26 15.105469 26 14 C 26 12.894531 25.105469 12 24 12 Z M 7.972656 13 C 7.667969 13.007812 7.382812 13.15625 7.199219 13.402344 L 4.199219 17.402344 C 4.070312 17.574219 4 17.785156 4 18 L 3 18 C 2.640625 17.996094 2.304688 18.183594 2.121094 18.496094 C 1.941406 18.808594 1.941406 19.191406 2.121094 19.503906 C 2.304688 19.816406 2.640625 20.003906 3 20 L 13.25 20 C 14.183594 20 15.105469 19.816406 15.964844 19.453125 L 19.863281 17.8125 C 19.972656 17.769531 20.070312 17.707031 20.15625 17.628906 C 20.683594 17.257812 21 16.648438 21 16 C 21 14.894531 20.105469 14 19 14 C 18.734375 14 18.472656 14.050781 18.230469 14.152344 L 18.226562 14.148438 L 13 16 L 8.648438 13.238281 L 8.625 13.21875 C 8.441406 13.070312 8.210938 12.992188 7.972656 13 Z M 8.179688 15.425781 L 10.933594 18 L 6.25 18 Z M 26.972656 16.996094 C 26.851562 17 26.730469 17.027344 26.613281 17.074219 L 14.796875 22 L 3 22 C 2.640625 21.996094 2.304688 22.183594 2.121094 22.496094 C 1.941406 22.808594 1.941406 23.191406 2.121094 23.503906 C 2.304688 23.816406 2.640625 24.003906 3 24 L 5 24 L 5 26 C 4.996094 26.359375 5.183594 26.695312 5.496094 26.878906 C 5.808594 27.058594 6.191406 27.058594 6.503906 26.878906 C 6.816406 26.695312 7.003906 26.359375 7 26 L 7 24 L 23 24 L 23 26 C 22.996094 26.359375 23.183594 26.695312 23.496094 26.878906 C 23.808594 27.058594 24.191406 27.058594 24.503906 26.878906 C 24.816406 26.695312 25.003906 26.359375 25 26 L 25 24 L 27 24 C 27.359375 24.003906 27.695312 23.816406 27.878906 23.503906 C 28.058594 23.191406 28.058594 22.808594 27.878906 22.496094 C 27.695312 22.183594 27.359375 21.996094 27 22 L 20 22 L 27.386719 18.921875 C 27.835938 18.742188 28.09375 18.261719 27.992188 17.789062 C 27.890625 17.3125 27.460938 16.976562 26.972656 16.996094 Z M 26.972656 16.996094 "/>
</g>
</svg>
