<?xml version="1.0" encoding="UTF-8"?>
<svg xmlns="http://www.w3.org/2000/svg" xmlns:xlink="http://www.w3.org/1999/xlink" viewBox="0 0 30 30" width="30px" height="30px">
<g id="surface32386936">
<path style=" stroke:none;fill-rule:nonzero;fill:rgb(100%,100%,100%);fill-opacity:1;" d="M 21 11 L 20 11 L 20 8.894531 C 20 8.398438 19.597656 8 19.105469 8 L 11.894531 8 C 11.398438 8 11 8.398438 11 8.894531 L 11 11 L 10 11 C 9.449219 11 9 11.507812 9 12.132812 L 9 21.199219 C 9 22.992188 9.378906 26.265625 11 28 L 20 28 C 21.621094 26.265625 22 22.992188 22 21.199219 L 22 12.132812 C 22 11.507812 21.550781 11 21 11 Z M 11 4.019531 C 12.171875 4.128906 13 3.628906 13 6 L 18 6 C 18 6 18 4.839844 18 4.75 C 18 3.871094 18 2 16 2 L 11 2 Z M 11 4.019531 "/>
</g>
</svg>
