<?xml version="1.0" encoding="UTF-8"?>
<svg xmlns="http://www.w3.org/2000/svg" xmlns:xlink="http://www.w3.org/1999/xlink" viewBox="0 0 30 30" width="30px" height="30px">
<g id="surface39434987">
<path style=" stroke:none;fill-rule:nonzero;fill:rgb(100%,100%,100%);fill-opacity:1;" d="M 16.878906 2.074219 C 14.199219 2.4375 12.714844 4.046875 12.203125 4.710938 C 12.066406 4.886719 12 5.09375 12 5.316406 L 12 7 C 10.90625 7 10 7.90625 10 9 L 10 16 C 9.449219 16 9 16.449219 9 17 L 9 25 C 9 26.105469 9.894531 27 11 27 L 19 27 C 20.105469 27 21 26.105469 21 25 L 21 17 C 21 16.449219 20.550781 16 20 16 L 20 9 C 20 7.90625 19.09375 7 18 7 L 18 3.070312 C 18 2.472656 17.472656 1.992188 16.878906 2.074219 Z M 12 9 L 18 9 L 18 16 L 12 16 Z M 12 9 "/>
</g>
</svg>
