<?xml version="1.0" encoding="UTF-8"?>
<svg xmlns="http://www.w3.org/2000/svg" xmlns:xlink="http://www.w3.org/1999/xlink" viewBox="0 0 30 30" width="30px" height="30px">
<g id="surface32143268">
<path style=" stroke:none;fill-rule:nonzero;fill:rgb(100%,100%,100%);fill-opacity:1;" d="M 26 3 C 25.546875 3 25.148438 3.308594 25.035156 3.746094 L 23.722656 7.128906 L 21.84375 9.160156 L 18.300781 10.015625 C 17.902344 10.070312 17.542969 10.277344 17.304688 10.597656 L 15.089844 12.976562 C 14.8125 13.273438 14.632812 13.644531 14.574219 14.046875 L 14.019531 17.816406 C 14.007812 17.875 14 17.9375 14 18 C 14 18.550781 14.449219 19 15 19 C 15.527344 19 15.960938 18.59375 16 18.066406 L 16.734375 14.421875 L 18 13.269531 L 18 17 L 16.058594 25.675781 C 16.019531 25.78125 16 25.890625 16 26 C 16 26.550781 16.449219 27 17 27 C 17.460938 27 17.859375 26.6875 17.96875 26.238281 L 17.972656 26.238281 L 20.789062 18.253906 L 22.507812 21.195312 L 23 26 C 23 26.550781 23.449219 27 24 27 C 24.550781 27 25 26.550781 25 26 L 25 20.988281 C 25 20.695312 24.9375 20.40625 24.8125 20.140625 L 23 16.273438 L 23 11.449219 C 23 11.449219 25.683594 8.101562 25.691406 8.078125 L 26.957031 4.308594 L 26.949219 4.308594 C 26.980469 4.210938 27 4.105469 27 4 C 27 3.449219 26.550781 3 26 3 Z M 3 4 C 2.449219 4 2 4.449219 2 5 L 2.011719 9.503906 C 2.011719 9.816406 2.15625 10.109375 2.40625 10.296875 L 5.179688 12.390625 L 4.105469 16.363281 L 4.105469 16.375 C 4.035156 16.578125 4 16.789062 4 17 C 4 17.121094 4.011719 17.242188 4.035156 17.359375 L 4.035156 17.367188 L 4.992188 26.019531 L 5 26.019531 C 5.011719 26.5625 5.457031 27 6 27 C 6.550781 27 7 26.550781 7 26 C 7 25.964844 6.996094 25.925781 6.992188 25.890625 L 7.035156 18.992188 L 7.746094 18.625 L 9.582031 20.957031 L 10 26 C 10 26.554688 10.449219 27 11 27 C 11.550781 27 12 26.550781 12 26 L 12 20.566406 C 12 20.199219 11.898438 19.832031 11.699219 19.515625 L 9.855469 16.53125 L 11.285156 12.667969 L 13.777344 9.566406 C 13.921875 9.386719 14 9.167969 14 8.941406 L 14 5 C 14 4.449219 13.550781 4 13 4 C 12.449219 4 12 4.449219 12 5 L 12 8.394531 L 10.550781 10 L 6.109375 10 L 4 8.542969 L 4 5 C 4 4.449219 3.550781 4 3 4 Z M 19 4 C 17.894531 4 17 4.894531 17 6 C 17 7.105469 17.894531 8 19 8 C 20.105469 8 21 7.105469 21 6 C 21 4.894531 20.105469 4 19 4 Z M 8 5 C 6.894531 5 6 5.894531 6 7 C 6 8.105469 6.894531 9 8 9 C 9.105469 9 10 8.105469 10 7 C 10 5.894531 9.105469 5 8 5 Z M 8 5 "/>
</g>
</svg>
