<?xml version="1.0" encoding="UTF-8"?>
<svg xmlns="http://www.w3.org/2000/svg" xmlns:xlink="http://www.w3.org/1999/xlink" viewBox="0 0 30 30" width="30px" height="30px">
<g id="surface33999122">
<path style=" stroke:none;fill-rule:nonzero;fill:rgb(100%,100%,100%);fill-opacity:1;" d="M 4 4 C 3.449219 4 3 4.449219 3 5 C 3 5.550781 3.449219 6 4 6 L 4 10 C 3.449219 10 3 10.449219 3 11 C 3 11.550781 3.449219 12 4 12 L 4 16 C 3.449219 16 3 16.449219 3 17 C 3 17.550781 3.449219 18 4 18 L 4 22 C 3.449219 22 3 22.449219 3 23 C 3 23.550781 3.449219 24 4 24 L 10.46875 24 L 10.027344 25.757812 C 9.953125 26.054688 10.023438 26.375 10.210938 26.617188 C 10.402344 26.859375 10.691406 27 11 27 L 27 27 C 27.308594 27 27.597656 26.859375 27.789062 26.617188 C 27.976562 26.375 28.046875 26.054688 27.96875 25.757812 L 26.96875 21.757812 C 26.859375 21.3125 26.460938 21 26 21 L 23.78125 21 L 22.972656 17.757812 C 22.859375 17.3125 22.460938 17 22 17 L 19 17 C 19 16.449219 18.550781 16 18 16 L 18 12 C 18.550781 12 19 11.550781 19 11 C 19 10.449219 18.550781 10 18 10 L 18 6 C 18.550781 6 19 5.550781 19 5 C 19 4.449219 18.550781 4 18 4 Z M 11 10 C 11 10 14 13.34375 14 15 C 14 16.65625 12.65625 18 11 18 C 9.34375 18 8 16.65625 8 15 C 8 13.34375 11 10 11 10 Z M 16.78125 19 L 21.21875 19 L 21.71875 21 L 16.28125 21 Z M 12.78125 23 L 17.21875 23 L 17.71875 25 L 12.28125 25 Z M 20.78125 23 L 25.21875 23 L 25.71875 25 L 20.28125 25 Z M 20.78125 23 "/>
</g>
</svg>
