<?xml version="1.0" encoding="UTF-8"?>
<svg xmlns="http://www.w3.org/2000/svg" xmlns:xlink="http://www.w3.org/1999/xlink" viewBox="0 0 30 30" width="30px" height="30px">
<g id="surface32750812">
<path style=" stroke:none;fill-rule:nonzero;fill:rgb(100%,100%,100%);fill-opacity:1;" d="M 25.027344 1.980469 C 24.851562 1.980469 24.675781 2.03125 24.519531 2.125 L 14.023438 7.847656 L 4.511719 2.144531 C 4.34375 2.035156 4.144531 1.984375 3.941406 1.996094 C 3.5 2.015625 3.125 2.324219 3.019531 2.753906 C 2.914062 3.1875 3.101562 3.632812 3.484375 3.859375 L 3.515625 3.875 L 12 10.722656 L 12 23 L 2 23 L 2 24 L 12 24 L 12 26 L 2 26 L 2 27 L 12 27 C 11.996094 27.359375 12.183594 27.695312 12.496094 27.878906 C 12.808594 28.058594 13.191406 28.058594 13.503906 27.878906 C 13.816406 27.695312 14.003906 27.359375 14 27 L 14.628906 19.074219 L 16.554688 15.582031 L 25.191406 11.988281 L 25.300781 11.953125 C 25.785156 11.808594 26.085938 11.324219 26 10.824219 C 25.914062 10.324219 25.46875 9.96875 24.960938 9.996094 C 24.875 10 24.785156 10.019531 24.699219 10.046875 L 17 12.484375 L 17 10.515625 L 25.472656 3.882812 L 25.476562 3.878906 C 25.898438 3.671875 26.121094 3.203125 26.011719 2.75 C 25.90625 2.292969 25.496094 1.972656 25.027344 1.980469 Z M 18.5 17 C 17.121094 17 16 18.121094 16 19.5 C 16 20.878906 17.121094 22 18.5 22 C 19.878906 22 21 20.878906 21 19.5 C 21 18.121094 19.878906 17 18.5 17 Z M 16 23 L 16 24 L 28 24 L 28 23 Z M 16 26 L 16 27 L 28 27 L 28 26 Z M 16 26 "/>
</g>
</svg>
