<?xml version="1.0" encoding="UTF-8"?>
<svg xmlns="http://www.w3.org/2000/svg" xmlns:xlink="http://www.w3.org/1999/xlink" viewBox="0 0 30 30" width="30px" height="30px">
<g id="surface32384775">
<path style=" stroke:none;fill-rule:nonzero;fill:rgb(100%,100%,100%);fill-opacity:1;" d="M 15 2 C 14.835938 2 14.671875 2.042969 14.527344 2.121094 C 14.523438 2.121094 14.523438 2.121094 14.519531 2.125 L 3.617188 8.078125 C 3.242188 8.230469 3 8.59375 3 9 C 3 9.550781 3.449219 10 4 10 L 26 10 C 26.550781 10 27 9.550781 27 9 C 27 8.597656 26.753906 8.234375 26.382812 8.078125 C 26.382812 8.078125 26.382812 8.078125 26.382812 8.074219 L 15.472656 2.117188 C 15.328125 2.042969 15.164062 2 15 2 Z M 15 5 C 15.828125 5 16.5 5.671875 16.5 6.5 C 16.5 7.328125 15.828125 8 15 8 C 14.171875 8 13.5 7.328125 13.5 6.5 C 13.5 5.671875 14.171875 5 15 5 Z M 6 12 L 6 20 L 5 20 C 4.640625 19.996094 4.304688 20.183594 4.121094 20.496094 C 3.941406 20.808594 3.941406 21.191406 4.121094 21.503906 C 4.304688 21.816406 4.640625 22.003906 5 22 L 25 22 C 25.359375 22.003906 25.695312 21.816406 25.878906 21.503906 C 26.058594 21.191406 26.058594 20.808594 25.878906 20.496094 C 25.695312 20.183594 25.359375 19.996094 25 20 L 24 20 L 24 12 L 22 12 L 22 20 L 20 20 L 20 12 L 18 12 L 18 20 L 16 20 L 16 12 L 14 12 L 14 20 L 12 20 L 12 12 L 10 12 L 10 20 L 8 20 L 8 12 Z M 3 24 C 2.640625 23.996094 2.304688 24.183594 2.121094 24.496094 C 1.941406 24.808594 1.941406 25.191406 2.121094 25.503906 C 2.304688 25.816406 2.640625 26.003906 3 26 L 27 26 C 27.359375 26.003906 27.695312 25.816406 27.878906 25.503906 C 28.058594 25.191406 28.058594 24.808594 27.878906 24.496094 C 27.695312 24.183594 27.359375 23.996094 27 24 Z M 3 24 "/>
</g>
</svg>
