<?xml version="1.0" encoding="UTF-8"?>
<svg xmlns="http://www.w3.org/2000/svg" xmlns:xlink="http://www.w3.org/1999/xlink" viewBox="0 0 30 30" width="30px" height="30px">
<g id="surface32152600">
<path style=" stroke:none;fill-rule:nonzero;fill:rgb(100%,100%,100%);fill-opacity:1;" d="M 15 3 C 8.371094 3 3 8.371094 3 15 C 3 21.628906 8.371094 27 15 27 L 16 27 C 17.65625 27 19 25.65625 19 24 C 19 24 19 21.738281 19 21 C 19 19.894531 19.894531 19 21 19 C 21.738281 19 25 19 25 19 C 26.105469 19 27 18.105469 27 17 C 27 17 27 15.625 27 15 C 27 8.371094 21.628906 3 15 3 Z M 15 5 C 16.105469 5 17 5.894531 17 7 C 17 8.105469 16.105469 9 15 9 C 13.894531 9 13 8.105469 13 7 C 13 5.894531 13.894531 5 15 5 Z M 7 17 C 5.894531 17 5 16.105469 5 15 C 5 13.894531 5.894531 13 7 13 C 8.105469 13 9 13.894531 9 15 C 9 16.105469 8.105469 17 7 17 Z M 14.5 25 C 13.117188 25 12 23.882812 12 22.5 C 12 21.117188 13.117188 20 14.5 20 C 15.882812 20 17 21.117188 17 22.5 C 17 23.882812 15.882812 25 14.5 25 Z M 23 17 C 21.894531 17 21 16.105469 21 15 C 21 13.894531 21.894531 13 23 13 C 24.105469 13 25 13.894531 25 15 C 25 16.105469 24.105469 17 23 17 Z M 22.070312 10.757812 C 21.289062 11.539062 20.023438 11.539062 19.242188 10.757812 C 18.460938 9.976562 18.460938 8.710938 19.242188 7.929688 C 20.023438 7.148438 21.289062 7.148438 22.070312 7.929688 C 22.851562 8.710938 22.851562 9.976562 22.070312 10.757812 Z M 7.929688 10.757812 C 7.148438 9.976562 7.148438 8.710938 7.929688 7.929688 C 8.710938 7.148438 9.976562 7.148438 10.757812 7.929688 C 11.539062 8.710938 11.539062 9.976562 10.757812 10.757812 C 9.976562 11.539062 8.710938 11.539062 7.929688 10.757812 Z M 7.929688 10.757812 "/>
</g>
</svg>
