<?xml version="1.0" encoding="UTF-8"?>
<svg xmlns="http://www.w3.org/2000/svg" xmlns:xlink="http://www.w3.org/1999/xlink" viewBox="0 0 30 30" width="30px" height="30px">
<g id="surface34006452">
<path style=" stroke:none;fill-rule:nonzero;fill:rgb(100%,100%,100%);fill-opacity:1;" d="M 17.996094 4 C 15.949219 4 13.902344 4.78125 12.339844 6.34375 L 10.355469 8.328125 C 9.230469 9.453125 7.894531 10.328125 6.4375 10.921875 L 19.074219 23.558594 C 19.671875 22.101562 20.546875 20.765625 21.667969 19.640625 L 23.65625 17.65625 C 26.324219 14.988281 26.707031 10.90625 24.8125 7.824219 C 25.535156 7.503906 26 6.789062 26 6 C 26 4.894531 25.105469 4 24 4 C 23.210938 4 22.496094 4.464844 22.175781 5.1875 C 20.898438 4.402344 19.449219 4 17.996094 4 Z M 3.988281 10.988281 C 3.582031 10.992188 3.21875 11.238281 3.0625 11.613281 C 2.910156 11.992188 3 12.421875 3.292969 12.707031 L 8.714844 18.128906 C 7.695312 18.46875 7.003906 19.421875 7 20.5 C 7 21.878906 8.121094 23 9.5 23 C 10.578125 23 11.53125 22.308594 11.871094 21.285156 L 17.292969 26.707031 C 17.542969 26.96875 17.917969 27.074219 18.265625 26.980469 C 18.617188 26.890625 18.890625 26.617188 18.980469 26.265625 C 19.074219 25.917969 18.96875 25.542969 18.707031 25.292969 L 4.707031 11.292969 C 4.519531 11.097656 4.261719 10.992188 3.988281 10.988281 Z M 3.988281 10.988281 "/>
</g>
</svg>
