<?xml version="1.0" encoding="UTF-8"?>
<svg xmlns="http://www.w3.org/2000/svg" xmlns:xlink="http://www.w3.org/1999/xlink" viewBox="0 0 30 30" width="30px" height="30px">
<g id="surface31272050">
<path style=" stroke:none;fill-rule:nonzero;fill:rgb(100%,100%,100%);fill-opacity:1;" d="M 11 4 C 8.75 4 6.933594 4.878906 5.753906 6.210938 C 4.570312 7.542969 4 9.277344 4 11 C 4 13.578125 4.460938 15.222656 4.957031 16.421875 C 5.453125 17.621094 5.886719 18.296875 6.011719 19.144531 C 6.183594 20.335938 6.410156 21.882812 6.914062 23.234375 C 7.164062 23.910156 7.480469 24.550781 7.96875 25.074219 C 8.457031 25.601562 9.1875 26 10 26 C 11.261719 26 12.28125 25.3125 12.855469 24.464844 C 13.429688 23.621094 13.695312 22.648438 13.929688 21.746094 C 14.160156 20.847656 14.355469 20 14.578125 19.5 C 14.6875 19.25 14.800781 19.105469 14.859375 19.050781 C 14.917969 18.996094 14.902344 19 15 19 C 15.097656 19 15.082031 18.996094 15.140625 19.050781 C 15.199219 19.105469 15.3125 19.25 15.425781 19.5 C 15.644531 20 15.839844 20.847656 16.074219 21.746094 C 16.304688 22.648438 16.570312 23.621094 17.144531 24.464844 C 17.71875 25.3125 18.738281 26 20 26 C 20.8125 26 21.542969 25.601562 22.03125 25.074219 C 22.519531 24.550781 22.835938 23.910156 23.089844 23.234375 C 23.589844 21.882812 23.816406 20.335938 23.992188 19.144531 C 24.113281 18.296875 24.546875 17.621094 25.042969 16.421875 C 25.539062 15.222656 26 13.578125 26 11 C 26 9.277344 25.429688 7.542969 24.25 6.210938 C 23.066406 4.878906 21.25 4 19 4 C 17.390625 4 16.257812 4.269531 15.503906 4.570312 C 15.246094 4.675781 15.035156 4.789062 14.855469 4.898438 C 13.839844 4.386719 12.566406 4 11 4 Z M 11 6 C 14.785156 6 16.136719 8.5 16.136719 8.5 C 16.3125 8.8125 16.644531 9 17.003906 9 C 17.359375 9 17.691406 8.808594 17.867188 8.5 C 18.046875 8.1875 18.042969 7.808594 17.867188 7.496094 C 17.867188 7.496094 17.503906 6.929688 16.785156 6.253906 C 17.300781 6.117188 18.011719 6 19 6 C 20.75 6 21.933594 6.621094 22.753906 7.539062 C 23.570312 8.457031 24 9.722656 24 11 C 24 13.351562 23.621094 14.628906 23.195312 15.65625 C 22.769531 16.6875 22.203125 17.542969 22.011719 18.855469 C 21.835938 20.035156 21.601562 21.484375 21.214844 22.539062 C 21.015625 23.066406 20.78125 23.484375 20.566406 23.710938 C 20.351562 23.941406 20.230469 24 20 24 C 19.351562 24 19.117188 23.8125 18.800781 23.34375 C 18.484375 22.878906 18.226562 22.101562 18.011719 21.25 C 17.792969 20.402344 17.613281 19.5 17.253906 18.6875 C 17.070312 18.28125 16.839844 17.878906 16.464844 17.550781 C 16.136719 17.261719 15.683594 17.066406 15.207031 17.019531 C 15.140625 17.003906 15.070312 17 15 17 C 14.929688 17 14.859375 17.003906 14.792969 17.019531 C 14.316406 17.066406 13.863281 17.261719 13.535156 17.550781 C 13.160156 17.878906 12.929688 18.28125 12.75 18.6875 C 12.386719 19.5 12.207031 20.402344 11.992188 21.25 C 11.773438 22.101562 11.515625 22.878906 11.199219 23.34375 C 10.882812 23.8125 10.648438 24 10 24 C 9.769531 24 9.648438 23.941406 9.433594 23.710938 C 9.21875 23.484375 8.984375 23.066406 8.789062 22.539062 C 8.398438 21.484375 8.164062 20.035156 7.992188 18.855469 L 7.992188 18.851562 C 7.796875 17.542969 7.230469 16.683594 6.804688 15.65625 C 6.378906 14.628906 6 13.351562 6 11 C 6 9.722656 6.429688 8.457031 7.25 7.539062 C 8.066406 6.621094 9.25 6 11 6 Z M 11 6 "/>
</g>
</svg>
