<?xml version="1.0" encoding="UTF-8"?>
<svg xmlns="http://www.w3.org/2000/svg" xmlns:xlink="http://www.w3.org/1999/xlink" viewBox="0 0 30 30" width="30px" height="30px">
<g id="surface32412086">
<path style=" stroke:none;fill-rule:nonzero;fill:rgb(100%,100%,100%);fill-opacity:1;" d="M 26.953125 23.574219 L 25 6 C 25 4.894531 24.105469 4 23 4 L 7 4 C 5.894531 4 5 4.894531 5 6 L 3.046875 23.574219 C 3.019531 23.714844 3 23.855469 3 24 C 3 25.105469 3.894531 26 5 26 L 25 26 C 26.105469 26 27 25.105469 27 24 C 27 23.855469 26.980469 23.714844 26.953125 23.574219 Z M 20 8.90625 L 20 10 C 20 12.757812 17.757812 15 15 15 C 12.242188 15 10 12.757812 10 10 L 10 8.90625 C 9.417969 8.703125 9 8.152344 9 7.5 C 9 6.671875 9.671875 6 10.5 6 C 11.328125 6 12 6.671875 12 7.5 L 12 10 C 12 11.652344 13.347656 13 15 13 C 16.652344 13 18 11.652344 18 10 L 18 7.5 C 18 6.671875 18.671875 6 19.5 6 C 20.328125 6 21 6.671875 21 7.5 C 21 8.152344 20.582031 8.703125 20 8.90625 Z M 20 8.90625 "/>
</g>
</svg>
