<?xml version="1.0" encoding="UTF-8"?>
<svg xmlns="http://www.w3.org/2000/svg" xmlns:xlink="http://www.w3.org/1999/xlink" viewBox="0 0 30 30" width="30px" height="30px">
<g id="surface31441462">
<path style=" stroke:none;fill-rule:nonzero;fill:rgb(100%,100%,100%);fill-opacity:1;" d="M 6.6875 4 C 6.480469 4 6.011719 4.046875 5.613281 4.316406 C 5.21875 4.585938 4.917969 4.988281 4.644531 5.554688 C 4.496094 5.871094 4.195312 6.59375 3.75 7.664062 C 3.304688 8.738281 2.746094 10.089844 2.203125 11.414062 C 1.140625 14.003906 0.175781 16.371094 0.125 16.492188 C 0.0234375 16.667969 -0.0234375 16.871094 -0.0117188 17.070312 C 0.0117188 17.613281 0.460938 18.035156 1 18.027344 L 1 18.222656 C 1 19.976562 1.359375 21.6875 2.5 22.980469 C 3.640625 24.277344 5.484375 25 8 25 C 9.867188 25 11.457031 24.285156 12.488281 23.03125 C 13.523438 21.78125 14 20.085938 14 18.167969 L 14 17.175781 C 14.199219 17.09375 14.503906 17 15 17 C 15.496094 17 15.800781 17.09375 16 17.175781 L 16 18.167969 C 16 20.085938 16.476562 21.78125 17.507812 23.03125 C 18.542969 24.285156 20.132812 25 22 25 C 24.515625 25 26.359375 24.277344 27.5 22.980469 C 28.640625 21.6875 29 19.976562 29 18.222656 L 29 18.027344 C 29.523438 18.035156 29.960938 17.636719 30.007812 17.117188 C 30.03125 16.898438 29.984375 16.679688 29.871094 16.492188 C 29.824219 16.367188 28.859375 14.003906 27.796875 11.414062 C 27.253906 10.089844 26.695312 8.738281 26.25 7.664062 C 25.804688 6.59375 25.503906 5.871094 25.351562 5.554688 C 25.082031 4.988281 24.78125 4.585938 24.382812 4.316406 C 23.988281 4.046875 23.519531 4 23.308594 4 C 22.5625 4 21.945312 4.550781 21.652344 5.0625 C 21.359375 5.578125 21.199219 6.132812 21.035156 6.738281 C 20.929688 7.085938 21.023438 7.464844 21.277344 7.726562 C 21.53125 7.984375 21.90625 8.085938 22.257812 7.992188 C 22.609375 7.894531 22.878906 7.617188 22.964844 7.261719 C 23.109375 6.734375 23.25 6.34375 23.359375 6.128906 C 23.410156 6.183594 23.433594 6.183594 23.550781 6.421875 C 23.59375 6.507812 23.957031 7.367188 24.402344 8.433594 C 24.847656 9.5 25.402344 10.851562 25.945312 12.175781 C 26.652344 13.898438 26.933594 14.589844 27.328125 15.558594 C 26.003906 15.285156 24.136719 15 22 15 C 20.234375 15 18.105469 15.242188 16.691406 15.417969 C 16.386719 15.269531 16.011719 15.042969 15.164062 15.011719 C 15.109375 15.003906 15.054688 15 15 15 C 14.953125 15 14.90625 15.003906 14.859375 15.011719 C 13.992188 15.035156 13.617188 15.269531 13.304688 15.417969 C 11.894531 15.242188 9.765625 15 8 15 C 5.863281 15 3.996094 15.285156 2.671875 15.554688 C 3.066406 14.589844 3.347656 13.898438 4.054688 12.175781 C 4.597656 10.851562 5.152344 9.5 5.597656 8.433594 C 6.042969 7.367188 6.40625 6.507812 6.449219 6.421875 C 6.566406 6.183594 6.589844 6.183594 6.636719 6.128906 C 6.75 6.34375 6.890625 6.734375 7.035156 7.261719 C 7.121094 7.617188 7.390625 7.894531 7.742188 7.992188 C 8.09375 8.085938 8.46875 7.984375 8.722656 7.726562 C 8.976562 7.464844 9.070312 7.085938 8.964844 6.738281 C 8.800781 6.132812 8.640625 5.578125 8.347656 5.0625 C 8.054688 4.550781 7.4375 4 6.6875 4 Z M 6.6875 4 "/>
</g>
</svg>
