<?xml version="1.0" encoding="UTF-8"?>
<svg xmlns="http://www.w3.org/2000/svg" xmlns:xlink="http://www.w3.org/1999/xlink" viewBox="0 0 30 30" width="30px" height="30px">
<g id="surface32416197">
<path style=" stroke:none;fill-rule:nonzero;fill:rgb(100%,100%,100%);fill-opacity:1;" d="M 23.933594 1.71875 L 24.875 3.074219 L 21.8125 4.945312 L 17.195312 4.019531 C 17.003906 3.980469 16.808594 4 16.628906 4.070312 L 12 5.921875 L 7.371094 4.070312 C 7.105469 3.964844 6.808594 3.976562 6.550781 4.105469 L 2.554688 6.105469 C 2.058594 6.351562 1.859375 6.953125 2.105469 7.445312 C 2.351562 7.941406 2.953125 8.140625 3.449219 7.894531 L 7.046875 6.097656 L 11.628906 7.929688 C 11.867188 8.023438 12.132812 8.023438 12.371094 7.929688 L 17.097656 6.039062 L 21.804688 6.980469 C 22.050781 7.03125 22.308594 6.984375 22.523438 6.855469 L 26.015625 4.71875 L 27.160156 6.363281 L 27.871094 2.429688 Z M 4 10 C 3.871094 10 3.742188 10.011719 3.613281 10.039062 C 3.601562 10.042969 3.59375 10.042969 3.582031 10.046875 C 2.660156 10.242188 2 11.058594 2 12 L 2 24 C 2 24.128906 2.011719 24.257812 2.039062 24.386719 C 2.042969 24.398438 2.042969 24.40625 2.046875 24.417969 C 2.242188 25.339844 3.058594 26 4 26 L 26 26 C 26.128906 26 26.257812 25.988281 26.386719 25.960938 C 26.398438 25.957031 26.40625 25.957031 26.417969 25.953125 C 27.339844 25.757812 28 24.941406 28 24 L 28 12 C 28 11.871094 27.988281 11.742188 27.960938 11.613281 C 27.957031 11.601562 27.957031 11.59375 27.953125 11.582031 C 27.757812 10.660156 26.941406 10 26 10 Z M 6 12 L 24 12 C 24 13.105469 24.894531 14 26 14 L 26 22 C 24.894531 22 24 22.894531 24 24 L 6 24 C 6 22.894531 5.105469 22 4 22 L 4 14 C 5.105469 14 6 13.105469 6 12 Z M 15 14 C 12.789062 14 11 16.015625 11 18.5 C 11 19.921875 11.597656 21.175781 12.515625 22 L 17.488281 22 C 18.402344 21.175781 19 19.921875 19 18.5 C 19 16.015625 17.210938 14 15 14 Z M 7 17 C 6.449219 17 6 17.449219 6 18 C 6 18.550781 6.449219 19 7 19 C 7.550781 19 8 18.550781 8 18 C 8 17.449219 7.550781 17 7 17 Z M 23 17 C 22.449219 17 22 17.449219 22 18 C 22 18.550781 22.449219 19 23 19 C 23.550781 19 24 18.550781 24 18 C 24 17.449219 23.550781 17 23 17 Z M 23 17 "/>
</g>
</svg>
