<?xml version="1.0" encoding="UTF-8"?>
<svg xmlns="http://www.w3.org/2000/svg" xmlns:xlink="http://www.w3.org/1999/xlink" viewBox="0 0 30 30" width="30px" height="30px">
<g id="surface32662336">
<path style=" stroke:none;fill-rule:nonzero;fill:rgb(100%,100%,100%);fill-opacity:1;" d="M 20.589844 1.988281 C 20.238281 2 19.917969 2.199219 19.75 2.511719 C 19.582031 2.820312 19.589844 3.195312 19.769531 3.5 L 13.878906 6.902344 C 13.410156 7.171875 13.25 7.765625 13.519531 8.234375 L 17.910156 15.839844 C 18.179688 16.304688 18.773438 16.464844 19.242188 16.195312 L 25.136719 12.792969 C 25.304688 13.117188 25.640625 13.324219 26.007812 13.328125 C 26.375 13.332031 26.714844 13.136719 26.894531 12.816406 C 27.070312 12.496094 27.0625 12.101562 26.863281 11.792969 L 21.5 2.5 C 21.320312 2.171875 20.964844 1.972656 20.589844 1.988281 Z M 12.316406 10.054688 L 8.09375 12.496094 C 7.625 12.765625 7.46875 13.359375 7.738281 13.828125 L 10.175781 18.050781 C 10.445312 18.519531 11.039062 18.675781 11.507812 18.410156 L 15.734375 15.96875 Z M 6.535156 15.644531 L 4.863281 16.609375 C 4.683594 16.28125 4.332031 16.082031 3.953125 16.097656 C 3.601562 16.109375 3.28125 16.308594 3.113281 16.621094 C 2.945312 16.929688 2.953125 17.304688 3.136719 17.609375 L 4.597656 20.144531 C 4.769531 20.46875 5.101562 20.675781 5.46875 20.679688 C 5.835938 20.683594 6.175781 20.488281 6.355469 20.167969 C 6.535156 19.847656 6.523438 19.453125 6.328125 19.144531 L 8 18.179688 Z M 14 18.972656 L 12 20.105469 L 12 25 L 9 25 C 8.449219 25 8 25.449219 8 26 C 8 26.550781 8.449219 27 9 27 L 17 27 C 17.550781 27 18 26.550781 18 26 C 18 25.449219 17.550781 25 17 25 L 14 25 Z M 14 18.972656 "/>
</g>
</svg>
