<?xml version="1.0" encoding="UTF-8"?>
<svg xmlns="http://www.w3.org/2000/svg" xmlns:xlink="http://www.w3.org/1999/xlink" viewBox="0 0 30 30" width="30px" height="30px">
<g id="surface31530188">
<path style=" stroke:none;fill-rule:nonzero;fill:rgb(100%,100%,100%);fill-opacity:1;" d="M 12.5 2 C 10.566406 2 9 3.566406 9 5.5 C 9 6.480469 9.40625 7.363281 10.058594 8 L 14.945312 8 C 15.59375 7.363281 16 6.480469 16 5.5 C 16 3.566406 14.433594 2 12.5 2 Z M 25 8 L 20.367188 9.546875 C 19.375 9.070312 18.289062 8.695312 17.132812 8.4375 C 16.90625 8.792969 16.652344 9.128906 16.34375 9.429688 L 15.757812 10 L 9.238281 10 L 8.65625 9.429688 C 8.445312 9.222656 8.273438 8.996094 8.097656 8.765625 C 5.632812 9.671875 3.863281 11.40625 3.25 14.03125 C 3.167969 14.011719 3.085938 14 3 14 C 2.449219 14 2 14.449219 2 15 C 2 15.550781 2.449219 16 3 16 C 3.003906 16 3.007812 16 3.007812 16 C 3.007812 16.046875 3 16.085938 3 16.132812 C 3 17.628906 3.382812 19.121094 4.113281 20.480469 L 5.035156 25.996094 C 5.132812 26.574219 5.632812 27 6.21875 27 L 8.988281 27 C 9.578125 27 10.078125 26.574219 10.175781 25.996094 L 10.277344 25.378906 C 11.539062 25.769531 12.941406 26 14.5 26 C 15.632812 26 16.71875 25.898438 17.742188 25.710938 L 18.285156 26.546875 C 18.472656 26.828125 18.785156 27 19.125 27 L 22 27 C 22.632812 27 23.105469 26.421875 22.980469 25.804688 L 22.585938 23.851562 C 23.742188 23.078125 24.644531 22.113281 25.230469 20.992188 L 26.09375 20.992188 C 26.644531 20.992188 27.125 20.617188 27.261719 20.082031 L 27.964844 17.265625 C 28.117188 16.65625 27.777344 16.03125 27.179688 15.835938 L 25.640625 15.320312 C 25.277344 14.078125 24.640625 12.988281 23.792969 12.046875 C 24.433594 11.066406 25 9.730469 25 8 Z M 21.5 14 C 22.328125 14 23 14.671875 23 15.5 C 23 16.328125 22.328125 17 21.5 17 C 20.671875 17 20 16.328125 20 15.5 C 20 14.671875 20.671875 14 21.5 14 Z M 21.5 14 "/>
</g>
</svg>
