<?xml version="1.0" encoding="UTF-8"?>
<svg xmlns="http://www.w3.org/2000/svg" xmlns:xlink="http://www.w3.org/1999/xlink" viewBox="0 0 30 30" width="30px" height="30px">
<g id="surface32547669">
<path style=" stroke:none;fill-rule:nonzero;fill:rgb(100%,100%,100%);fill-opacity:1;" d="M 15 6 C 10.933594 6 5.402344 7.058594 5.394531 7.0625 C 4.207031 7.304688 3.277344 8.25 3.054688 9.445312 L 3.050781 9.449219 L 1.082031 20.179688 L 1.085938 20.183594 C 1.03125 20.445312 1 20.71875 1 21 C 1 23.210938 2.789062 25 5 25 C 6.1875 25 7.238281 24.472656 7.972656 23.652344 L 7.984375 23.660156 L 9.5 22 L 20.5 22 L 22.015625 23.660156 L 22.027344 23.652344 C 22.761719 24.472656 23.8125 25 25 25 C 27.210938 25 29 23.210938 29 21 C 29 20.71875 28.96875 20.445312 28.914062 20.183594 L 28.917969 20.179688 L 26.949219 9.449219 L 26.945312 9.445312 C 26.722656 8.25 25.792969 7.304688 24.605469 7.0625 C 24.601562 7.058594 24.601562 7.0625 24.601562 7.0625 C 24.597656 7.058594 19.066406 6 15 6 Z M 8 12 C 8.550781 12 9 12.449219 9 13 L 9 14 L 10 14 C 10.550781 14 11 14.449219 11 15 C 11 15.550781 10.550781 16 10 16 L 9 16 L 9 17 C 9 17.550781 8.550781 18 8 18 C 7.449219 18 7 17.550781 7 17 L 7 16 L 6 16 C 5.449219 16 5 15.550781 5 15 C 5 14.449219 5.449219 14 6 14 L 7 14 L 7 13 C 7 12.449219 7.449219 12 8 12 Z M 22 12 C 22.550781 12 23 12.449219 23 13 C 23 13.550781 22.550781 14 22 14 C 21.449219 14 21 13.550781 21 13 C 21 12.449219 21.449219 12 22 12 Z M 20 14 C 20.550781 14 21 14.449219 21 15 C 21 15.550781 20.550781 16 20 16 C 19.449219 16 19 15.550781 19 15 C 19 14.449219 19.449219 14 20 14 Z M 24 14 C 24.550781 14 25 14.449219 25 15 C 25 15.550781 24.550781 16 24 16 C 23.449219 16 23 15.550781 23 15 C 23 14.449219 23.449219 14 24 14 Z M 22 16 C 22.550781 16 23 16.449219 23 17 C 23 17.550781 22.550781 18 22 18 C 21.449219 18 21 17.550781 21 17 C 21 16.449219 21.449219 16 22 16 Z M 22 16 "/>
</g>
</svg>
