<?xml version="1.0" encoding="UTF-8"?>
<svg xmlns="http://www.w3.org/2000/svg" xmlns:xlink="http://www.w3.org/1999/xlink" viewBox="0 0 30 30" width="30px" height="30px">
<g id="surface32441498">
<path style=" stroke:none;fill-rule:nonzero;fill:rgb(100%,100%,100%);fill-opacity:1;" d="M 15 0.378906 C 14.851562 0.378906 14.699219 0.449219 14.609375 0.59375 C 14.027344 1.5 13 3.210938 13 4 C 13 5.105469 13.894531 6 15 6 C 16.105469 6 17 5.105469 17 4 C 17 3.210938 15.972656 1.5 15.390625 0.59375 C 15.300781 0.449219 15.148438 0.378906 15 0.378906 Z M 14 8 C 13.449219 8 13 8.449219 13 9 L 13 11 L 9 11 C 6.800781 11 5 12.800781 5 15 C 5 16.492188 5.839844 17.785156 7.058594 18.472656 L 7.78125 24.246094 C 7.90625 25.25 8.757812 26 9.765625 26 L 20.234375 26 C 21.242188 26 22.09375 25.25 22.21875 24.246094 L 22.941406 18.472656 C 24.160156 17.785156 25 16.492188 25 15 C 25 12.800781 23.199219 11 21 11 L 17 11 L 17 9 C 17 8.449219 16.550781 8 16 8 Z M 9 13 L 21 13 C 22.117188 13 23 13.882812 23 15 C 23 16.117188 22.117188 17 21 17 C 20.488281 17 20.035156 16.804688 19.671875 16.480469 C 19.289062 16.136719 18.710938 16.136719 18.332031 16.480469 C 17.964844 16.804688 17.511719 17 17 17 C 16.488281 17 16.035156 16.804688 15.671875 16.480469 C 15.289062 16.136719 14.710938 16.136719 14.332031 16.480469 C 13.964844 16.804688 13.511719 17 13 17 C 12.488281 17 12.035156 16.804688 11.671875 16.480469 C 11.289062 16.136719 10.710938 16.136719 10.332031 16.480469 C 9.964844 16.804688 9.511719 17 9 17 C 7.882812 17 7 16.117188 7 15 C 7 13.882812 7.882812 13 9 13 Z M 9 13 "/>
</g>
</svg>
