<?xml version="1.0" encoding="UTF-8"?>
<svg xmlns="http://www.w3.org/2000/svg" xmlns:xlink="http://www.w3.org/1999/xlink" viewBox="0 0 30 30" width="30px" height="30px">
<g id="surface34008207">
<path style=" stroke:none;fill-rule:nonzero;fill:rgb(100%,100%,100%);fill-opacity:1;" d="M 15 2 C 14.832031 2 14.667969 2.042969 14.519531 2.125 L 2.519531 8.667969 C 2.199219 8.835938 1.992188 9.164062 1.980469 9.523438 C 1.96875 9.886719 2.15625 10.226562 2.464844 10.414062 C 2.777344 10.601562 3.164062 10.605469 3.476562 10.421875 L 15 4.140625 L 26.519531 10.421875 C 26.835938 10.605469 27.222656 10.601562 27.535156 10.414062 C 27.84375 10.226562 28.03125 9.886719 28.019531 9.523438 C 28.007812 9.164062 27.800781 8.835938 27.476562 8.667969 L 15.476562 2.121094 C 15.332031 2.042969 15.167969 2 15 2 Z M 15 6 L 4 12 L 4 25 C 4 26.105469 4.894531 27 6 27 L 24 27 C 25.105469 27 26 26.105469 26 25 L 26 12 Z M 14 10.5 L 16 10.5 L 16 12.089844 C 17.773438 12.40625 18.972656 13.566406 19.027344 15.152344 L 16.96875 15.152344 C 16.867188 14.328125 16.097656 13.777344 15.039062 13.777344 C 13.945312 13.777344 13.222656 14.285156 13.222656 15.082031 C 13.222656 15.726562 13.71875 16.097656 14.945312 16.355469 L 16.207031 16.625 C 18.308594 17.070312 19.21875 17.976562 19.21875 19.597656 C 19.214844 21.417969 18.011719 22.621094 16 22.921875 L 16 24.5 L 14 24.5 L 14 22.925781 C 12.066406 22.644531 10.851562 21.507812 10.785156 19.824219 L 12.902344 19.824219 C 13.003906 20.671875 13.855469 21.214844 15.089844 21.214844 C 16.226562 21.214844 17.03125 20.664062 17.03125 19.875 C 17.03125 19.207031 16.511719 18.824219 15.226562 18.546875 L 13.863281 18.257812 C 11.957031 17.859375 11.019531 16.867188 11.019531 15.269531 C 11.019531 13.597656 12.175781 12.414062 14 12.09375 Z M 14 10.5 "/>
</g>
</svg>
