<?xml version="1.0" encoding="UTF-8"?>
<svg xmlns="http://www.w3.org/2000/svg" xmlns:xlink="http://www.w3.org/1999/xlink" viewBox="0 0 30 30" width="30px" height="30px">
<g id="surface40592935">
<path style=" stroke:none;fill-rule:nonzero;fill:rgb(100%,100%,100%);fill-opacity:1;" d="M 7 0 C 6.449219 0 6 0.449219 6 1 C 6 1.550781 6.449219 2 7 2 C 7.550781 2 8 1.550781 8 1 C 8 0.449219 7.550781 0 7 0 Z M 23 0 C 22.449219 0 22 0.449219 22 1 C 22 1.550781 22.449219 2 23 2 C 23.550781 2 24 1.550781 24 1 C 24 0.449219 23.550781 0 23 0 Z M 3 2 C 2.449219 2 2 2.449219 2 3 C 2 3.550781 2.449219 4 3 4 C 3.550781 4 4 3.550781 4 3 C 4 2.449219 3.550781 2 3 2 Z M 12.71875 2 C 12.289062 2 11.90625 2.273438 11.769531 2.683594 L 11.332031 4 L 9.628906 4 C 7.929688 4 6.414062 5.078125 5.855469 6.679688 L 3.796875 12.558594 C 2.695312 13.28125 2 14.53125 2 15.90625 L 2 23 C 2 24.105469 2.894531 25 4 25 C 5.105469 25 6 24.105469 6 23 L 6 21.738281 C 6 21.738281 11.28125 22 15 22 C 18.71875 22 24 21.738281 24 21.738281 L 24 23 C 24 24.105469 24.894531 25 26 25 C 27.105469 25 28 24.105469 28 23 L 28 15.90625 C 28 14.53125 27.300781 13.28125 26.207031 12.558594 L 24.148438 6.679688 C 23.585938 5.078125 22.070312 4 20.371094 4 L 18.667969 4 L 18.230469 2.683594 C 18.09375 2.273438 17.710938 2 17.28125 2 Z M 27 2 C 26.449219 2 26 2.449219 26 3 C 26 3.550781 26.449219 4 27 4 C 27.550781 4 28 3.550781 28 3 C 28 2.449219 27.550781 2 27 2 Z M 2 6 C 1.449219 6 1 6.449219 1 7 C 1 7.550781 1.449219 8 2 8 C 2.550781 8 3 7.550781 3 7 C 3 6.449219 2.550781 6 2 6 Z M 9.628906 6 L 20.371094 6 C 21.222656 6 21.980469 6.539062 22.261719 7.339844 L 23.40625 10.613281 C 23.585938 11.128906 23.15625 11.648438 22.617188 11.5625 C 20.65625 11.242188 18.136719 11 15 11 C 11.863281 11 9.34375 11.242188 7.382812 11.5625 C 6.84375 11.648438 6.414062 11.128906 6.597656 10.613281 L 7.742188 7.339844 C 8.019531 6.539062 8.777344 6 9.628906 6 Z M 28 6 C 27.449219 6 27 6.449219 27 7 C 27 7.550781 27.449219 8 28 8 C 28.550781 8 29 7.550781 29 7 C 29 6.449219 28.550781 6 28 6 Z M 6.5 15 C 7.328125 15 8 15.671875 8 16.5 C 8 17.328125 7.328125 18 6.5 18 C 5.671875 18 5 17.328125 5 16.5 C 5 15.671875 5.671875 15 6.5 15 Z M 12 15 L 18 15 C 18.550781 15 19 15.449219 19 16 C 19 16.550781 18.550781 17 18 17 L 12 17 C 11.449219 17 11 16.550781 11 16 C 11 15.449219 11.449219 15 12 15 Z M 23.5 15 C 24.328125 15 25 15.671875 25 16.5 C 25 17.328125 24.328125 18 23.5 18 C 22.671875 18 22 17.328125 22 16.5 C 22 15.671875 22.671875 15 23.5 15 Z M 23.5 15 "/>
</g>
</svg>
