<?xml version="1.0" encoding="UTF-8"?>
<svg xmlns="http://www.w3.org/2000/svg" xmlns:xlink="http://www.w3.org/1999/xlink" viewBox="0 0 30 30" width="30px" height="30px">
<g id="surface32386043">
<path style=" stroke:none;fill-rule:nonzero;fill:rgb(100%,100%,100%);fill-opacity:1;" d="M 3.628906 23.371094 L 2.898438 24.101562 C 3.5 25.171875 4.320312 26.171875 5.570312 26.960938 L 6.488281 26.339844 L 7 26 L 6.699219 26.449219 L 6.140625 27.289062 C 6.601562 27.539062 7.109375 27.761719 7.679688 27.949219 C 7.789062 27.980469 7.890625 28 8 28 C 8.300781 28 8.589844 27.871094 8.78125 27.621094 L 12.78125 22.621094 C 13.101562 22.230469 13.070312 21.648438 12.710938 21.289062 L 8.710938 17.289062 C 8.351562 16.929688 7.769531 16.898438 7.378906 17.21875 L 2.378906 21.21875 C 2.03125 21.5 1.910156 21.960938 2.070312 22.371094 C 2.191406 22.671875 2.320312 22.96875 2.460938 23.269531 L 3.359375 22.820312 L 4.25 22.371094 L 5 22 Z M 14.289062 19.710938 C 14.480469 19.898438 14.738281 20 15 20 L 15.078125 20 C 15.371094 19.96875 15.628906 19.828125 15.808594 19.589844 L 17.011719 17.96875 L 17.019531 17.953125 L 17 18 L 27.679688 4.421875 L 27.671875 4.410156 C 27.878906 4.160156 28 3.839844 28 3.488281 C 28 2.671875 27.328125 2 26.511719 2 C 26.058594 2 25.660156 2.199219 25.398438 2.511719 L 25.390625 2.5 L 12.25 12.824219 L 12.011719 13.011719 L 12 13.019531 L 10.410156 14.191406 C 10.171875 14.371094 10.03125 14.628906 10 14.921875 C 9.980469 15.210938 10.089844 15.5 10.289062 15.710938 Z M 15 17 L 13 15 L 16 12 L 18 14 Z M 15 17 "/>
</g>
</svg>
