<?xml version="1.0" encoding="UTF-8"?>
<svg xmlns="http://www.w3.org/2000/svg" xmlns:xlink="http://www.w3.org/1999/xlink" viewBox="0 0 30 30" width="30px" height="30px">
<g id="surface32743837">
<path style=" stroke:none;fill-rule:nonzero;fill:rgb(100%,100%,100%);fill-opacity:1;" d="M 11 3 C 7.6875 3 5 5.6875 5 9 C 5 9.519531 5.074219 10.019531 5.199219 10.5 C 5.863281 7.914062 8.203125 6 11 6 C 12.363281 6 13.613281 6.460938 14.621094 7.226562 C 13.726562 6.976562 12.753906 6.921875 11.746094 7.128906 C 9.449219 7.59375 7.59375 9.449219 7.128906 11.746094 C 6.847656 13.113281 7.039062 14.425781 7.566406 15.546875 C 7.910156 16.269531 9.035156 16.042969 9.003906 15.238281 C 8.980469 14.679688 9.039062 14.101562 9.183594 13.507812 C 9.703125 11.398438 11.398438 9.703125 13.507812 9.183594 C 14.003906 9.0625 14.484375 9.007812 14.957031 9.003906 C 14.253906 18.246094 4 22 4 22 L 4 24 C 4 25.105469 4.894531 26 6 26 L 24 26 C 25.105469 26 26 25.105469 26 24 L 26 22 C 26 22 25 23 24 23 C 23 23 22 22 22 22 C 22 22 21 23 20 23 C 19 23 18 22 18 22 C 18 22 17 23 16 23 C 15 23 14 22 14 22 L 12.089844 22 C 12.089844 22 16.960938 18.628906 16.996094 9.101562 C 17.167969 9.128906 17.339844 9.144531 17.511719 9.1875 C 19.609375 9.707031 21.292969 11.394531 21.8125 13.488281 C 21.960938 14.082031 22.015625 14.664062 21.996094 15.230469 C 21.964844 16.035156 23.09375 16.265625 23.4375 15.535156 C 23.960938 14.417969 24.152344 13.113281 23.871094 11.746094 C 23.425781 9.535156 21.679688 7.742188 19.5 7.195312 C 19.980469 7.074219 20.480469 7 21 7 C 23.796875 7 26.136719 8.914062 26.800781 11.5 C 26.925781 11.019531 27 10.519531 27 10 C 27 6.6875 24.3125 4 21 4 C 19.109375 4 17.429688 4.882812 16.328125 6.25 C 15.332031 4.320312 13.324219 3 11 3 Z M 11 3 "/>
</g>
</svg>
