<?xml version="1.0" encoding="UTF-8"?>
<svg xmlns="http://www.w3.org/2000/svg" xmlns:xlink="http://www.w3.org/1999/xlink" viewBox="0 0 30 30" width="30px" height="30px">
<g id="surface32392917">
<path style=" stroke:none;fill-rule:nonzero;fill:rgb(100%,100%,100%);fill-opacity:1;" d="M 18 2 C 17.449219 2 17 2.449219 17 3 C 17 3.550781 17.449219 4 18 4 L 23 4 C 23.550781 4 24 3.550781 24 3 C 24 2.449219 23.550781 2 23 2 Z M 18 6 L 15.855469 9.574219 C 15.296875 10.507812 15 11.574219 15 12.660156 L 15 15.761719 C 16.828125 17.226562 18 19.476562 18 22 C 18 24.160156 17.140625 26.113281 15.753906 27.550781 C 16.09375 27.828125 16.523438 28 17 28 L 24 28 C 25.105469 28 26 27.105469 26 26 L 26 12.660156 C 26 11.574219 25.703125 10.507812 25.144531 9.574219 L 23 6 Z M 10 16 C 6.6875 16 4 18.6875 4 22 C 4 25.3125 6.6875 28 10 28 C 13.3125 28 16 25.3125 16 22 C 16 18.6875 13.3125 16 10 16 Z M 9.964844 18 L 10.03125 18 C 10.441406 18.003906 10.738281 18.386719 10.660156 18.785156 L 10.292969 20.753906 C 10.269531 20.898438 10.144531 21 10 21 C 9.855469 21 9.730469 20.898438 9.703125 20.753906 L 9.335938 18.785156 C 9.261719 18.386719 9.558594 18.003906 9.964844 18 Z M 7.015625 19.675781 C 7.203125 19.644531 7.40625 19.691406 7.5625 19.828125 L 9.066406 21.121094 C 9.179688 21.214844 9.207031 21.375 9.132812 21.5 C 9.0625 21.625 8.910156 21.679688 8.773438 21.632812 L 6.902344 20.972656 C 6.507812 20.835938 6.339844 20.375 6.546875 20.015625 L 6.554688 20 C 6.660156 19.820312 6.832031 19.710938 7.019531 19.675781 Z M 12.980469 19.675781 C 13.167969 19.710938 13.34375 19.820312 13.445312 20.003906 L 13.453125 20.015625 C 13.660156 20.375 13.492188 20.839844 13.097656 20.976562 L 11.226562 21.636719 C 11.089844 21.683594 10.9375 21.625 10.863281 21.5 C 10.792969 21.375 10.820312 21.214844 10.929688 21.121094 L 12.4375 19.828125 C 12.59375 19.691406 12.796875 19.644531 12.980469 19.679688 Z M 8.773438 22.363281 C 8.910156 22.316406 9.0625 22.375 9.132812 22.5 C 9.207031 22.625 9.179688 22.785156 9.066406 22.878906 L 7.5625 24.171875 C 7.246094 24.441406 6.761719 24.359375 6.554688 23.996094 L 6.546875 23.984375 C 6.339844 23.625 6.507812 23.160156 6.902344 23.023438 Z M 11.226562 22.367188 L 13.097656 23.027344 C 13.492188 23.164062 13.660156 23.625 13.453125 23.984375 L 13.445312 23.996094 C 13.238281 24.359375 12.753906 24.441406 12.4375 24.171875 L 10.933594 22.878906 C 10.820312 22.785156 10.792969 22.625 10.867188 22.5 C 10.9375 22.375 11.089844 22.320312 11.226562 22.367188 Z M 10 23 C 10.144531 23 10.269531 23.101562 10.296875 23.246094 L 10.664062 25.214844 C 10.738281 25.613281 10.441406 25.996094 10.035156 26 L 9.96875 26 C 9.558594 25.996094 9.261719 25.613281 9.339844 25.214844 L 9.707031 23.246094 C 9.730469 23.101562 9.855469 23 10 23 Z M 10 23 "/>
</g>
</svg>
