<?xml version="1.0" encoding="UTF-8"?>
<svg xmlns="http://www.w3.org/2000/svg" xmlns:xlink="http://www.w3.org/1999/xlink" viewBox="0 0 30 30" width="30px" height="30px">
<g id="surface32545182">
<path style=" stroke:none;fill-rule:nonzero;fill:rgb(100%,100%,100%);fill-opacity:1;" d="M 12 3 L 10 4 C 10 7 11 8.015625 11 11 L 19 11 C 19 8.003906 20 7 20 4 L 18 3 C 18 6.996094 16.007812 6.003906 15 8 C 14.003906 6.003906 12 6.996094 12 3 Z M 11 13 C 10.058594 13 7.34375 20.089844 7.03125 25.925781 C 7 26.507812 7.445312 27 8.027344 27 L 21.972656 27 C 22.550781 27 23 26.507812 22.972656 25.925781 C 22.65625 20.089844 19.941406 13 19 13 Z M 11 13 "/>
</g>
</svg>
