<?xml version="1.0" encoding="UTF-8"?>
<svg xmlns="http://www.w3.org/2000/svg" xmlns:xlink="http://www.w3.org/1999/xlink" viewBox="0 0 30 30" width="30px" height="30px">
<g id="surface32355394">
<path style=" stroke:none;fill-rule:nonzero;fill:rgb(100%,100%,100%);fill-opacity:1;" d="M 11.636719 3.015625 C 11.300781 3.054688 11 3.328125 11 3.726562 L 11 9 C 11 10.621094 11.941406 12.046875 13.375 12.960938 C 11.035156 14.753906 7 15.890625 7 23 C 7 23.78125 7.09375 24.441406 7.222656 25 L 2 25 C 1.640625 24.996094 1.304688 25.183594 1.121094 25.496094 C 0.941406 25.808594 0.941406 26.191406 1.121094 26.503906 C 1.304688 26.816406 1.640625 27.003906 2 27 L 19.265625 27 C 20.75 27 22.027344 25.894531 22.234375 24.425781 L 22.609375 21.800781 C 22.871094 21.605469 23.023438 21.300781 23.011719 20.976562 C 23.695312 20.328125 24.136719 19.460938 23.949219 18.441406 C 23.675781 16.960938 22.332031 16 20.902344 16 L 20.78125 16 C 20.613281 15.070312 20.359375 14.144531 20.09375 13.265625 C 21.832031 12.386719 23 10.8125 23 9 L 23 3.726562 C 23 3.089844 22.230469 2.769531 21.777344 3.222656 L 20.210938 4.789062 C 19.28125 4.296875 18.183594 4 17 4 C 15.816406 4 14.71875 4.296875 13.789062 4.789062 L 12.21875 3.222656 C 12.050781 3.050781 11.839844 2.988281 11.636719 3.015625 Z M 15 8 C 15.550781 8 16 8.449219 16 9 C 16 9.550781 15.550781 10 15 10 C 14.449219 10 14 9.550781 14 9 C 14 8.449219 14.449219 8 15 8 Z M 19 8 C 19.550781 8 20 8.449219 20 9 C 20 9.550781 19.550781 10 19 10 C 18.449219 10 18 9.550781 18 9 C 18 8.449219 18.449219 8 19 8 Z M 13.09375 18 L 20.902344 18 C 21.429688 18 21.902344 18.359375 21.980469 18.800781 C 22.082031 19.34375 21.789062 19.757812 21.363281 19.925781 C 21.316406 19.949219 21.265625 19.972656 21.222656 20 L 16 20 C 15.640625 19.996094 15.304688 20.183594 15.121094 20.496094 C 14.941406 20.808594 14.941406 21.191406 15.121094 21.503906 C 15.304688 21.816406 15.640625 22.003906 16 22 L 20.5625 22 L 20.257812 24.140625 C 20.183594 24.640625 19.769531 25 19.265625 25 L 14.734375 25 C 14.226562 25 13.816406 24.640625 13.746094 24.140625 L 13.257812 20.714844 C 13.207031 20.359375 12.96875 20.058594 12.636719 19.925781 C 12.210938 19.757812 11.917969 19.34375 12.019531 18.800781 C 12.101562 18.359375 12.570312 18 13.097656 18 Z M 13.09375 18 "/>
</g>
</svg>
