<?xml version="1.0" encoding="UTF-8"?>
<svg xmlns="http://www.w3.org/2000/svg" xmlns:xlink="http://www.w3.org/1999/xlink" viewBox="0 0 30 30" width="30px" height="30px">
<g id="surface31439080">
<path style=" stroke:none;fill-rule:nonzero;fill:rgb(100%,100%,100%);fill-opacity:1;" d="M 6 3 C 5.449219 3 5 3.449219 5 4 L 5 17.480469 C 4.417969 18.171875 4 19.023438 4 20 C 4 21.90625 5.378906 23.453125 7.171875 23.84375 C 7.28125 23.90625 7.402344 23.949219 7.527344 23.964844 L 22.492188 25.964844 C 22.5625 25.976562 22.628906 25.976562 22.699219 25.972656 C 22.789062 25.984375 22.855469 26 23 26 C 25.199219 26 27 24.199219 27 22 C 27 20.390625 25.949219 19.136719 24.570312 18.503906 C 24.445312 18.339844 24.269531 18.214844 24.074219 18.148438 L 15 15.265625 L 15 4 C 15 3.449219 14.550781 3 14 3 Z M 7 5 L 13 5 L 13 8 L 7 8 Z M 6.816406 18.355469 C 7.4375 18.519531 8.21875 18.878906 8.539062 19.789062 C 8.84375 20.660156 8.539062 21.515625 8.203125 22.128906 C 8.074219 22.042969 7.925781 21.988281 7.769531 21.972656 C 6.765625 21.855469 6 21.035156 6 20 C 6 19.410156 6.253906 18.894531 6.671875 18.519531 C 6.726562 18.472656 6.773438 18.417969 6.816406 18.355469 Z M 23.070312 19.828125 C 23.191406 19.949219 23.34375 20.035156 23.511719 20.078125 C 24.367188 20.304688 25 21.066406 25 22 C 25 23.117188 24.117188 24 23 24 C 22.988281 24 22.910156 23.992188 22.757812 23.96875 C 22.652344 23.957031 22.546875 23.960938 22.441406 23.980469 C 22.210938 23.449219 22 22.761719 22 22 C 22 21.199219 22.574219 20.394531 23.070312 19.828125 Z M 21.660156 24.707031 C 21.65625 24.71875 21.65625 24.726562 21.652344 24.734375 Z M 21.660156 24.707031 "/>
</g>
</svg>
